<svg width="34" height="34" viewBox="0 0 34 34" fill="none" xmlns="http://www.w3.org/2000/svg">
<path opacity="0.5" d="M3.87598 21.6079V17.6721C3.87598 15.9132 3.87598 15.0337 4.33016 14.3449C4.78435 13.6561 5.59271 13.3097 7.20942 12.6168L8.68848 11.9829" stroke="#1C274D" stroke-linecap="round" stroke-linejoin="round"/>
<path opacity="0.5" d="M26.5635 16.7954V23.8429C26.5635 25.2289 25.8712 26.5266 24.6586 27.1981C22.6396 28.3162 19.408 29.8579 16.9385 29.8579C14.469 29.8579 11.2373 28.3162 9.21831 27.1981C8.00579 26.5266 7.31348 25.2289 7.31348 23.8429V16.7954" stroke="#1C274D" stroke-linecap="round"/>
<path d="M4.68945 10.1082L13.8897 5.79493C15.8436 4.8789 18.0333 4.8789 19.9871 5.79493L29.1875 10.1083C31.1888 11.0465 31.1888 14.2944 29.1875 15.2326L19.9873 19.5459C18.0334 20.4619 15.8437 20.4619 13.8899 19.5459L7.3135 16.4627" stroke="#1BC469" stroke-linecap="round"/>
</svg>
