<svg width="17" height="16" viewBox="0 0 17 16" fill="none" xmlns="http://www.w3.org/2000/svg">
<path d="M0.759766 8C0.759766 4.22876 0.759766 2.34315 1.93134 1.17157C3.10291 0 4.98853 0 8.75977 0C12.531 0 14.4166 0 15.5882 1.17157C16.7598 2.34315 16.7598 4.22876 16.7598 8C16.7598 11.7712 16.7598 13.6569 15.5882 14.8284C14.4166 16 12.531 16 8.75977 16C4.98853 16 3.10291 16 1.93134 14.8284C0.759766 13.6569 0.759766 11.7712 0.759766 8Z" fill="#1C274C"/>
<path opacity="0.5" d="M1.93134 14.8282C3.10291 15.9998 4.98853 15.9998 8.75977 15.9998C12.531 15.9998 14.4166 15.9998 15.5882 14.8282C16.6738 13.7426 16.7535 12.0439 16.7593 8.7998H14.2316C13.5074 8.7998 13.1454 8.7998 12.8271 8.94618C12.5088 9.09256 12.2732 9.36746 11.8019 9.91726L11.8019 9.91727L11.3176 10.4823L11.3176 10.4823C10.8463 11.0321 10.6107 11.307 10.2924 11.4534C9.97418 11.5998 9.61211 11.5998 8.88797 11.5998H8.63156C7.90742 11.5998 7.54535 11.5998 7.22709 11.4534C6.90883 11.307 6.6732 11.0321 6.20194 10.4823L5.7176 9.91727C5.24633 9.36747 5.0107 9.09256 4.69244 8.94618C4.37418 8.7998 4.01211 8.7998 3.28797 8.7998H0.759766C0.765608 12.0439 0.845713 13.7426 1.93134 14.8282Z" fill="white"/>
</svg>
