<svg width="23" height="23" viewBox="0 0 23 23" fill="none" xmlns="http://www.w3.org/2000/svg">
<path d="M0.525391 11.4338C0.525391 6.24839 0.525391 3.65566 2.1363 2.04475C3.74722 0.433838 6.33994 0.433838 11.5254 0.433838C16.7108 0.433838 19.3036 0.433838 20.9145 2.04475C22.5254 3.65566 22.5254 6.24839 22.5254 11.4338C22.5254 16.6193 22.5254 19.212 20.9145 20.8229C19.3036 22.4338 16.7108 22.4338 11.5254 22.4338C6.33994 22.4338 3.74722 22.4338 2.1363 20.8229C0.525391 19.212 0.525391 16.6193 0.525391 11.4338Z" fill="#1C274C"/>
<path d="M2.1363 20.8225C3.74722 22.4334 6.33994 22.4334 11.5254 22.4334C16.7108 22.4334 19.3036 22.4334 20.9145 20.8225C22.4072 19.3298 22.5167 16.994 22.5248 12.5334H19.0491C18.0534 12.5334 17.5556 12.5334 17.118 12.7347C16.6804 12.936 16.3564 13.314 15.7084 14.07L15.7084 14.07L15.0424 14.8469L15.0424 14.8469C14.3944 15.6029 14.0704 15.9809 13.6328 16.1822C13.1952 16.3834 12.6974 16.3834 11.7017 16.3834H11.3491C10.3534 16.3834 9.85557 16.3834 9.41796 16.1822C8.98035 15.9809 8.65636 15.6029 8.00837 14.8469L7.34241 14.07C6.69442 13.314 6.37043 12.936 5.93282 12.7347C5.49521 12.5334 4.99736 12.5334 4.00168 12.5334H0.525391C0.533424 16.994 0.643568 19.3298 2.1363 20.8225Z" fill="white"/>
</svg>
