<svg width="25" height="25" viewBox="0 0 25 25" fill="none" xmlns="http://www.w3.org/2000/svg">
<path d="M13.0976 5.58087L8.11973 10.0056C7.18915 10.8328 6.72386 11.2464 6.55239 11.7348C6.40181 12.1636 6.40181 12.631 6.55239 13.0599C6.72386 13.5483 7.18915 13.9619 8.11973 14.789L13.0976 19.2138C13.5199 19.5891 13.731 19.7768 13.9104 19.7835C14.0662 19.7894 14.2158 19.7222 14.3149 19.6019C14.4291 19.4634 14.4291 19.1809 14.4291 18.6158V15.8259C16.8571 15.8259 19.4217 16.6057 21.2943 17.9901C22.2692 18.7108 22.7567 19.0712 22.9423 19.057C23.1233 19.0431 23.2382 18.9724 23.3321 18.8171C23.4284 18.6577 23.3433 18.1598 23.1731 17.164C22.0682 10.6979 17.6182 8.96875 14.4291 8.96875V6.1788C14.4291 5.61378 14.4291 5.33127 14.3149 5.19277C14.2158 5.07245 14.0662 5.00526 13.9104 5.01109C13.731 5.01781 13.5199 5.20549 13.0976 5.58087Z" fill="#1C274C"/>
<path fill-rule="evenodd" clip-rule="evenodd" d="M10.4403 4.38713C10.1585 4.08359 9.68393 4.06602 9.3804 4.34787L4.16419 9.19149C3.21726 10.0708 2.6792 11.3047 2.6792 12.5969C2.6792 13.9591 3.27688 15.2527 4.31419 16.1357L9.40461 20.4686C9.72003 20.7371 10.1934 20.699 10.4619 20.3836C10.7303 20.0682 10.6923 19.5948 10.3769 19.3263L5.28645 14.9934C4.58396 14.3955 4.1792 13.5194 4.1792 12.5969C4.1792 11.7218 4.54358 10.8862 5.18487 10.2907L10.4011 5.44706C10.7046 5.16521 10.7222 4.69066 10.4403 4.38713Z" fill="white"/>
</svg>
