<svg width="35" height="36" viewBox="0 0 35 36" fill="none" xmlns="http://www.w3.org/2000/svg">
<path d="M12.0541 22.3207H10.9747V19.3015C10.9747 18.4372 10.3801 17.7092 9.57847 17.5049L8.57495 13.0625C8.45964 12.5519 8.01346 12.1953 7.49001 12.1953H3.48469C2.96117 12.1953 2.51506 12.5519 2.39975 13.0625L1.39623 17.5049C0.594636 17.7093 0 18.4372 0 19.3015V28.1999C0 29.0642 0.594636 29.7922 1.39623 29.9965L2.39975 34.4389C2.51506 34.9495 2.96124 35.3061 3.48469 35.3061H7.49001C8.01354 35.3061 8.45964 34.9495 8.57495 34.4389L9.57847 29.9965C10.3801 29.7922 10.9747 29.0642 10.9747 28.1999V25.1807H12.0541C12.2588 25.1807 12.4248 25.0147 12.4248 24.8099V22.6915C12.4248 22.4868 12.2588 22.3207 12.0541 22.3207ZM10.2332 28.1999C10.2332 28.8132 9.73419 29.3122 9.12087 29.3122H1.85383C1.24051 29.3122 0.741534 28.8132 0.741534 28.1999V19.3015C0.741534 18.6882 1.24051 18.1892 1.85383 18.1892H9.12087C9.73419 18.1892 10.2332 18.6882 10.2332 19.3015V28.1999ZM11.6833 24.4392H10.9747V23.0623H11.6833V24.4392Z" fill="#1C274C" fill-opacity="0.5"/>
<path d="M5.48745 27.4573C3.44305 27.4573 1.77979 25.7941 1.77979 23.7497C1.77979 21.7053 3.44305 20.042 5.48745 20.042C7.53186 20.042 9.19512 21.7053 9.19512 23.7497C9.19512 25.7941 7.53186 27.4573 5.48745 27.4573ZM5.48745 20.7835C3.85193 20.7835 2.52132 22.1141 2.52132 23.7497C2.52132 25.3852 3.85193 26.7158 5.48745 26.7158C7.12298 26.7158 8.45359 25.3852 8.45359 23.7497C8.45359 22.1141 7.12298 20.7835 5.48745 20.7835Z" fill="#1C274C" fill-opacity="0.5"/>
<path d="M7.384 23.4522L4.85121 21.5765C4.61096 21.3985 4.25977 21.5755 4.25977 21.8745V25.626C4.25977 25.924 4.60888 26.1034 4.85121 25.9239L7.384 24.0482C7.5811 23.9022 7.5811 23.5982 7.384 23.4522Z" fill="#1C274C" fill-opacity="0.5"/>
<path d="M28.8778 33.0814H18.069C17.8643 33.0814 17.6982 32.9153 17.6982 32.7106C17.6982 32.5059 17.8643 32.3398 18.069 32.3398H28.8778C29.0826 32.3398 29.2486 32.5059 29.2486 32.7106C29.2486 32.9153 29.0826 33.0814 28.8778 33.0814Z" fill="#1C274C" fill-opacity="0.5"/>
<path d="M34.3987 24.0144L32.0012 21.8179V20.4063C32.0012 19.793 31.5022 19.294 30.8889 19.294H28.0668V2.90103C28.0668 1.46995 26.9025 0.305664 25.4715 0.305664H9.52847C8.09739 0.305664 6.93311 1.46995 6.93311 2.90103V8.33937C6.93311 8.5441 7.09913 8.71013 7.30387 8.71013C7.50861 8.71013 7.67464 8.5441 7.67464 8.33937V2.90103C7.67464 1.87883 8.50627 1.0472 9.52847 1.0472H14.1249V2.58447H9.29141C9.08667 2.58447 8.92064 2.7505 8.92064 2.95524V11.1552C8.92064 11.3599 9.08667 11.526 9.29141 11.526C9.49614 11.526 9.66217 11.3599 9.66217 11.1552V3.32601H14.1536C14.2713 3.85731 14.7453 4.25611 15.3115 4.25611H19.3178C19.884 4.25611 20.3581 3.85724 20.4757 3.32601H25.3379V15.2155C25.3379 15.4202 25.5039 15.5862 25.7087 15.5862C25.9134 15.5862 26.0794 15.4202 26.0794 15.2155V2.95524C26.0794 2.7505 25.9134 2.58447 25.7087 2.58447H20.5044V1.0472H25.4715C26.4937 1.0472 27.3253 1.87883 27.3253 2.90103V19.294H23.1644V17.5295C23.1644 17.459 23.1563 17.3905 23.1419 17.3243L23.5566 15.8354C24.661 11.8696 21.6577 7.721 17.5 7.721C13.3422 7.721 10.3389 11.8695 11.4433 15.8354L11.858 17.3243C11.8436 17.3905 11.8355 17.459 11.8355 17.5295V19.5024C11.8355 20.0339 12.268 20.4664 12.7995 20.4664H13.589V20.5495C13.589 20.7543 13.755 20.9203 13.9597 20.9203H14.9459V26.3335C14.9459 26.5382 15.1119 26.7043 15.3167 26.7043C15.5214 26.7043 15.6874 26.5382 15.6874 26.3335V20.9203H15.7396C15.9443 20.9203 16.1103 20.7543 16.1103 20.5495V20.0355H18.8896V20.5495C18.8896 20.7543 19.0556 20.9203 19.2604 20.9203H21.0401C21.2449 20.9203 21.4109 20.7543 21.4109 20.5495V20.4664H22.2003C22.5348 20.4664 22.8299 20.295 23.0028 20.0355H30.8888C31.0932 20.0355 31.2596 20.2018 31.2596 20.4063V21.8265L28.9191 24.1558C28.5723 24.5009 28.3733 24.9792 28.3729 25.4684L28.3697 29.5782C28.3695 29.7632 28.3969 29.9434 28.4486 30.1153H15.3167C15.1571 30.1153 15.0154 30.2174 14.9649 30.3689L13.8071 33.8421C13.5707 34.5516 14.1145 35.3061 14.8623 35.3061H32.0845C32.8324 35.3061 33.3763 34.5516 33.1397 33.8421L32.3223 31.3898L33.1819 31.3717C34.1819 31.3506 34.996 30.5199 34.9968 29.5197L35 25.3827C35.0005 24.8638 34.7813 24.365 34.3987 24.0144ZM13.589 19.7249H12.7995C12.6769 19.7249 12.5771 19.6251 12.5771 19.5024V17.5295C12.5771 17.4068 12.6769 17.307 12.7995 17.307H13.589V19.7249ZM22.4229 19.5024C22.4229 19.6251 22.3231 19.7249 22.2004 19.7249H21.411V17.307H22.2004C22.3231 17.307 22.4229 17.4068 22.4229 17.5295V19.5024ZM22.8422 15.6365L22.5635 16.6371C22.4513 16.5912 22.3289 16.5655 22.2004 16.5655H21.411V16.4824C21.411 16.2776 21.2449 16.1116 21.0402 16.1116H19.2604C19.0556 16.1116 18.8896 16.2776 18.8896 16.4824V19.294H16.1103V16.4824C16.1103 16.2776 15.9443 16.1116 15.7396 16.1116H13.9598C13.7551 16.1116 13.589 16.2776 13.589 16.4824V16.5655H12.7996C12.6711 16.5655 12.5487 16.5912 12.4365 16.6371L12.1578 15.6365C11.1834 12.1381 13.828 8.46254 17.5 8.46254C21.1725 8.46254 23.8164 12.1384 22.8422 15.6365ZM32.4364 34.0765C32.4745 34.1909 32.456 34.3127 32.3854 34.4105C32.3149 34.5084 32.2053 34.5645 32.0846 34.5645H14.8624C14.6129 34.5645 14.4317 34.3133 14.5107 34.0765L15.5839 30.8569H28.8817C29.2406 31.2363 29.7347 31.4441 30.2626 31.4331L31.5463 31.4061L32.4364 34.0765ZM31.6245 26.1506C31.1747 26.1506 30.8088 25.7846 30.8088 25.3349C30.8088 24.8851 31.1747 24.5192 31.6245 24.5192C32.0742 24.5192 32.4402 24.8851 32.4402 25.3349C32.4402 25.7846 32.0742 26.1506 31.6245 26.1506Z" fill="#1BC469"/>
<path d="M32.4548 13.4295C32.25 13.4295 32.084 13.2635 32.084 13.0588V12.5661C32.084 12.3613 32.25 12.1953 32.4548 12.1953C32.6595 12.1953 32.8255 12.3613 32.8255 12.5661V13.0588C32.8255 13.2635 32.6595 13.4295 32.4548 13.4295Z" fill="#1C274C" fill-opacity="0.5"/>
<path d="M32.4548 15.8021C32.25 15.8021 32.084 15.6361 32.084 15.4314V15.0129C32.084 14.8081 32.25 14.6421 32.4548 14.6421C32.6595 14.6421 32.8255 14.8081 32.8255 15.0129V15.4314C32.8255 15.6361 32.6595 15.8021 32.4548 15.8021Z" fill="#1C274C" fill-opacity="0.5"/>
<path d="M33.8879 14.3704H33.4694C33.2647 14.3704 33.0986 14.2044 33.0986 13.9997C33.0986 13.7949 33.2647 13.6289 33.4694 13.6289H33.8879C34.0927 13.6289 34.2587 13.7949 34.2587 13.9997C34.2587 14.2044 34.0927 14.3704 33.8879 14.3704Z" fill="#1C274C" fill-opacity="0.5"/>
<path d="M31.4407 14.3704H31.0221C30.8174 14.3704 30.6514 14.2044 30.6514 13.9997C30.6514 13.7949 30.8174 13.6289 31.0221 13.6289H31.4407C31.6454 13.6289 31.8114 13.7949 31.8114 13.9997C31.8114 14.2044 31.6454 14.3704 31.4407 14.3704Z" fill="#1C274C" fill-opacity="0.5"/>
<path d="M2.54459 3.78987C2.33986 3.78987 2.17383 3.62384 2.17383 3.41911V2.92643C2.17383 2.72169 2.33986 2.55566 2.54459 2.55566C2.74933 2.55566 2.91536 2.72169 2.91536 2.92643V3.41911C2.91536 3.62384 2.74933 3.78987 2.54459 3.78987Z" fill="#1C274C" fill-opacity="0.5"/>
<path d="M2.54459 6.1625C2.33986 6.1625 2.17383 5.99647 2.17383 5.79173V5.37321C2.17383 5.16847 2.33986 5.00244 2.54459 5.00244C2.74933 5.00244 2.91536 5.16847 2.91536 5.37321V5.79173C2.91536 5.99647 2.74933 6.1625 2.54459 6.1625Z" fill="#1C274C" fill-opacity="0.5"/>
<path d="M3.97728 4.72933H3.55876C3.35402 4.72933 3.18799 4.5633 3.18799 4.35856C3.18799 4.15382 3.35402 3.98779 3.55876 3.98779H3.97728C4.18201 3.98779 4.34804 4.15382 4.34804 4.35856C4.34804 4.5633 4.18201 4.72933 3.97728 4.72933Z" fill="#1C274C" fill-opacity="0.5"/>
<path d="M1.5305 4.72933H1.11198C0.90724 4.72933 0.741211 4.5633 0.741211 4.35856C0.741211 4.15382 0.90724 3.98779 1.11198 3.98779H1.5305C1.73524 3.98779 1.90127 4.15382 1.90127 4.35856C1.90127 4.5633 1.73524 4.72933 1.5305 4.72933Z" fill="#1C274C" fill-opacity="0.5"/>
<path d="M7.30408 10.8182C7.56856 10.8182 7.78296 10.604 7.78296 10.3398C7.78296 10.0755 7.56856 9.86133 7.30408 9.86133C7.0396 9.86133 6.8252 10.0755 6.8252 10.3398C6.8252 10.604 7.0396 10.8182 7.30408 10.8182Z" fill="#1C274C"/>
<path d="M25.7084 17.5555C25.9729 17.5555 26.1873 17.3413 26.1873 17.0771C26.1873 16.8128 25.9729 16.5986 25.7084 16.5986C25.4439 16.5986 25.2295 16.8128 25.2295 17.0771C25.2295 17.3413 25.4439 17.5555 25.7084 17.5555Z" fill="#1C274C"/>
<path d="M15.3168 28.8509C15.5813 28.8509 15.7957 28.6367 15.7957 28.3725C15.7957 28.1082 15.5813 27.894 15.3168 27.894C15.0523 27.894 14.8379 28.1082 14.8379 28.3725C14.8379 28.6367 15.0523 28.8509 15.3168 28.8509Z" fill="#1C274C"/>
</svg>
