<svg width="31" height="31" viewBox="0 0 31 31" fill="none" xmlns="http://www.w3.org/2000/svg">
<path opacity="0.5" d="M30.0649 15.7964C30.0649 24.0807 23.3492 30.7964 15.0649 30.7964C6.78067 30.7964 0.0649414 24.0807 0.0649414 15.7964C0.0649414 7.51212 6.78067 0.796387 15.0649 0.796387C23.3492 0.796387 30.0649 7.51212 30.0649 15.7964Z" fill="#1C274C"/>
<path d="M22.2754 26.3132C20.2246 27.7219 17.7411 28.5464 15.065 28.5464C12.3889 28.5464 9.90528 27.7219 7.85444 26.3131C6.94866 25.6909 6.56158 24.5056 7.08822 23.5411C8.17996 21.5417 10.4295 20.2964 15.0649 20.2964C19.7004 20.2964 21.9499 21.5418 23.0417 23.5412C23.5683 24.5057 23.1812 25.691 22.2754 26.3132Z" fill="white"/>
<path d="M15.065 15.7964C17.5503 15.7964 19.565 13.7817 19.565 11.2964C19.565 8.81111 17.5503 6.79639 15.065 6.79639C12.5797 6.79639 10.565 8.81111 10.565 11.2964C10.565 13.7817 12.5797 15.7964 15.065 15.7964Z" fill="white"/>
</svg>
