<svg width="40" height="40" viewBox="0 0 40 40" fill="none" xmlns="http://www.w3.org/2000/svg">
<path opacity="0.5" d="M20 3.33337L20 8.33337M20 36.6667L20 31.6667M20 23.3334L20 16.6667" stroke="#1C274C" stroke-width="1.5" stroke-linecap="round"/>
<path d="M8.3335 12.5C8.3335 10.9423 8.3335 10.1635 8.66843 9.58337C8.88785 9.20333 9.20345 8.88773 9.5835 8.66831C10.1636 8.33337 10.9425 8.33337 12.5002 8.33337H27.5002C29.0579 8.33337 29.8367 8.33337 30.4168 8.66831C30.7969 8.88773 31.1125 9.20333 31.3319 9.58337C31.6668 10.1635 31.6668 10.9423 31.6668 12.5C31.6668 14.0577 31.6668 14.8366 31.3319 15.4167C31.1125 15.7968 30.7969 16.1123 30.4168 16.3318C29.8367 16.6667 29.0579 16.6667 27.5002 16.6667H12.5002C10.9425 16.6667 10.1636 16.6667 9.5835 16.3318C9.20345 16.1123 8.88785 15.7968 8.66843 15.4167C8.3335 14.8366 8.3335 14.0577 8.3335 12.5Z" stroke="#1C274C" stroke-width="1.5"/>
<path d="M11.6665 27.5C11.6665 25.9423 11.6665 25.1635 12.0014 24.5834C12.2209 24.2033 12.5365 23.8877 12.9165 23.6683C13.4966 23.3334 14.2755 23.3334 15.8332 23.3334H24.1665C25.7242 23.3334 26.503 23.3334 27.0832 23.6683C27.4632 23.8877 27.7788 24.2033 27.9982 24.5834C28.3332 25.1635 28.3332 25.9423 28.3332 27.5C28.3332 29.0577 28.3332 29.8366 27.9982 30.4167C27.7788 30.7968 27.4632 31.1124 27.0832 31.3318C26.503 31.6667 25.7242 31.6667 24.1665 31.6667H15.8332C14.2755 31.6667 13.4966 31.6667 12.9165 31.3318C12.5365 31.1124 12.2209 30.7968 12.0014 30.4167C11.6665 29.8366 11.6665 29.0577 11.6665 27.5Z" stroke="#1C274C" stroke-width="1.5"/>
</svg>
