<svg width="23" height="23" viewBox="0 0 23 23" fill="none" xmlns="http://www.w3.org/2000/svg">
<path d="M16.0822 21.1208V15.6208C16.0822 13.8923 16.0822 13.028 15.5452 12.4911C15.0083 11.9541 14.144 11.9541 12.4155 11.9541H10.5822C8.85371 11.9541 7.98947 11.9541 7.4525 12.4911C6.91553 13.028 6.91553 13.8923 6.91553 15.6208V21.1208" stroke="#1C274C" stroke-width="1.5"/>
<path opacity="0.5" d="M19.7489 21.1209V8.07856C19.7489 6.84945 19.7489 6.2349 19.4224 5.7638C19.0959 5.29271 18.5205 5.07692 17.3696 4.64535C15.119 3.80136 13.9937 3.37937 13.2046 3.9262C12.4155 4.47303 12.4155 5.67487 12.4155 8.07856V11.9542" stroke="#1C274C" stroke-width="1.5"/>
<path opacity="0.5" d="M3.41569 8.2876C3.41569 8.70181 3.75148 9.0376 4.16569 9.0376C4.5799 9.0376 4.91569 8.70181 4.91569 8.2876H3.41569ZM8.91569 8.2876C8.91569 8.70181 9.25148 9.0376 9.66569 9.0376C10.0799 9.0376 10.4157 8.70181 10.4157 8.2876H8.91569ZM9.3972 5.34775L8.86687 5.87808L8.86687 5.87808L9.3972 5.34775ZM6.16569 4.62093C6.16569 5.03514 6.50148 5.37093 6.91569 5.37093C7.3299 5.37093 7.66569 5.03514 7.66569 4.62093H6.16569ZM7.66569 2.7876C7.66569 2.37338 7.3299 2.0376 6.91569 2.0376C6.50148 2.0376 6.16569 2.37338 6.16569 2.7876H7.66569ZM3.99902 21.1209V11.9543H2.49902V21.1209H3.99902ZM6.91569 9.0376C7.80113 9.0376 8.38977 9.03919 8.82742 9.09803C9.2435 9.15397 9.40915 9.24899 9.51506 9.3549L10.5757 8.29424C10.1447 7.86318 9.6097 7.68971 9.02729 7.61141C8.46646 7.53601 7.75873 7.5376 6.91569 7.5376V9.0376ZM11.3324 11.9543C11.3324 11.1112 11.334 10.4035 11.2585 9.84266C11.1802 9.26026 11.0068 8.7253 10.5757 8.29424L9.51506 9.3549C9.62096 9.46081 9.71598 9.62646 9.77192 10.0425C9.83076 10.4802 9.83236 11.0688 9.83236 11.9543H11.3324ZM6.91569 7.5376C6.07265 7.5376 5.36492 7.53601 4.80409 7.61141C4.22168 7.68971 3.68673 7.86318 3.25566 8.29424L4.31632 9.3549C4.42223 9.24899 4.58789 9.15397 5.00396 9.09803C5.44161 9.03919 6.03025 9.0376 6.91569 9.0376V7.5376ZM3.99902 11.9543C3.99902 11.0688 4.00062 10.4802 4.05946 10.0425C4.1154 9.62646 4.21042 9.46081 4.31632 9.3549L3.25566 8.29424C2.8246 8.7253 2.65114 9.26026 2.57283 9.84266C2.49743 10.4035 2.49902 11.1112 2.49902 11.9543H3.99902ZM4.91569 8.2876V6.9126H3.41569V8.2876H4.91569ZM5.99902 5.82926H7.83236V4.32926H5.99902V5.82926ZM8.91569 6.9126V8.2876H10.4157V6.9126H8.91569ZM7.83236 5.82926C8.28568 5.82926 8.55022 5.83086 8.73825 5.85614C8.90471 5.87852 8.89521 5.90641 8.86687 5.87808L9.92754 4.81742C9.63072 4.5206 9.27091 4.41426 8.93813 4.36951C8.62691 4.32767 8.24328 4.32926 7.83236 4.32926V5.82926ZM10.4157 6.9126C10.4157 6.50168 10.4173 6.11804 10.3754 5.80683C10.3307 5.47404 10.2244 5.11424 9.92753 4.81742L8.86687 5.87808C8.83854 5.84975 8.86644 5.84025 8.88882 6.0067C8.9141 6.19473 8.91569 6.45927 8.91569 6.9126H10.4157ZM4.91569 6.9126C4.91569 6.45927 4.91728 6.19473 4.94256 6.0067C4.96494 5.84025 4.99284 5.84975 4.96451 5.87808L3.90385 4.81742C3.60703 5.11424 3.50068 5.47404 3.45594 5.80683C3.4141 6.11804 3.41569 6.50168 3.41569 6.9126H4.91569ZM5.99902 4.32926C5.58811 4.32926 5.20447 4.32767 4.89326 4.36951C4.56047 4.41426 4.20066 4.5206 3.90385 4.81742L4.96451 5.87808C4.93617 5.90641 4.92667 5.87852 5.09313 5.85614C5.28116 5.83086 5.5457 5.82926 5.99902 5.82926V4.32926ZM7.66569 4.62093V2.7876H6.16569V4.62093H7.66569Z" fill="#1C274C"/>
<path d="M20.6659 21.1206L2.33252 21.1206" stroke="#1C274C" stroke-width="1.5" stroke-linecap="round"/>
<path opacity="0.5" d="M9.66553 14.7041H13.3322" stroke="#1C274C" stroke-width="1.5" stroke-linecap="round"/>
<path opacity="0.5" d="M9.66553 17.4541H13.3322" stroke="#1C274C" stroke-width="1.5" stroke-linecap="round"/>
</svg>
