<svg width="25" height="25" viewBox="0 0 25 25" fill="none" xmlns="http://www.w3.org/2000/svg">
<path d="M18.9203 7.94108C18.9203 11.5862 15.9653 14.5411 12.3202 14.5411C8.67514 14.5411 5.72021 11.5862 5.72021 7.94108C5.72021 4.29599 8.67514 1.34106 12.3202 1.34106C15.9653 1.34106 18.9203 4.29599 18.9203 7.94108Z" stroke="#1C274C" stroke-width="1.5"/>
<path d="M6.27033 10.349C3.42369 11.0817 1.32031 13.6657 1.32031 16.7411C1.32031 20.3862 4.27524 23.3411 7.92033 23.3411C11.5654 23.3411 14.5204 20.3862 14.5204 16.7411C14.5204 15.9109 14.3671 15.1166 14.0873 14.3847" stroke="#1C274C" stroke-width="1.5"/>
<path opacity="0.5" d="M12.3203 21.6605C13.488 22.7056 15.0299 23.3411 16.7203 23.3411C20.3654 23.3411 23.3203 20.3862 23.3203 16.7411C23.3203 13.6657 21.217 11.0817 18.3703 10.349" stroke="#1C274C" stroke-width="1.5"/>
</svg>
