<svg width="23" height="23" viewBox="0 0 23 23" fill="none" xmlns="http://www.w3.org/2000/svg">
<path opacity="0.5" d="M11.019 20.4588V18.6255" stroke="#1C274C" stroke-width="1.5" stroke-linecap="round"/>
<path d="M3.68555 15.4743C5.41656 17.4083 7.93212 18.6255 10.732 18.6255C15.953 18.6255 20.1855 14.393 20.1855 9.1719C20.1855 6.37206 18.9684 3.85651 17.0344 2.12549" stroke="#1C274C" stroke-width="1.5" stroke-linecap="round"/>
<path opacity="0.5" d="M6.43587 4.46523C6.97229 4.97181 8.07731 6.35644 8.20605 7.84239C8.32639 9.23135 9.21042 10.36 10.5609 10.3753C11.0799 10.3811 11.6047 9.99233 11.6034 9.4541C11.603 9.28766 11.5765 9.11749 11.535 8.96094C11.4774 8.74318 11.4723 8.49267 11.5921 8.23639C12.0114 7.33988 12.8361 7.09906 13.4895 6.61218C13.7793 6.39624 14.0437 6.16844 14.1603 5.98495C14.4821 5.47838 14.804 4.46523 14.6431 3.95866M12.2026 15.8753C12.0013 15.496 11.7195 14.5098 12.2026 13.5995C12.8064 12.4615 14.8192 12.4615 14.8192 12.4615C16.3698 12.4454 16.9288 11.7452 17.1915 11.1211M17.4359 9.45866C17.4359 13.0025 14.563 15.8753 11.0192 15.8753C7.47538 15.8753 4.60254 13.0025 4.60254 9.45866C4.60254 5.91483 7.47538 3.04199 11.0192 3.04199C14.563 3.04199 17.4359 5.91483 17.4359 9.45866Z" stroke="#1C274C" stroke-width="1.5"/>
<path d="M9.18555 20.4585H12.8522" stroke="#1C274C" stroke-width="1.5" stroke-linecap="round"/>
</svg>
