<svg width="51" height="51" viewBox="0 0 51 51" fill="none" xmlns="http://www.w3.org/2000/svg">
<path opacity="0.5" d="M50.5304 36.6712C50.7392 34.1089 50.7672 30.9862 50.7709 27.3123C50.7719 26.349 49.9906 25.5676 49.0273 25.5676C48.064 25.5676 47.2835 26.3491 47.2825 27.3123C47.2788 31.0063 47.2516 33.9578 47.0536 36.3879C46.8434 38.9669 46.45 40.7952 45.7875 42.1866L39.2049 36.2623C36.7874 34.0865 33.1871 33.8699 30.5261 35.74L29.8326 36.2274C27.9834 37.527 25.4676 37.3091 23.8694 35.7108L13.8933 25.7347C11.9021 23.7435 8.70811 23.6372 6.58888 25.4915L4.26065 27.5287C4.25986 26.8962 4.25986 26.243 4.25986 25.5676C4.25986 20.0369 4.26356 16.0643 4.67002 13.0411C5.06974 10.068 5.82995 8.27566 7.15473 6.95088C8.47952 5.62609 10.2719 4.86588 13.2449 4.46616C15.9403 4.10379 19.3902 4.06154 24.0262 4.05664C24.9895 4.05562 25.7715 3.2751 25.7715 2.31181C25.7715 1.34852 24.9898 0.567209 24.0266 0.568217C19.4551 0.573001 15.6993 0.616427 12.7801 1.0089C9.42025 1.46062 6.76904 2.40327 4.68808 4.48422C2.60713 6.56518 1.66448 9.21639 1.21276 12.5762C0.771434 15.8588 0.771456 20.0658 0.771485 25.4342V25.57C0.771485 26.7969 0.771485 27.9599 0.776298 29.0594C0.795211 33.3823 0.886252 36.8636 1.38393 39.6617C1.89055 42.51 2.84325 44.8062 4.68808 46.651C6.76904 48.732 9.42025 49.6746 12.7801 50.1264C16.0626 50.5677 20.2696 50.5677 25.638 50.5676H25.9049C31.2732 50.5677 35.4804 50.5677 38.7629 50.1264C42.1227 49.6746 44.7739 48.732 46.8549 46.651C47.5882 45.9178 48.1904 45.1027 48.6805 44.1926C49.7917 42.1291 50.2882 39.6445 50.5304 36.6712Z" fill="#1C274C"/>
<path fill-rule="evenodd" clip-rule="evenodd" d="M39.5215 23.0676C34.2182 23.0676 31.5665 23.0676 29.919 21.4201C28.2715 19.7726 28.2715 17.1209 28.2715 11.8176C28.2715 6.51433 28.2715 3.86268 29.919 2.21515C31.5665 0.567627 34.2182 0.567627 39.5215 0.567627C44.8248 0.567627 47.4764 0.567627 49.124 2.21515C50.7715 3.86268 50.7715 6.51433 50.7715 11.8176C50.7715 17.1209 50.7715 19.7726 49.124 21.4201C47.4764 23.0676 44.8248 23.0676 39.5215 23.0676ZM35.8846 16.1076C33.9727 14.4312 32.0215 12.1974 32.0215 10.0627C32.0215 5.62987 36.1466 3.97488 39.5215 7.39918C42.8964 3.97488 47.0215 5.62987 47.0215 10.0627C47.0215 12.1975 45.0703 14.4312 43.1584 16.1076C41.6681 17.4143 40.9229 18.0676 39.5215 18.0676C38.1201 18.0676 37.3749 17.4143 35.8846 16.1076Z" fill="#1C274C"/>
</svg>
