<svg width="50" height="51" viewBox="0 0 50 51" fill="none" xmlns="http://www.w3.org/2000/svg">
<path d="M19.435 1.42696C21.226 1.0198 23.0885 0.805176 24.999 0.805176C38.8061 0.805176 49.999 11.9981 49.999 25.8052C49.999 39.6123 38.8061 50.8052 24.999 50.8052C23.0885 50.8052 21.226 50.5906 19.435 50.1834C18.4957 49.9698 17.9074 49.0353 18.1209 48.0959C18.3345 47.1566 19.2691 46.5683 20.2084 46.7818C21.7473 47.1317 23.3505 47.3168 24.999 47.3168C36.8795 47.3168 46.5106 37.6857 46.5106 25.8052C46.5106 13.9246 36.8795 4.29355 24.999 4.29355C23.3505 4.29355 21.7473 4.47866 20.2084 4.82853C19.2691 5.04208 18.3345 4.45373 18.1209 3.51441C17.9074 2.57509 18.4957 1.64051 19.435 1.42696Z" fill="#1C274C"/>
<g opacity="0.5">
<path d="M14.1025 5.18128C14.6158 5.99643 14.3711 7.07333 13.5559 7.5866C10.8229 9.30743 8.50372 11.6266 6.78289 14.3596C6.26962 15.1748 5.19272 15.4195 4.37756 14.9063C3.56241 14.393 3.31768 13.3161 3.83094 12.5009C5.82983 9.32634 8.52263 6.63354 11.6972 4.63465C12.5124 4.12139 13.5893 4.36612 14.1025 5.18128Z" fill="#1C274C"/>
<path d="M4.37757 36.7029C5.19272 36.1896 6.26962 36.4344 6.78289 37.2495C8.50372 39.9825 10.8229 42.3017 13.5559 44.0226C14.3711 44.5358 14.6158 45.6127 14.1025 46.4279C13.5893 47.243 12.5124 47.4878 11.6972 46.9745C8.52263 44.9756 5.82983 42.2828 3.83094 39.1082C3.31768 38.2931 3.56241 37.2162 4.37757 36.7029Z" fill="#1C274C"/>
</g>
<path opacity="0.3" d="M4.02335 21.0138C4.2369 20.0745 3.64855 19.1399 2.70924 18.9263C1.76992 18.7128 0.835332 19.3012 0.621782 20.2405C0.214623 22.0314 0 23.8939 0 25.8044C0 27.7149 0.214623 29.5774 0.621782 31.3683C0.835332 32.3076 1.76992 32.896 2.70924 32.6824C3.64855 32.4689 4.2369 31.5343 4.02335 30.595C3.67349 29.0561 3.48837 27.4529 3.48837 25.8044C3.48837 24.1559 3.67349 22.5527 4.02335 21.0138Z" fill="#1C274C"/>
<path d="M32.939 23.3425C34.757 24.4159 34.757 27.1946 32.939 28.268L21.9618 34.749C20.1949 35.7922 18.0234 34.4344 18.0234 32.2863L18.0234 19.3242C18.0234 17.1761 20.1949 15.8183 21.9618 16.8615L32.939 23.3425Z" fill="#1C274C"/>
</svg>
