<svg width="51" height="51" viewBox="0 0 51 51" fill="none" xmlns="http://www.w3.org/2000/svg">
<path opacity="0.5" d="M44.7593 18.4064C21.149 -39.9177 65.6524 70.0218 44.7593 18.4064V18.4064ZM0.971521 28.1061C0.933799 25.1031 2.19915 22.4027 5.15143 21.3405C5.2609 21.1918 5.36841 21.0766 5.55973 20.9325C5.90075 20.6751 6.21046 20.5989 6.61148 20.4613C20.7658 15.7787 26.1978 8.48217 29.2873 4.33242C30.1892 3.12104 30.9087 2.15475 31.651 1.4883C32.0627 1.11857 32.3865 0.880904 32.8731 0.716564C33.3762 0.546652 33.8443 0.531206 34.4963 0.625449C35.928 0.83212 37.3964 1.69097 38.8317 3.02817C42.01 5.98911 45.3614 11.6009 47.7249 17.4395C50.0999 23.3067 51.5055 29.4857 50.7788 33.5541C50.4793 35.2321 49.8188 36.609 48.7254 37.5582L48.7238 37.5567C48.6592 37.6124 48.5895 37.6631 48.5154 37.7082C47.7643 38.1672 47.0559 38.3456 46.3227 38.3707C45.689 38.3926 45.1341 38.2957 44.5175 38.1805C43.4072 37.973 42.3445 37.7005 41.1988 37.4068C37.4687 36.4505 32.8153 35.2582 25.4214 36.0383C25.2742 36.4788 25.166 36.9494 25.1614 37.3694C25.1585 37.6487 25.1899 37.8703 25.2803 37.9448L25.4054 38.0472C26.0973 38.6133 26.4382 38.8915 26.6426 39.5783C26.8019 40.1154 26.7353 40.5781 26.6042 41.489L26.5603 41.7956C26.4865 42.3181 26.7849 42.4328 27.0829 42.547C27.9563 42.8819 28.8296 43.2167 29.3032 44.3539C29.4331 44.6176 29.4702 44.9107 29.4095 45.1939C29.0301 46.9467 27.8798 47.8361 26.7301 48.7252C26.5041 48.8999 26.2777 49.0751 26.0756 49.2472L26.0729 49.2446C26.0403 49.2724 26.0063 49.2993 25.9705 49.325C23.229 51.2965 21.3224 50.7091 19.8475 49.0502C18.9072 47.9928 18.3117 46.5161 17.7558 45.1379L17.5271 44.5797C16.7336 42.6481 16.1382 40.3386 15.5365 37.9347L15.3849 37.9767C14.7763 38.1389 14.1698 38.3073 13.5654 38.4819C13.5058 38.499 13.4748 38.5102 13.4496 38.5192C12.9089 38.7126 12.6376 38.8092 12.2019 38.6688C8.60072 39.5004 5.60648 37.9225 3.59507 35.3912C2.774 34.358 2.12436 33.1588 1.67747 31.9094C1.23318 30.6666 0.987284 29.3605 0.971521 28.1061Z" fill="#1C274C"/>
<path fill-rule="evenodd" clip-rule="evenodd" d="M6.20224 22.5132C-1.24748 24.4842 3.63261 39.8306 12.359 37.1455C12.695 37.3343 12.6903 37.2454 13.083 37.1316C14.2828 36.7826 15.4914 36.4589 16.7079 36.1605C17.4303 39.0251 18.0858 41.8422 19.0096 44.0906C20.188 46.9587 21.4154 50.7882 24.9879 48.2191C26.1147 47.2594 27.5136 46.5198 27.8583 44.9272C27.2848 43.3798 24.6187 44.2922 24.9969 41.6176C25.2588 39.7654 25.3165 39.8977 24.2173 38.9949C23.1044 38.0807 23.6841 36.0025 24.2641 34.7404C28.1444 34.2574 31.3175 34.2864 34.0087 34.5591C30.6001 31.0919 28.1867 27.4215 26.6949 23.5938C25.1978 19.7522 24.6334 15.7693 24.9263 11.6895C21.2171 15.1865 15.7379 18.9551 7.15484 21.7948C6.4564 22.026 6.60043 21.9419 6.20224 22.5132Z" fill="#1C274C"/>
<path fill-rule="evenodd" clip-rule="evenodd" d="M36.4065 34.8069C38.0038 35.1476 40.2007 35.7124 42.0854 36.1711C38.2288 32.6964 35.0792 27.358 32.9496 21.8928C30.6765 16.0592 29.5588 9.99352 29.9718 5.82129C28.9527 7.13043 27.8139 8.60352 26.701 9.90182C25.4703 18.856 28.4243 27.3248 36.4065 34.8069Z" fill="#1C274C"/>
<path fill-rule="evenodd" clip-rule="evenodd" d="M16.6929 36.1491C17.2935 38.5504 18.2285 42.188 19.0101 44.0905C20.1884 46.9586 21.4159 50.788 24.9883 48.2189C26.1152 47.2593 27.514 46.5197 27.8588 44.9271C27.2853 43.3797 24.6192 44.2921 24.9974 41.6175C25.2592 39.7653 25.317 39.8976 24.2178 38.9948C23.1462 38.1146 23.6438 36.1555 24.2 34.8845C25.6546 34.2426 29.6045 34.18 33.9536 34.5698C31.2203 31.7882 29.1543 29.1896 27.3085 25.1367C23.1472 28.4197 20.8543 32.8662 16.6929 36.1491Z" fill="#1C274C"/>
</svg>
