<svg width="34" height="34" viewBox="0 0 34 34" fill="none" xmlns="http://www.w3.org/2000/svg">
<path opacity="0.5" d="M24.253 25.727C26.9651 25.6983 28.4767 25.5283 29.4803 24.5247C30.6885 23.3165 30.6885 21.372 30.6885 17.4829V11.9829C30.6885 8.09382 30.6885 6.14928 29.4803 4.94109C28.2721 3.73291 26.3276 3.73291 22.4385 3.73291L11.4385 3.73291C7.54939 3.73291 5.60485 3.73291 4.39666 4.94109C3.18848 6.14928 3.18848 8.09382 3.18848 11.9829L3.18848 17.4829C3.18848 21.372 3.18848 23.3165 4.39666 24.5247C5.45319 25.5813 7.07282 25.7139 10.0635 25.7305" stroke="#1C274D"/>
<path opacity="0.5" d="M12.8135 9.23291L21.0635 9.23291" stroke="#1C274D" stroke-linecap="round"/>
<path opacity="0.5" d="M10.0635 14.0454H23.8135" stroke="#1C274D" stroke-linecap="round"/>
<circle cx="16.9385" cy="22.9829" r="4.125" stroke="#1BC469"/>
<path d="M16.9385 27.4651L13.827 30.4481C13.3814 30.8753 13.1586 31.0889 12.97 31.1628C12.54 31.3312 12.0631 31.1871 11.8369 30.8203C11.7377 30.6594 11.7067 30.3691 11.6449 29.7886C11.6099 29.4608 11.5925 29.2969 11.5395 29.1596C11.4208 28.8523 11.1714 28.6132 10.8509 28.4995C10.7077 28.4486 10.5367 28.4319 10.1948 28.3984C9.58927 28.3391 9.28648 28.3095 9.11862 28.2143C8.73609 27.9975 8.58574 27.5402 8.76143 27.128C8.83853 26.9471 9.06133 26.7335 9.50692 26.3064L11.5395 24.3577L12.97 22.9272" stroke="#1BC469"/>
<path d="M16.9385 27.4654L20.0499 30.4483C20.4955 30.8755 20.7183 31.0891 20.907 31.163C21.337 31.3315 21.8139 31.1873 22.04 30.8206C22.1393 30.6597 22.1702 30.3694 22.2321 29.7888C22.267 29.461 22.2845 29.2971 22.3375 29.1599C22.4562 28.8525 22.7055 28.6135 23.0261 28.4997C23.1693 28.4489 23.3402 28.4322 23.6821 28.3987C24.2877 28.3394 24.5905 28.3097 24.7583 28.2146C25.1409 27.9977 25.2912 27.5405 25.1155 27.1283C25.0384 26.9474 24.8156 26.7338 24.37 26.3066L22.3375 24.358L21.0635 23.084" stroke="#1BC469"/>
</svg>
