<svg width="34" height="34" viewBox="0 0 34 34" fill="none" xmlns="http://www.w3.org/2000/svg">
<path opacity="0.5" d="M10.0635 25.7305C7.07282 25.7139 5.45319 25.5812 4.39666 24.5247C3.18848 23.3165 3.18848 21.372 3.18848 17.4829L3.18848 11.9829C3.18848 8.09382 3.18848 6.14928 4.39666 4.94109C5.60485 3.73291 7.54939 3.73291 11.4385 3.73291L22.4385 3.73291C26.3276 3.73291 28.2721 3.73291 29.4803 4.94109C30.6885 6.14928 30.6885 8.09382 30.6885 11.9829V17.4829C30.6885 21.372 30.6885 23.3165 29.4803 24.5247C28.4767 25.5283 26.9651 25.6982 24.253 25.727L23.126 25.7305" stroke="#1C274D"/>
<path opacity="0.5" d="M12.8135 9.23291L21.0635 9.23291" stroke="#1C274D" stroke-linecap="round"/>
<path opacity="0.5" d="M10.0635 14.0454H23.8135" stroke="#1C274D" stroke-linecap="round"/>
<path d="M15.4133 20.158C16.2923 19.4089 17.585 19.4089 18.464 20.158C18.8407 20.479 19.309 20.6729 19.8023 20.7123C20.9534 20.8042 21.8676 21.7183 21.9594 22.8695C21.9988 23.3628 22.1928 23.8311 22.5138 24.2077C23.2628 25.0867 23.2628 26.3795 22.5138 27.2584C22.1928 27.6351 21.9988 28.1034 21.9594 28.5967C21.8676 29.7479 20.9534 30.662 19.8023 30.7539C19.309 30.7932 18.8407 30.9872 18.464 31.3082C17.585 32.0572 16.2923 32.0572 15.4133 31.3082C15.0367 30.9872 14.5683 30.7932 14.075 30.7539C12.9239 30.662 12.0097 29.7479 11.9179 28.5967C11.8785 28.1034 11.6845 27.6351 11.3635 27.2584C10.6145 26.3795 10.6145 25.0867 11.3635 24.2077C11.6845 23.8311 11.8785 23.3628 11.9179 22.8695C12.0097 21.7183 12.9239 20.8042 14.075 20.7123C14.5683 20.6729 15.0367 20.479 15.4133 20.158Z" stroke="#1BC469"/>
<path d="M14.876 26.0079L16.0545 27.1079L19.001 24.3579" stroke="#1BC469" stroke-linecap="round" stroke-linejoin="round"/>
</svg>
