<svg width="23" height="23" viewBox="0 0 23 23" fill="none" xmlns="http://www.w3.org/2000/svg">
<path d="M1.50327 2.56968C0.199429 3.87353 0.199429 5.98748 1.50327 7.29132L3.34173 9.12977C3.35553 9.11381 3.98395 9.71217 3.99911 9.69702L8.63074 5.06539C8.64585 5.05027 8.04744 4.42189 8.06336 4.40812L6.22491 2.56968C4.92107 1.26584 2.80712 1.26584 1.50327 2.56968Z" fill="white"/>
<path d="M2.99524 15.8423C3.1816 15.368 3.85032 15.368 4.03668 15.8423L4.21838 16.3047C4.27528 16.4495 4.38947 16.5641 4.53373 16.6212L4.99443 16.8036C5.46695 16.9906 5.46695 17.6618 4.99443 17.8489L4.53373 18.0312C4.38947 18.0883 4.27528 18.2029 4.21838 18.3477L4.03668 18.8101C3.85032 19.2844 3.1816 19.2844 2.99524 18.8101L2.81354 18.3477C2.75665 18.2029 2.64246 18.0883 2.49819 18.0312L2.03749 17.8489C1.56498 17.6618 1.56498 16.9906 2.03749 16.8036L2.49819 16.6212C2.64246 16.5641 2.75665 16.4495 2.81354 16.3047L2.99524 15.8423Z" fill="white"/>
<path d="M20.1715 8.68895C20.3579 8.21469 21.0266 8.21469 21.213 8.68895L21.3946 9.15135C21.4515 9.29615 21.5657 9.41077 21.71 9.46787L22.1707 9.65024C22.6432 9.83729 22.6432 10.5085 22.1707 10.6955L21.71 10.8779C21.5657 10.935 21.4515 11.0496 21.3946 11.1944L21.213 11.6568C21.0266 12.1311 20.3579 12.1311 20.1715 11.6568L19.9898 11.1944C19.9329 11.0496 19.8187 10.935 19.6745 10.8779L19.2138 10.6955C18.7412 10.5085 18.7412 9.83729 19.2138 9.65024L19.6745 9.46787C19.8187 9.41077 19.9329 9.29615 19.9898 9.15135L20.1715 8.68895Z" fill="white"/>
<path opacity="0.7" d="M15.6939 0.789534C15.8802 0.315273 16.5489 0.315272 16.7353 0.789534L17.2336 2.05777C17.2905 2.20257 17.4047 2.31718 17.549 2.37429L18.8125 2.87448C19.2851 3.06152 19.2851 3.73272 18.8126 3.91977L17.549 4.41995C17.4047 4.47706 17.2905 4.59167 17.2336 4.73647L16.7353 6.00471C16.5489 6.47897 15.8802 6.47897 15.6939 6.00471L15.1955 4.73647C15.1386 4.59168 15.0244 4.47706 14.8802 4.41995L13.6166 3.91977C13.1441 3.73272 13.1441 3.06152 13.6166 2.87448L14.8802 2.37429C15.0244 2.31718 15.1386 2.20257 15.1955 2.05777L15.6939 0.789534Z" fill="white"/>
<path d="M9.28797 5.63287C9.27421 5.64878 8.64556 5.05011 8.63045 5.06522L3.99882 9.69685C3.98366 9.71201 4.58228 10.3407 4.56632 10.3545L15.6679 21.4561C16.9717 22.7599 19.0857 22.7599 20.3895 21.4561C21.6934 20.1522 21.6934 18.0383 20.3895 16.7344L9.28797 5.63287Z" fill="#1C274C"/>
</svg>
