<svg width="17" height="17" viewBox="0 0 17 17" fill="none" xmlns="http://www.w3.org/2000/svg">
<path opacity="0.5" d="M1.47095 1.68262C0.522704 2.63087 0.522704 4.16828 1.47095 5.11653L2.808 6.45358C2.81804 6.44197 3.27507 6.87714 3.2861 6.86612L6.65454 3.49767C6.66554 3.48668 6.23033 3.02968 6.2419 3.01967L4.90486 1.68262C3.95661 0.734374 2.4192 0.734374 1.47095 1.68262Z" fill="#1C274C"/>
<path d="M2.55584 11.3356C2.69137 10.9907 3.17772 10.9907 3.31325 11.3356L3.44539 11.6719C3.48677 11.7772 3.56982 11.8605 3.67474 11.9021L4.00979 12.0347C4.35344 12.1707 4.35344 12.6589 4.00979 12.7949L3.67474 12.9276C3.56982 12.9691 3.48677 13.0524 3.44539 13.1577L3.31325 13.494C3.17772 13.839 2.69137 13.839 2.55584 13.494L2.4237 13.1577C2.38232 13.0524 2.29927 12.9691 2.19435 12.9276L1.8593 12.7949C1.51565 12.6589 1.51565 12.1707 1.8593 12.0347L2.19435 11.9021C2.29927 11.8605 2.38232 11.7772 2.4237 11.6719L2.55584 11.3356Z" fill="#1C274C"/>
<path d="M15.048 6.1332C15.1836 5.78828 15.6699 5.78828 15.8054 6.1332L15.9376 6.46949C15.979 6.5748 16.062 6.65816 16.1669 6.69969L16.502 6.83232C16.8456 6.96835 16.8456 7.45649 16.502 7.59253L16.1669 7.72516C16.062 7.76669 15.979 7.85005 15.9376 7.95535L15.8054 8.29165C15.6699 8.63656 15.1836 8.63656 15.048 8.29165L14.9159 7.95535C14.8745 7.85005 14.7915 7.76669 14.6865 7.72516L14.3515 7.59253C14.0078 7.45649 14.0078 6.96835 14.3515 6.83232L14.6865 6.69969C14.7915 6.65816 14.8745 6.5748 14.9159 6.46949L15.048 6.1332Z" fill="#1C274C"/>
<path opacity="0.7" d="M11.7914 0.388082C11.9269 0.0431656 12.4133 0.0431653 12.5488 0.388082L12.9112 1.31043C12.9526 1.41574 13.0357 1.4991 13.1406 1.54063L14.0595 1.9044C14.4032 2.04043 14.4032 2.52857 14.0595 2.66461L13.1406 3.02838C13.0357 3.06991 12.9526 3.15326 12.9112 3.25857L12.5488 4.18092C12.4133 4.52584 11.9269 4.52584 11.7914 4.18092L11.429 3.25857C11.3876 3.15326 11.3046 3.06991 11.1996 3.02838L10.2807 2.66461C9.93704 2.52857 9.93704 2.04043 10.2807 1.9044L11.1996 1.54063C11.3046 1.4991 11.3876 1.41574 11.429 1.31043L11.7914 0.388082Z" fill="#1C274C"/>
<path d="M7.13249 3.91035C7.12248 3.92192 6.66529 3.48653 6.6543 3.49752L3.28585 6.86596C3.27483 6.87699 3.71019 7.33421 3.69858 7.34425L11.7724 15.4181C12.7207 16.3663 14.2581 16.3663 15.2063 15.4181C16.1546 14.4698 16.1546 12.9324 15.2063 11.9842L7.13249 3.91035Z" fill="#1C274C"/>
</svg>
