<svg width="35" height="36" viewBox="0 0 35 36" fill="none" xmlns="http://www.w3.org/2000/svg">
<path d="M27.875 29.939L21.9329 33.4985L21.4766 35.3062L29.6674 30.399L27.875 29.939Z" fill="#EBECED"/>
<path d="M33.5327 14.9405L9.19531 8.6958C9.68905 9.74636 10.6212 10.5202 11.738 10.8063L30.5495 15.6331C31.317 15.8302 31.7806 16.617 31.5858 17.3908L28.3848 30.07L29.6677 30.3989L33.5687 14.9492L33.5327 14.9405Z" fill="#EBECED"/>
<path d="M32.8771 28.1627C32.7405 28.1627 32.6284 28.0526 32.6255 27.9149C32.6227 27.7751 32.7326 27.6592 32.8713 27.6556L34.7421 27.6143H34.7478C34.8844 27.6143 34.9965 27.7244 34.9993 27.862C35.0022 28.0019 34.8923 28.1178 34.7536 28.1214L32.8828 28.1627C32.8807 28.1627 32.8785 28.1627 32.8771 28.1627Z" fill="#1BC469"/>
<path d="M31.5383 34.79C31.465 34.79 31.3917 34.7574 31.3421 34.6951L30.1699 33.2243C30.0829 33.1149 30.1002 32.9555 30.2087 32.8679C30.3172 32.7802 30.4753 32.7976 30.5623 32.907L31.7345 34.3778C31.8214 34.4872 31.8042 34.6466 31.6957 34.7342C31.649 34.7719 31.5936 34.79 31.5383 34.79Z" fill="#1BC469"/>
<path d="M0.425238 8.35359C0.310249 8.35359 0.206041 8.27316 0.180168 8.15507C0.149983 8.01813 0.234788 7.88265 0.370618 7.85222L2.19679 7.43996C2.3319 7.40881 2.46701 7.49503 2.4972 7.63196C2.52738 7.76889 2.44258 7.90438 2.30674 7.93481L0.480577 8.34706C0.461891 8.35214 0.443924 8.35359 0.425238 8.35359Z" fill="#1BC469"/>
<path d="M3.70508 2.38748C3.6483 2.38748 3.59081 2.36792 3.54409 2.32879L2.10673 1.11956C2.00037 1.02972 1.98599 0.869604 2.07511 0.762375C2.16422 0.655145 2.32305 0.640655 2.42942 0.729771L3.86606 1.939C3.97243 2.02884 3.9868 2.18896 3.89768 2.29619C3.84809 2.35633 3.77694 2.38748 3.70508 2.38748Z" fill="#1BC469"/>
<path d="M34.7047 8.96451C34.4186 8.47981 33.963 8.13638 33.4204 7.99727L28.8388 6.82137L29.2032 5.37957C29.3627 4.74851 28.9825 4.10441 28.3573 3.94429C27.7313 3.78417 27.0924 4.16672 26.9336 4.79705L26.5692 6.23885L15.7933 3.47407L16.1577 2.03227C16.3172 1.40121 15.937 0.757109 15.3118 0.596989C14.6858 0.43687 14.0469 0.819418 13.8881 1.44975L13.5237 2.89156L8.94213 1.71565C8.40024 1.57655 7.8368 1.65842 7.35528 1.94678C6.87448 2.23514 6.53311 2.69448 6.39512 3.2415L0.0506062 28.3701C-0.171466 29.2504 0.358202 30.1489 1.23068 30.3727L19.7568 35.1263C19.8912 35.1611 20.0285 35.0792 20.063 34.943C20.0975 34.8075 20.0156 34.6692 19.8812 34.6351L1.35501 29.8808C0.750601 29.7257 0.384074 29.1041 0.537872 28.4948L6.88239 3.36612C6.98731 2.95097 7.24604 2.60175 7.61185 2.38294C7.97766 2.16413 8.40527 2.10182 8.81708 2.20761L13.3987 3.38351L12.7856 5.81211C12.6261 6.44317 13.0063 7.08727 13.6315 7.24739C13.7278 7.27202 13.8248 7.28434 13.9204 7.28434C14.4429 7.28434 14.9208 6.9286 15.0559 6.39463L15.669 3.96602L26.4456 6.73153L25.8326 9.16013C25.673 9.79119 26.0532 10.4353 26.6785 10.5954C26.7748 10.62 26.8725 10.6324 26.9695 10.6324C27.1772 10.6324 27.382 10.5759 27.566 10.4664C27.8348 10.3056 28.0253 10.0484 28.1029 9.74265L28.7159 7.31405L33.2975 8.48995C33.7093 8.59573 34.0557 8.85656 34.2728 9.22534C34.4898 9.59412 34.5516 10.0252 34.4467 10.4404L33.3859 14.6419L9.25691 8.4501C9.12252 8.41532 8.98525 8.49792 8.95075 8.6334C8.91625 8.76889 8.99818 8.90727 9.13258 8.94133L33.2616 15.1331L29.4849 30.0916L24.1207 28.715C23.8095 28.6353 23.4861 28.6824 23.2101 28.8476C22.9341 29.0128 22.7386 29.2765 22.6596 29.5902L21.2323 35.2437C21.2071 35.343 21.2438 35.448 21.3257 35.5096C21.3703 35.5429 21.4235 35.5603 21.4766 35.5603C21.5212 35.5603 21.565 35.5487 21.6053 35.5248L29.7961 30.6183C29.8536 30.5836 29.8931 30.5285 29.9104 30.4655C29.9104 30.4647 29.9111 30.464 29.9118 30.4626L34.9354 10.5657C35.0719 10.018 34.9907 9.44994 34.7047 8.96451ZM15.6697 1.90693L14.5687 6.26856C14.4774 6.62865 14.113 6.846 13.7566 6.75544C13.3994 6.66415 13.1831 6.29682 13.2736 5.93673L14.3746 1.5751C14.4515 1.2708 14.7239 1.06793 15.0222 1.06793C15.0768 1.06793 15.1321 1.07445 15.1867 1.08894C15.5439 1.17951 15.7603 1.54684 15.6697 1.90693ZM28.7159 5.25423L27.6149 9.61586C27.5711 9.79047 27.4618 9.93682 27.3087 10.0288C27.1557 10.1209 26.9753 10.1469 26.8028 10.1027C26.4456 10.0114 26.2293 9.64411 26.3198 9.28403L27.4208 4.92239C27.4977 4.61809 27.7701 4.4145 28.0684 4.4145C28.123 4.4145 28.1783 4.42102 28.233 4.43551C28.5901 4.52753 28.8072 4.89486 28.7159 5.25423ZM21.8698 34.7749L23.1476 29.7141C23.1936 29.5316 23.3071 29.3787 23.4681 29.2823C23.5773 29.2171 23.6995 29.1831 23.8239 29.1831C23.8813 29.1831 23.9403 29.1903 23.9978 29.2048L29.017 30.493L21.8698 34.7749Z" fill="#2A3853"/>
<path d="M20.9303 24.4527L14.9386 22.5059M14.9386 22.5059L8.94698 20.5591M14.9386 22.5059L16.8855 16.5142M14.9386 22.5059L12.9918 28.4975" stroke="#1BC469" stroke-linecap="round"/>
</svg>
