<svg width="35" height="36" viewBox="0 0 35 36" fill="none" xmlns="http://www.w3.org/2000/svg">
<path d="M20.3832 12.8614C19.9326 12.7565 19.4827 12.6768 19.0321 12.6215V11.0058C19.8241 10.4857 20.3609 9.63441 20.4716 8.66961H20.514L20.8992 8.49863C21.1357 8.39374 21.2988 8.17176 21.3275 7.91458L21.4102 7.189C21.444 6.89446 21.2133 6.63656 20.9165 6.63656H20.6204H20.578L20.5887 6.41171C20.6757 4.64518 19.2664 3.16602 17.497 3.16602C15.7276 3.16602 14.3182 4.6459 14.4052 6.41171L14.4159 6.63656H14.3764H14.0803C13.7835 6.63656 13.5535 6.89446 13.5866 7.189L13.6692 7.91458C13.6987 8.17176 13.8618 8.39374 14.0976 8.49863L14.4828 8.66961H14.523C14.6344 9.63441 15.1706 10.4857 15.9626 11.0058V12.6215C15.5184 12.6761 15.075 12.7551 14.6308 12.8571C13.5154 13.115 12.7658 14.1603 12.888 15.2982L13.0282 16.6028C14.3311 17.3937 15.8605 17.8492 17.497 17.8492C19.1327 17.8492 20.6628 17.3937 21.9657 16.6028L22.1059 15.2982C22.2309 14.1675 21.4914 13.1193 20.3832 12.8614Z" fill="#1BC469"/>
<path d="M8.90137 8.56535C9.60352 8.56535 10.2101 8.08618 10.3847 7.40659C11.1961 4.23489 14.0745 1.88935 17.5004 1.88935C20.9264 1.88935 23.8048 4.23417 24.6162 7.40659C24.7901 8.08618 25.3974 8.56535 26.0995 8.56535C25.7589 4.11564 22.0389 0.611328 17.4997 0.611328C12.9605 0.611328 9.24131 4.11564 8.90137 8.56535Z" fill="#EBECED"/>
<path d="M33.2119 31.783C33.1709 31.783 33.1307 31.7851 33.0912 31.7873L32.348 28.645C32.3322 28.5789 32.2906 28.5222 32.2323 28.487L29.6695 26.959C29.9785 26.6292 30.2035 26.2262 30.3235 25.7772C30.5161 25.0588 30.4169 24.3081 30.0447 23.6637C29.6724 23.0193 29.0716 22.5588 28.3529 22.3663C27.972 22.2643 27.5817 22.2449 27.2037 22.3038L26.2011 18.2945C26.1868 18.2377 26.153 18.1874 26.1055 18.1529L23.2006 16.0258C25.1411 14.3972 26.3772 11.9554 26.3772 9.23052C26.3772 4.33828 22.3957 0.358398 17.5014 0.358398C12.6072 0.358398 8.62567 4.33828 8.62567 9.23052C8.62567 9.81889 8.68388 10.4072 8.79815 10.9791C8.82546 11.1149 8.9577 11.2039 9.09425 11.1766C9.2308 11.1493 9.31848 11.0172 9.29189 10.8807C9.18409 10.3412 9.12947 9.78584 9.12947 9.23052C9.12947 4.61558 12.8853 0.861272 17.5022 0.861272C22.119 0.861272 25.8748 4.61558 25.8748 9.23052C25.8748 13.8455 22.119 17.5998 17.5022 17.5998C14.2249 17.5998 11.2309 15.6716 9.87546 12.6881C9.81797 12.5617 9.6692 12.5057 9.54271 12.5631C9.41622 12.6206 9.36016 12.7693 9.41766 12.8958C9.97752 14.1278 10.8011 15.1881 11.803 16.0258L8.89805 18.1529C8.85062 18.1874 8.81684 18.2377 8.80246 18.2945L7.7999 22.3038C7.42115 22.2449 7.03162 22.2643 6.65072 22.3663C5.93203 22.5588 5.33121 23.0193 4.95893 23.6637C4.33152 24.7492 4.52125 26.0854 5.33552 26.9575L2.77125 28.4863C2.71304 28.5215 2.67064 28.5782 2.65554 28.6443L1.90883 31.788C1.86858 31.7851 1.82834 31.783 1.78809 31.783C0.802053 31.783 0 32.5847 0 33.5703C0 34.556 0.802053 35.3577 1.78809 35.3577C2.77413 35.3577 3.57618 34.556 3.57618 33.5703C3.57618 33.4317 3.46335 33.3189 3.32464 33.3189C3.18593 33.3189 3.0731 33.4317 3.0731 33.5703C3.0731 34.2787 2.49671 34.8548 1.78809 34.8548C1.07947 34.8548 0.50308 34.2787 0.50308 33.5703C0.50308 32.862 1.07947 32.2858 1.78809 32.2858C2.08563 32.2858 2.37598 32.39 2.60524 32.5789C2.71232 32.6673 2.87115 32.6522 2.95955 32.5452C3.04795 32.4381 3.03285 32.2794 2.92577 32.191C2.76838 32.0617 2.59086 31.9611 2.40185 31.8914L3.11766 28.8641L5.72793 27.3081C5.80698 27.3656 5.88891 27.4195 5.97515 27.469C6.40493 27.7169 6.88142 27.844 7.36437 27.844C7.60585 27.844 7.84949 27.8124 8.08953 27.7485C8.42659 27.6587 8.73706 27.5085 9.01088 27.3095L11.6204 28.8649L12.3456 31.9302C11.7117 32.2054 11.2668 32.8368 11.2668 33.5703C11.2668 34.556 12.0689 35.3577 13.0549 35.3577C14.041 35.3577 14.843 34.556 14.843 33.5703C14.843 32.5847 14.041 31.783 13.0549 31.783C12.9795 31.783 12.9047 31.788 12.8314 31.7973L12.0854 28.645C12.0696 28.5789 12.0279 28.5222 11.9697 28.487L9.40616 26.959C9.54846 26.806 9.67495 26.6364 9.78203 26.4511C10.1543 25.8067 10.2535 25.0567 10.0609 24.3376C9.86828 23.6192 9.4076 23.0186 8.76294 22.6465C8.60914 22.5581 8.44959 22.4856 8.28645 22.4281L9.26674 18.5064L12.2105 16.3512C13.7132 17.4654 15.5603 18.1041 17.5007 18.1041C19.4814 18.1041 21.3126 17.4518 22.791 16.3512L25.7347 18.5064L26.715 22.4281C26.5511 22.4856 26.3916 22.5581 26.2385 22.6465C24.9082 23.4144 24.4511 25.1213 25.2194 26.4511C25.3265 26.6371 25.4537 26.806 25.596 26.959L23.0317 28.4877C22.9735 28.5229 22.9311 28.5797 22.916 28.6458L22.17 31.7981C22.0967 31.7887 22.0227 31.7837 21.9465 31.7837C20.9605 31.7837 20.1584 32.5854 20.1584 33.571C20.1584 34.5567 20.9605 35.3584 21.9465 35.3584C22.9325 35.3584 23.7346 34.5567 23.7346 33.571C23.7346 32.8376 23.2897 32.2054 22.6559 31.931L23.381 28.8656L25.9906 27.3103C26.4347 27.635 26.9723 27.8246 27.5458 27.8433H27.5537C27.6888 27.8433 27.8009 27.7363 27.8052 27.5998C27.8095 27.4611 27.701 27.3447 27.5616 27.3404C26.7653 27.3153 26.0531 26.8893 25.6549 26.2004C25.0254 25.1106 25.3998 23.7126 26.49 23.0825C27.0183 22.7779 27.6335 22.6968 28.2221 22.8541C28.8114 23.0114 29.3037 23.3893 29.6084 23.9173C29.9131 24.4453 29.9944 25.0603 29.837 25.6486C29.6796 26.2377 29.3015 26.7298 28.7733 27.0344C28.6533 27.1041 28.6116 27.2578 28.6813 27.3778C28.751 27.4978 28.9048 27.5394 29.0248 27.4697C29.1104 27.4202 29.193 27.3663 29.2721 27.3088L31.8823 28.8649L32.5982 31.8914C31.9132 32.1422 31.4238 32.8002 31.4238 33.5703C31.4238 34.556 32.2259 35.3577 33.2119 35.3577C34.1979 35.3577 35 34.556 35 33.5703C35 32.5847 34.1979 31.783 33.2119 31.783ZM14.3385 33.5703C14.3385 34.2787 13.7621 34.8548 13.0535 34.8548C12.3449 34.8548 11.7685 34.2787 11.7685 33.5703C11.7685 32.862 12.3449 32.2858 13.0535 32.2858C13.7621 32.2858 14.3385 32.862 14.3385 33.5703ZM9.34579 26.1996C9.04107 26.7276 8.54805 27.1048 7.95945 27.2629C7.37012 27.4202 6.75493 27.339 6.22741 27.0344C5.13717 26.4051 4.76273 25.0064 5.3923 23.9166C5.69702 23.3886 6.19004 23.0114 6.77864 22.8534C6.97485 22.8009 7.17464 22.7751 7.373 22.7751C7.76899 22.7751 8.15924 22.8792 8.5114 23.0818C9.60092 23.7111 9.97536 25.1098 9.34579 26.1996ZM23.2315 33.5703C23.2315 34.2787 22.6551 34.8548 21.9465 34.8548C21.2379 34.8548 20.6615 34.2787 20.6615 33.5703C20.6615 32.862 21.2379 32.2858 21.9465 32.2858C22.6551 32.2858 23.2315 32.862 23.2315 33.5703ZM33.2119 34.8541C32.5033 34.8541 31.9269 34.2779 31.9269 33.5696C31.9269 32.8613 32.5033 32.2851 33.2119 32.2851C33.9205 32.2851 34.4969 32.8613 34.4969 33.5696C34.4969 34.2779 33.9205 34.8541 33.2119 34.8541Z" fill="#2A3853"/>
<path d="M27.6322 26.0248C28.166 26.0248 28.5988 25.5922 28.5988 25.0585C28.5988 24.5249 28.166 24.0923 27.6322 24.0923C27.0983 24.0923 26.6655 24.5249 26.6655 25.0585C26.6655 25.5922 27.0983 26.0248 27.6322 26.0248Z" fill="#EBECED"/>
<path d="M7.36849 26.0248C7.90234 26.0248 8.33512 25.5922 8.33512 25.0585C8.33512 24.5249 7.90234 24.0923 7.36849 24.0923C6.83463 24.0923 6.40186 24.5249 6.40186 25.0585C6.40186 25.5922 6.83463 26.0248 7.36849 26.0248Z" fill="#EBECED"/>
<path d="M29.8046 9.36783C29.7909 9.36783 29.7765 9.3664 29.7629 9.36424L27.9173 9.0539C27.78 9.03091 27.688 8.9016 27.711 8.76439C27.734 8.62717 27.8634 8.53522 28.0007 8.55821L29.8463 8.86855C29.9835 8.89154 30.0755 9.02085 30.0525 9.15806C30.0317 9.28091 29.9253 9.36783 29.8046 9.36783Z" fill="#F46E94"/>
<path d="M26.2125 3.63612C26.1449 3.63612 26.0781 3.60882 26.0285 3.55566C25.9336 3.45365 25.9394 3.29489 26.0414 3.20006L27.412 1.92635C27.514 1.83224 27.6728 1.83799 27.7677 1.93928C27.8626 2.0413 27.8568 2.20006 27.7548 2.29489L26.3842 3.56859C26.3346 3.61385 26.2736 3.63612 26.2125 3.63612Z" fill="#F46E94"/>
<path d="M5.19532 9.36783C5.07458 9.36783 4.96821 9.28091 4.94737 9.15806C4.92437 9.02085 5.01636 8.89154 5.15363 8.86855L6.99922 8.55821C7.13577 8.53522 7.26585 8.62717 7.28885 8.76439C7.31185 8.9016 7.21986 9.03091 7.08259 9.0539L5.237 9.36424C5.22335 9.3664 5.20969 9.36783 5.19532 9.36783Z" fill="#F46E94"/>
<path d="M8.78808 3.63617C8.72699 3.63617 8.66518 3.6139 8.61703 3.56864L7.24649 2.29494C7.14444 2.20011 7.13869 2.04134 7.23356 1.93933C7.32843 1.83732 7.48726 1.83157 7.58931 1.9264L8.95984 3.20011C9.06189 3.29494 9.06764 3.4537 8.97278 3.55571C8.92247 3.60959 8.85563 3.63617 8.78808 3.63617Z" fill="#F46E94"/>
</svg>
