<svg width="23" height="23" viewBox="0 0 23 23" fill="none" xmlns="http://www.w3.org/2000/svg">
<path fill-rule="evenodd" clip-rule="evenodd" d="M7.0918 8.60295C7.0918 8.14732 7.46116 7.77795 7.9168 7.77795H14.5168C14.9724 7.77795 15.3418 8.14732 15.3418 8.60295C15.3418 9.05859 14.9724 9.42795 14.5168 9.42795H12.0418V15.203C12.0418 15.6586 11.6724 16.028 11.2168 16.028C10.7612 16.028 10.3918 15.6586 10.3918 15.203V9.42795H7.9168C7.46116 9.42795 7.0918 9.05859 7.0918 8.60295Z" fill="#1C274C"/>
<path d="M2.4168 5.30295C3.63182 5.30295 4.6168 4.31798 4.6168 3.10295C4.6168 1.88793 3.63182 0.902954 2.4168 0.902954C1.20177 0.902954 0.216797 1.88793 0.216797 3.10295C0.216797 4.31798 1.20177 5.30295 2.4168 5.30295Z" fill="#1C274C"/>
<path d="M2.4168 22.903C3.63182 22.903 4.6168 21.918 4.6168 20.703C4.6168 19.4879 3.63182 18.503 2.4168 18.503C1.20177 18.503 0.216797 19.4879 0.216797 20.703C0.216797 21.918 1.20177 22.903 2.4168 22.903Z" fill="#1C274C"/>
<path d="M22.2168 3.10295C22.2168 4.31798 21.2318 5.30295 20.0168 5.30295C18.8018 5.30295 17.8168 4.31798 17.8168 3.10295C17.8168 1.88793 18.8018 0.902954 20.0168 0.902954C21.2318 0.902954 22.2168 1.88793 22.2168 3.10295Z" fill="#1C274C"/>
<path d="M20.0168 22.903C21.2318 22.903 22.2168 21.918 22.2168 20.703C22.2168 19.4879 21.2318 18.503 20.0168 18.503C18.8018 18.503 17.8168 19.4879 17.8168 20.703C17.8168 21.918 18.8018 22.903 20.0168 22.903Z" fill="#1C274C"/>
<g opacity="0.5">
<path d="M3.2418 5.14304C2.98703 5.24616 2.70854 5.30295 2.4168 5.30295C2.12505 5.30295 1.84657 5.24616 1.5918 5.14304V18.6629C1.84657 18.5597 2.12505 18.503 2.4168 18.503C2.70854 18.503 2.98703 18.5597 3.2418 18.6629V5.14304Z" fill="#1C274C"/>
<path d="M4.45688 3.92795H17.9767C17.8736 3.67319 17.8168 3.3947 17.8168 3.10295C17.8168 2.81121 17.8736 2.53272 17.9767 2.27795H4.45688C4.56001 2.53272 4.6168 2.81121 4.6168 3.10295C4.6168 3.3947 4.56001 3.67319 4.45688 3.92795Z" fill="#1C274C"/>
<path d="M19.1918 5.14304C19.4466 5.24616 19.725 5.30295 20.0168 5.30295C20.3085 5.30295 20.587 5.24616 20.8418 5.14304V18.6629C20.587 18.5597 20.3085 18.503 20.0168 18.503C19.725 18.503 19.4466 18.5597 19.1918 18.6629V5.14304Z" fill="#1C274C"/>
<path d="M17.9767 19.878H4.45688C4.56001 20.1327 4.6168 20.4112 4.6168 20.703C4.6168 20.9947 4.56001 21.2732 4.45688 21.528H17.9767C17.8736 21.2732 17.8168 20.9947 17.8168 20.703C17.8168 20.4112 17.8736 20.1327 17.9767 19.878Z" fill="#1C274C"/>
</g>
</svg>
