<svg width="23" height="23" viewBox="0 0 23 23" fill="none" xmlns="http://www.w3.org/2000/svg">
<g opacity="0.5">
<path d="M0.0141602 1.81222C0.0141602 1.3449 0.436292 0.966064 0.957017 0.966064H21.0713C21.592 0.966064 22.0142 1.3449 22.0142 1.81222C22.0142 2.27954 21.592 2.65837 21.0713 2.65837H0.957017C0.436292 2.65837 0.0141602 2.27954 0.0141602 1.81222Z" fill="#1C274C"/>
<path d="M0.0141602 22.1199C0.0141602 21.6526 0.436292 21.2738 0.957017 21.2738H21.0713C21.592 21.2738 22.0142 21.6526 22.0142 22.1199C22.0142 22.5872 21.592 22.9661 21.0713 22.9661H0.957017C0.436292 22.9661 0.0141602 22.5872 0.0141602 22.1199Z" fill="#1C274C"/>
</g>
<path d="M11.6808 4.03445C11.3126 3.70401 10.7156 3.70401 10.3474 4.03445L6.57596 7.41907C6.20775 7.74951 6.20775 8.28527 6.57596 8.61571C6.94417 8.94616 7.54115 8.94616 7.90936 8.61571L10.0712 6.67557V17.2566L7.90936 15.3165C7.54115 14.9861 6.94417 14.9861 6.57596 15.3165C6.20775 15.6469 6.20775 16.1827 6.57596 16.5131L10.3474 19.8978C10.7156 20.2282 11.3126 20.2282 11.6808 19.8978L15.4522 16.5131C15.8204 16.1827 15.8204 15.6469 15.4522 15.3165C15.084 14.9861 14.487 14.9861 14.1188 15.3165L11.9569 17.2566V6.67557L14.1188 8.61571C14.487 8.94616 15.084 8.94616 15.4522 8.61571C15.8204 8.28527 15.8204 7.74951 15.4522 7.41907L11.6808 4.03445Z" fill="#1C274C"/>
</svg>
