<svg width="35" height="36" viewBox="0 0 35 36" fill="none" xmlns="http://www.w3.org/2000/svg">
<path d="M31.2258 29.3848C31.0598 29.3848 30.9248 29.4987 30.9248 29.6387V35.1147C30.9248 35.2547 31.0598 35.3687 31.2258 35.3687C31.3918 35.3687 31.5268 35.2547 31.5268 35.1147V29.6387C31.5268 29.4987 31.3918 29.3848 31.2258 29.3848Z" fill="#424852"/>
<path d="M31.1956 21.8544H26.5002L24.9678 17.7077C26.1365 17.6946 27.312 17.8361 28.4584 18.1365L32.7091 19.2495C33.0238 19.3315 33.3618 19.2742 33.6138 19.0943C33.8649 18.915 33.9887 18.6429 33.9448 18.3679L31.9265 5.77544C31.8612 5.36621 31.4424 5.05711 30.9522 5.05711H30.7759C30.61 5.05711 30.4749 5.17102 30.4749 5.31106C30.4749 5.4511 30.61 5.56502 30.7759 5.56502H30.9522C31.1423 5.56502 31.3048 5.68474 31.3297 5.84364L33.348 18.4354C33.3644 18.5399 33.3197 18.6386 33.2251 18.7061C33.1296 18.7743 33.0066 18.7953 32.888 18.7641L28.6372 17.6511C25.6549 16.8703 22.4843 17.1054 19.7084 18.3121C19.1674 18.5472 18.8312 19.0123 18.8312 19.526V19.5419C18.8312 20.1616 18.2344 20.6651 17.5 20.6651C16.7656 20.6651 16.1688 20.1616 16.1688 19.5419C16.1688 19.0268 15.8317 18.561 15.2882 18.3266L15.2271 18.2997C12.4512 17.1004 9.28317 16.8725 6.30602 17.6569L2.11376 18.7619C1.99509 18.7931 1.87125 18.7721 1.77666 18.7046C1.6812 18.6364 1.63649 18.5377 1.65283 18.4333L3.67113 5.84364C3.69607 5.68474 3.8586 5.56502 4.04865 5.56502H5.1855L3.7941 15.4395C3.74939 15.7551 3.893 16.0678 4.1785 16.2754C4.46314 16.4829 4.85098 16.5576 5.21474 16.4742L7.0645 16.0512C8.92543 15.626 10.8724 15.6818 12.6946 16.2144C14.5168 16.7463 16.088 17.7178 17.2394 19.0232H17.242C17.2618 19.0522 17.2893 19.0776 17.3228 19.0986C17.377 19.132 17.4389 19.148 17.5017 19.148C17.5937 19.148 17.6849 19.1124 17.7442 19.0449C18.8914 17.7331 20.4625 16.7564 22.2865 16.2188C24.1104 15.6818 26.0608 15.6216 27.926 16.0461L29.8128 16.4749C30.1765 16.5576 30.5635 16.4829 30.8482 16.2754C31.1328 16.0678 31.2764 15.7551 31.2317 15.4402L29.6004 3.87513C29.5324 3.39479 29.0491 3.03273 28.4764 3.03273H27.8676L27.7558 2.10398C27.7154 1.76803 27.4453 1.47708 27.0687 1.36243L25.3531 0.841463C22.744 0.0498511 19.8924 0.269703 17.5009 1.4408C15.0973 0.261722 12.2276 0.043321 9.60995 0.846543L7.92961 1.36171C7.55467 1.47635 7.28636 1.76731 7.24595 2.10253L7.13415 3.03273H6.54853C5.97494 3.03273 5.49165 3.39479 5.42457 3.87513L5.25774 5.05711H4.04951C3.55934 5.05711 3.14054 5.36621 3.07518 5.77544L1.05688 18.3658C1.01302 18.6415 1.13685 18.9136 1.38882 19.0928C1.64079 19.272 1.97961 19.3301 2.29435 19.2474L6.48661 18.1423C9.31155 17.3978 12.3188 17.6141 14.9537 18.7525L15.0147 18.7794C15.3561 18.9266 15.5677 19.2191 15.5677 19.5427C15.5677 20.4424 16.4345 21.1738 17.5009 21.1738C18.5672 21.1738 19.434 20.4424 19.434 19.5427V19.5267C19.434 19.2045 19.6447 18.9121 19.9844 18.7641C21.362 18.1648 22.842 17.8187 24.3461 17.7302L25.8699 21.8544H9.13182L10.2799 18.7641C10.3297 18.6306 10.2412 18.4877 10.0829 18.4456C9.92383 18.4035 9.75528 18.4782 9.70541 18.6117L8.50061 21.8537H3.80528C1.707 21.8537 0 23.2939 0 25.0644V25.1137C0 26.8065 1.56167 28.1974 3.53354 28.315V35.1152C3.53354 35.2552 3.66855 35.3691 3.83452 35.3691C4.00049 35.3691 4.1355 35.2552 4.1355 35.1152V28.3099C4.77703 28.2577 5.36695 28.053 5.85368 27.741H29.1455C29.7156 28.1067 30.4251 28.3237 31.1947 28.3237C33.293 28.3237 35 26.8834 35 25.113V25.0636C35.0009 23.2947 33.2939 21.8544 31.1956 21.8544ZM28.4764 3.54064C28.7447 3.54064 28.9709 3.71042 29.0027 3.93535L30.6332 15.5012C30.6547 15.6514 30.5885 15.7936 30.4534 15.8923C30.3176 15.9909 30.1413 16.025 29.9684 15.9859L28.0817 15.557C26.0986 15.1064 24.0253 15.1696 22.087 15.7406C21.4945 15.9147 20.9278 16.1339 20.3912 16.3922C20.9011 16.0649 21.4532 15.7791 22.0431 15.5403C23.8877 14.7944 25.9232 14.5746 27.9312 14.904L27.9432 14.9062C28.2709 14.9599 28.6011 14.8815 28.8479 14.6914C29.0947 14.5013 29.2168 14.2307 29.1833 13.9499L27.9286 3.54064H28.4764ZM25.1493 1.32035L26.8649 1.84132C27.0248 1.88993 27.1392 2.01328 27.1564 2.15622L28.5848 14.0014C28.5994 14.1204 28.5469 14.2357 28.442 14.3163C28.3371 14.3968 28.1969 14.4302 28.0576 14.4077H28.0568L28.0456 14.4063C25.9103 14.0558 23.745 14.2902 21.7834 15.0832C20.1564 15.7413 18.7968 16.7318 17.8018 17.9769V1.8805C20.0394 0.784868 22.7079 0.579528 25.1493 1.32035ZM8.13599 1.83987L9.81634 1.3247C12.2655 0.573723 14.9511 0.776886 17.2007 1.88123V17.9769C16.1989 16.723 14.8281 15.7268 13.1882 15.0694C11.8269 14.5238 10.3684 14.2466 8.89017 14.2466C8.24349 14.2466 7.59251 14.2996 6.94496 14.407C6.80565 14.4295 6.66462 14.3968 6.55971 14.3163C6.45479 14.2357 6.40233 14.1204 6.41695 14.0014L7.84533 2.1555C7.86253 2.01183 7.97604 1.88848 8.13599 1.83987ZM6.54853 3.54064H7.07224L5.81757 13.9484C5.78403 14.2292 5.90614 14.4999 6.15381 14.69C6.40147 14.8801 6.73169 14.9584 7.0602 14.904C9.05958 14.5739 11.0891 14.7894 12.9294 15.5273C13.5305 15.7682 14.092 16.0584 14.6106 16.3915C14.0671 16.1295 13.4918 15.9089 12.8915 15.7341C10.9549 15.1681 8.88501 15.1086 6.90712 15.5607L5.05737 15.9844C4.88452 16.0236 4.70737 15.9902 4.57236 15.8915C4.43649 15.7928 4.37113 15.6499 4.39263 15.4997L6.0231 3.93535C6.05405 3.71042 6.28022 3.54064 6.54853 3.54064ZM34.3989 25.1137C34.3989 26.6041 32.9619 27.8165 31.1956 27.8165C29.6563 27.8165 28.4042 26.7601 28.4042 25.4613C28.4042 24.4505 29.3785 23.6284 30.5764 23.6284C31.5017 23.6284 32.2542 24.2633 32.2542 25.044C32.2542 25.6405 31.6789 26.1259 30.972 26.1259C30.4397 26.1259 30.0063 25.7602 30.0063 25.3111C30.0063 25.171 29.8713 25.0571 29.7053 25.0571C29.5393 25.0571 29.4043 25.171 29.4043 25.3111C29.4043 26.0403 30.1077 26.6338 30.972 26.6338C32.0108 26.6338 32.8561 25.9206 32.8561 25.044C32.8561 23.9832 31.8337 23.1205 30.5764 23.1205C29.0466 23.1205 27.8022 24.1704 27.8022 25.4613C27.8022 26.1302 28.0765 26.7455 28.5332 27.2331H6.46769C6.92518 26.7455 7.19865 26.1295 7.19865 25.4613C7.19865 24.1704 5.9543 23.1205 4.42445 23.1205C3.1672 23.1205 2.14472 23.9832 2.14472 25.044C2.14472 25.9206 2.99005 26.6338 4.02887 26.6338C4.89312 26.6338 5.59656 26.0403 5.59656 25.3111C5.59656 25.171 5.46155 25.0571 5.29558 25.0571C5.12961 25.0571 4.99459 25.171 4.99459 25.3111C4.99459 25.7602 4.56118 26.1259 4.02887 26.1259C3.32199 26.1259 2.74668 25.6405 2.74668 25.044C2.74668 24.2633 3.49914 23.6284 4.42445 23.6284C5.62236 23.6284 6.59668 24.4505 6.59668 25.4613C6.59668 26.7601 5.34459 27.8165 3.80528 27.8165C2.03894 27.8165 0.601966 26.6041 0.601966 25.1137V25.0644C0.601966 23.574 2.03894 22.3616 3.80528 22.3616H31.1956C32.9619 22.3616 34.3989 23.574 34.3989 25.0644V25.1137Z" fill="#424852"/>
<path d="M24.6911 23.7705H10.311C9.81482 23.7705 9.41064 24.1115 9.41064 24.5302V25.1868C9.41064 25.6055 9.81482 25.9465 10.311 25.9465H24.6903C25.1864 25.9465 25.5906 25.6055 25.5906 25.1868V24.5302C25.5915 24.1115 25.1873 23.7705 24.6911 23.7705ZM10.0126 25.1868V24.5302C10.0126 24.3916 10.1468 24.2784 10.311 24.2784H11.1469C11.226 24.7667 11.5597 25.1861 12.0309 25.4386H10.311C10.1468 25.4386 10.0126 25.3254 10.0126 25.1868Z" fill="#424852"/>
<path d="M26.9064 33.9553H8.09581C7.68218 33.9553 7.34766 33.6723 7.34766 33.324V29.8905C7.34766 29.5415 7.68304 29.2593 8.09581 29.2593H26.9055C27.3192 29.2593 27.6537 29.5423 27.6537 29.8905V33.324C27.6545 33.673 27.3192 33.9553 26.9064 33.9553Z" fill="#1BC469"/>
<path d="M22.9438 18.7159L22.7649 18.7587C21.7966 18.9887 21.0235 19.604 20.6942 20.4057C20.4998 20.8803 20.9178 21.3744 21.512 21.3744H23.6825C24.2784 21.3744 24.6955 20.8788 24.5003 20.4043L23.9955 19.1788C23.845 18.8145 23.3841 18.6114 22.9438 18.7159Z" fill="#D4E1E8"/>
<path d="M12.043 18.7159L12.2219 18.7587C13.1902 18.9887 13.9633 19.604 14.2926 20.4057L14.5128 20.9434C14.5996 21.1545 14.413 21.3751 14.1481 21.3751H11.3034C10.7075 21.3751 10.2904 20.8795 10.4856 20.405L10.9904 19.1795C11.1409 18.8145 11.6018 18.6114 12.043 18.7159Z" fill="#D4E1E8"/>
</svg>
