<svg width="27" height="26" viewBox="0 0 27 26" fill="none" xmlns="http://www.w3.org/2000/svg">
<path d="M1.75809 9.71737C1.46657 9.71737 1.22998 9.43559 1.22998 9.08839V4.61003C1.22998 2.41026 2.7277 0.626465 4.57467 0.626465H13.2019C13.4934 0.626465 13.73 0.908249 13.73 1.25545C13.73 1.60265 13.4934 1.88443 13.2019 1.88443H4.57467C3.31073 1.88443 2.2862 3.10466 2.2862 4.61003V9.08839C2.2862 9.43559 2.04961 9.71737 1.75809 9.71737Z" fill="#1C274C"/>
<path d="M25.7019 16.5356C25.9934 16.5356 26.23 16.8173 26.23 17.1645V21.6429C26.23 23.8427 24.7323 25.6265 22.8853 25.6265H14.2581C13.9666 25.6265 13.73 25.3447 13.73 24.9975C13.73 24.6503 13.9666 24.3685 14.2581 24.3685H22.8853C24.1492 24.3685 25.1738 23.1483 25.1738 21.6429V17.1645C25.1738 16.8173 25.4104 16.5356 25.7019 16.5356Z" fill="#1C274C"/>
<path opacity="0.5" d="M26.2302 7.89918C26.2302 6.60367 24.8761 5.72997 22.1679 3.98256C19.4226 2.21129 18.05 1.32566 17.0265 1.97592C16.0029 2.62619 16.0029 4.38385 16.0029 7.89918C16.0029 11.4145 16.0029 13.1722 17.0265 13.8224C18.05 14.4727 19.4226 13.5871 22.1679 11.8158C24.8761 10.0684 26.2302 9.19469 26.2302 7.89918Z" stroke="#1C274C" stroke-linecap="round"/>
<g opacity="0.5">
<path d="M5.61328 22.5421V16.6979V10.8538" stroke="#1C274C" stroke-linecap="round"/>
<circle cx="2.92208" cy="2.92208" r="2.92208" transform="matrix(-1 0 0 1 11.457 19.62)" stroke="#1C274C"/>
<path d="M1.23016 15.2369C3.65089 15.2369 5.61328 13.2745 5.61328 10.8538" stroke="#1C274C" stroke-linecap="round"/>
</g>
</svg>
