<svg width="27" height="26" viewBox="0 0 27 26" fill="none" xmlns="http://www.w3.org/2000/svg">
<path d="M1.75809 9.71736C1.46657 9.71736 1.22998 9.43558 1.22998 9.08838V4.61002C1.22998 2.41026 2.7277 0.626465 4.57467 0.626465H13.2019C13.4934 0.626465 13.73 0.908249 13.73 1.25545C13.73 1.60265 13.4934 1.88443 13.2019 1.88443H4.57467C3.31073 1.88443 2.2862 3.10466 2.2862 4.61002V9.08838C2.2862 9.43558 2.04961 9.71736 1.75809 9.71736Z" fill="#1C274C"/>
<path d="M25.7019 16.5356C25.9934 16.5356 26.23 16.8174 26.23 17.1646V21.6429C26.23 23.8427 24.7323 25.6265 22.8853 25.6265H14.2581C13.9666 25.6265 13.73 25.3447 13.73 24.9975C13.73 24.6503 13.9666 24.3685 14.2581 24.3685H22.8853C24.1492 24.3685 25.1738 23.1483 25.1738 21.6429V17.1646C25.1738 16.8174 25.4104 16.5356 25.7019 16.5356Z" fill="#1C274C"/>
<path d="M1.84419 22.4704C1.2499 20.0873 0.952761 18.8957 1.57675 18.0944C2.20074 17.2932 3.42589 17.2932 5.87618 17.2932H9.08376C11.5341 17.2932 12.7592 17.2932 13.3832 18.0944C14.0072 18.8957 13.71 20.0873 13.1158 22.4704C12.7378 23.9862 12.5488 24.7441 11.9851 25.1853C11.4214 25.6265 10.6422 25.6265 9.08376 25.6265H5.87618C4.31775 25.6265 3.53853 25.6265 2.97484 25.1853C2.41115 24.7441 2.22216 23.9862 1.84419 22.4704Z" stroke="#1C274C" stroke-width="0.7"/>
<path opacity="0.5" d="M12.6749 17.6402L12.1828 15.831C11.9931 15.1333 11.8982 14.7845 11.7036 14.5218C11.5098 14.2602 11.2465 14.0585 10.9437 13.9399C10.6397 13.8208 10.2791 13.8208 9.55781 13.8208M2.28467 17.6402L2.77675 15.831C2.96649 15.1333 3.06136 14.7845 3.25595 14.5218C3.44975 14.2602 3.71308 14.0585 4.01583 13.9399C4.31982 13.8208 4.68046 13.8208 5.40173 13.8208" stroke="#1C274C" stroke-width="0.7"/>
<path d="M5.40186 13.8209C5.40186 13.4374 5.71198 13.1265 6.09454 13.1265H8.86526C9.24782 13.1265 9.55794 13.4374 9.55794 13.8209C9.55794 14.2044 9.24782 14.5154 8.86526 14.5154H6.09454C5.71198 14.5154 5.40186 14.2044 5.40186 13.8209Z" stroke="#1C274C" stroke-width="0.7"/>
<path opacity="0.5" d="M4.70898 20.0708V22.8486" stroke="#1C274C" stroke-width="0.7" stroke-linecap="round" stroke-linejoin="round"/>
<path opacity="0.5" d="M10.251 20.0708V22.8486" stroke="#1C274C" stroke-width="0.7" stroke-linecap="round" stroke-linejoin="round"/>
<path opacity="0.5" d="M7.47998 20.0708V22.8486" stroke="#1C274C" stroke-width="0.7" stroke-linecap="round" stroke-linejoin="round"/>
<path d="M19.9748 14.1281C19.5221 14.2355 19.0551 14.2691 18.5917 14.2278C17.834 13.2789 17.4115 12.1059 17.3902 10.8917C17.3689 9.67758 17.7499 8.4905 18.4739 7.51558C18.8257 7.95505 19.1127 8.44268 19.3262 8.96361C19.3527 9.0241 19.4018 9.07179 19.4631 9.09645C19.5244 9.1211 19.5929 9.12075 19.6539 9.09547C19.7149 9.07018 19.7635 9.02199 19.7894 8.96122C19.8153 8.90046 19.8163 8.83198 19.7922 8.77047C19.5193 8.1019 19.1335 7.48521 18.6516 6.94731C18.6271 6.92086 18.5973 6.8999 18.5641 6.88583C18.5309 6.87176 18.4951 6.86488 18.4591 6.86566C18.4231 6.86644 18.3876 6.87486 18.3551 6.89036C18.3225 6.90585 18.2936 6.92808 18.2703 6.95556C16.7687 8.69308 16.2963 11.7675 17.8848 14.1059C15.5341 13.4898 14.1838 11.0066 14.2394 9.30452C14.2845 7.99284 15.1077 6.83585 15.658 6.06251C15.9699 5.63679 16.3087 5.23153 16.6725 4.84923C17.2972 4.16777 17.8368 3.5793 18.0769 2.55569C18.1684 2.16139 18.2043 1.75625 18.1835 1.35202C18.5109 1.57132 18.7875 1.8583 18.9945 2.19359C19.6283 3.28427 19.1042 4.31266 19.8794 5.40677C20.2024 5.86138 20.6279 6.23357 21.1214 6.49322C21.1633 6.51595 21.2108 6.52633 21.2584 6.52314C21.306 6.51996 21.3517 6.50336 21.3902 6.47525C21.4288 6.44714 21.4585 6.40868 21.4761 6.36434C21.4936 6.31999 21.4983 6.27158 21.4894 6.22472C21.2765 5.09778 21.5815 4.45881 21.7785 4.1812C22.7305 5.08495 23.4113 6.23663 23.744 7.50647C23.761 7.57073 23.8027 7.62568 23.86 7.65938C23.9173 7.69308 23.9856 7.70281 24.05 7.68645C24.1144 7.67009 24.1698 7.62897 24.204 7.57202C24.2383 7.51506 24.2487 7.44689 24.233 7.3823C23.8525 5.93259 23.0513 4.62797 21.9305 3.63287C21.8855 3.59217 21.8274 3.56901 21.7668 3.56766C21.7062 3.5663 21.6471 3.58683 21.6004 3.62548C21.5652 3.65479 20.8224 4.28958 20.9222 5.76727C19.4239 4.71217 20.2382 3.32612 19.4268 1.93331C19.078 1.38305 18.5834 0.940432 17.9979 0.654792C17.9565 0.633328 17.91 0.623752 17.8635 0.627127C17.817 0.630502 17.7724 0.646696 17.7345 0.673911C17.6967 0.701126 17.6671 0.738297 17.6491 0.781297C17.6311 0.824296 17.6254 0.871442 17.6326 0.917499C17.7155 1.4234 17.6996 1.94057 17.5858 2.44042C17.3758 3.33557 16.9014 3.8531 16.3006 4.50833C15.9209 4.9085 15.5671 5.33251 15.2415 5.77777C14.697 6.5431 13.7856 7.82399 13.7352 9.28766C13.5849 12.1658 16.7042 15.5075 20.0768 14.6223C20.1097 14.6161 20.1411 14.6034 20.1691 14.585C20.1971 14.5665 20.2212 14.5427 20.2399 14.5148C20.2585 14.487 20.2715 14.4557 20.2779 14.4228C20.2844 14.3899 20.2842 14.356 20.2774 14.3232C20.2707 14.2904 20.2574 14.2592 20.2385 14.2316C20.2195 14.2039 20.1952 14.1803 20.167 14.1621C20.1389 14.144 20.1073 14.1316 20.0743 14.1258C20.0413 14.1199 20.0075 14.1207 19.9748 14.1281Z" fill="#1C274C"/>
<path opacity="0.5" d="M25.9534 10.7676C25.5905 10.3828 25.8904 9.86294 25.5855 9.43792C25.3635 9.12087 24.9363 9.10352 24.6544 8.92706C24.4 8.71217 24.253 8.31169 23.8804 8.19842C23.5156 8.07357 23.1597 8.31384 22.8263 8.33316C22.493 8.31438 22.1363 8.07337 21.7721 8.19842C21.3996 8.31183 21.2523 8.7116 20.9981 8.92681C20.7165 9.10412 20.2892 9.12045 20.0669 9.43781C19.8344 9.74646 19.9504 10.1587 19.8678 10.4816C19.7405 10.7893 19.4079 11.0512 19.4157 11.4429C19.4081 11.8343 19.7399 12.0969 19.8678 12.4041C19.9506 12.7272 19.8343 13.1393 20.0669 13.448C20.2891 13.7651 20.7162 13.7822 20.9982 13.959C21.0841 14.0333 21.1597 14.1188 21.2231 14.2131C21.3357 14.4332 21.5304 14.6001 21.7651 14.6777C21.9998 14.7553 22.2556 14.7374 22.4772 14.6279C22.958 14.3949 23.3882 14.8413 23.8803 14.6874C24.2527 14.574 24.4002 14.1743 24.6542 13.959C24.9359 13.7819 25.3632 13.7652 25.5855 13.448C25.8179 13.1393 25.7023 12.7273 25.7846 12.4042C25.828 12.3018 25.8847 12.2057 25.9534 12.1182C26.1305 11.9381 26.2298 11.6955 26.2298 11.4429C26.2298 11.1903 26.1305 10.9477 25.9534 10.7676ZM25.5403 11.8287C25.3322 12.0856 25.227 12.4107 25.2451 12.7408C25.2581 12.8811 25.2348 13.0223 25.1776 13.1511C25.0041 13.3387 24.5793 13.3695 24.3574 13.5511C24.1172 13.7064 23.9581 14.1027 23.7245 14.2076C23.4693 14.2513 23.1204 14.0329 22.8263 14.0483C22.5317 14.0331 22.1837 14.2518 21.9278 14.2076C21.6943 14.102 21.5355 13.7064 21.2951 13.5511C21.0733 13.37 20.6476 13.3388 20.4748 13.1512C20.3519 12.9286 20.4517 12.5153 20.3476 12.2483C20.1905 11.7675 19.6559 11.5633 20.1122 11.0572C20.3203 10.8002 20.4255 10.4751 20.4075 10.1449C20.3945 10.0047 20.4177 9.86345 20.4749 9.73476C20.6483 9.54714 21.0732 9.51634 21.295 9.33471C21.5352 9.1794 21.6943 8.78313 21.9279 8.67825C22.1837 8.63495 22.5317 8.85287 22.8263 8.83763C23.1212 8.85296 23.4683 8.63368 23.7246 8.67824C23.9582 8.78399 24.1168 9.17947 24.3575 9.33484C24.5792 9.51602 25.0047 9.54692 25.1776 9.73475C25.3006 9.9573 25.2008 10.3705 25.3048 10.6375C25.4619 11.1183 25.9965 11.3225 25.5403 11.8287Z" fill="#1C274C"/>
<path opacity="0.5" d="M24.2081 10.0614C24.1847 10.038 24.1569 10.0194 24.1263 10.0068C24.0957 9.99408 24.0629 9.98755 24.0298 9.98755C23.9967 9.98755 23.9639 9.99408 23.9333 10.0068C23.9027 10.0194 23.8749 10.038 23.8515 10.0614L21.445 12.4678C21.3979 12.5151 21.3715 12.5792 21.3716 12.646C21.3717 12.7128 21.3982 12.7768 21.4455 12.824C21.4927 12.8712 21.5567 12.8978 21.6235 12.8979C21.6902 12.898 21.7543 12.8716 21.8017 12.8245L24.2081 10.4181C24.2316 10.3947 24.2502 10.3669 24.2628 10.3363C24.2755 10.3057 24.282 10.2729 24.282 10.2398C24.282 10.2067 24.2755 10.1739 24.2628 10.1433C24.2502 10.1127 24.2316 10.0849 24.2081 10.0614Z" fill="#1C274C"/>
<path opacity="0.5" d="M23.7284 11.6422C23.5432 11.6443 23.3662 11.7193 23.236 11.851C23.1058 11.9826 23.0327 12.1604 23.0327 12.3456C23.0327 12.5308 23.1058 12.7086 23.236 12.8402C23.3663 12.9719 23.5432 13.0469 23.7284 13.049C23.9136 13.0469 24.0905 12.9719 24.2207 12.8402C24.351 12.7085 24.424 12.5308 24.424 12.3456C24.424 12.1604 24.351 11.9826 24.2207 11.8509C24.0905 11.7193 23.9136 11.6443 23.7284 11.6422ZM23.7284 12.5445C23.6763 12.5435 23.6267 12.5221 23.5902 12.4849C23.5537 12.4477 23.5333 12.3977 23.5333 12.3456C23.5333 12.2935 23.5537 12.2435 23.5902 12.2063C23.6267 12.1691 23.6763 12.1477 23.7284 12.1467C23.7804 12.1477 23.83 12.1691 23.8665 12.2063C23.903 12.2435 23.9234 12.2935 23.9234 12.3456C23.9234 12.3977 23.9029 12.4477 23.8665 12.4849C23.83 12.5221 23.7804 12.5435 23.7284 12.5445Z" fill="#1C274C"/>
<path opacity="0.5" d="M21.9237 11.2444C22.1088 11.2422 22.2856 11.1671 22.4157 11.0355C22.5459 10.9038 22.6189 10.7261 22.6189 10.541C22.6189 10.3558 22.5459 10.1782 22.4157 10.0465C22.2856 9.91479 22.1088 9.83971 21.9237 9.83752C21.7386 9.83972 21.5618 9.9148 21.4316 10.0465C21.3015 10.1782 21.2285 10.3558 21.2285 10.541C21.2285 10.7261 21.3015 10.9038 21.4316 11.0355C21.5618 11.1672 21.7386 11.2422 21.9237 11.2444ZM21.9237 10.342C21.9758 10.343 22.0254 10.3645 22.0619 10.4017C22.0983 10.4389 22.1188 10.4889 22.1187 10.541C22.1187 10.5931 22.0983 10.6431 22.0618 10.6803C22.0254 10.7175 21.9758 10.7389 21.9237 10.7399C21.8716 10.7389 21.822 10.7175 21.7855 10.6803C21.7491 10.6431 21.7286 10.5931 21.7286 10.541C21.7286 10.4889 21.7491 10.4388 21.7855 10.4016C21.822 10.3644 21.8716 10.343 21.9237 10.342Z" fill="#1C274C"/>
</svg>
