<svg width="26" height="26" viewBox="0 0 26 26" fill="none" xmlns="http://www.w3.org/2000/svg">
<path d="M0.75809 9.71737C0.466574 9.71737 0.22998 9.43559 0.22998 9.08839V4.61003C0.22998 2.41026 1.7277 0.626465 3.57467 0.626465H12.2019C12.4934 0.626465 12.73 0.908249 12.73 1.25545C12.73 1.60265 12.4934 1.88443 12.2019 1.88443H3.57467C2.31073 1.88443 1.2862 3.10466 1.2862 4.61003V9.08839C1.2862 9.43559 1.04961 9.71737 0.75809 9.71737Z" fill="#5F9CE3"/>
<path d="M24.7019 16.5356C24.9934 16.5356 25.23 16.8173 25.23 17.1645V21.6429C25.23 23.8427 23.7323 25.6265 21.8853 25.6265H13.2581C12.9666 25.6265 12.73 25.3447 12.73 24.9975C12.73 24.6503 12.9666 24.3685 13.2581 24.3685H21.8853C23.1492 24.3685 24.1738 23.1483 24.1738 21.6429V17.1645C24.1738 16.8173 24.4104 16.5356 24.7019 16.5356Z" fill="#5F9CE3"/>
<g opacity="0.5">
<path d="M5.36216 11.5957L5.90737 11.4077L5.11701 7.98085C5.05473 7.71288 4.86875 7.52073 4.64257 7.49131L2.67857 7.2358L2.68961 6.98653L5.2277 7.40302L6.13327 11.5912L6.68018 11.4125L5.7647 7.2133C5.70638 6.94636 5.5238 6.75145 5.30016 6.71613L2.74792 6.31487C2.42493 6.25601 2.11694 6.58976 2.12345 6.98653V7.25103C2.12345 7.59829 2.33632 7.88772 2.61884 7.92442L4.58256 8.17993L5.36216 11.5957Z" fill="#1C274C"/>
<path d="M3.25822 25.4951H8.56732C9.06073 25.4951 9.47579 25.1111 9.53213 24.6019L10.8203 12.9213H1.00556L2.29408 24.6015C2.35009 25.1108 2.76448 25.4951 3.25822 25.4951ZM10.0729 13.6137L8.87003 24.5226C8.85203 24.6818 8.72234 24.8027 8.56765 24.8027H3.25856C3.10387 24.8027 2.97385 24.6822 2.95651 24.5229L1.75334 13.6137H10.0729Z" fill="#1C274C"/>
<path d="M0.88254 13.6133H10.9417C11.301 13.6133 11.5938 13.3096 11.5938 12.9361C11.5938 11.9542 10.8246 11.1552 9.87917 11.1552H1.94503C0.999557 11.1552 0.230114 11.9542 0.230114 12.9361C0.230447 13.3096 0.523155 13.6133 0.88254 13.6133ZM9.8795 11.8479C10.4569 11.8479 10.9273 12.3361 10.9273 12.9364L0.882874 12.9212C0.897543 12.3364 1.36761 11.8479 1.94569 11.8479H9.8795Z" fill="#1C274C"/>
</g>
<g opacity="0.5">
<path d="M23.2724 12.0848H14.6916C14.2322 12.085 13.7915 11.892 13.4662 11.5481C13.1408 11.2042 12.9575 10.7375 12.9563 10.2504V9.63559C12.9582 9.5544 12.9767 9.47461 13.0104 9.40168C13.0441 9.32875 13.0923 9.2644 13.1516 9.21301C13.2109 9.16161 13.28 9.1244 13.3541 9.1039C13.4282 9.08341 13.5056 9.08011 13.5811 9.09424V8.64233C13.3587 8.61899 13.1513 8.51277 12.9959 8.34257C12.8404 8.17238 12.7469 7.94923 12.7321 7.71283C12.7172 7.47643 12.7819 7.24209 12.9146 7.05151C13.0474 6.86092 13.2396 6.72644 13.4571 6.67199V6.24012C13.3236 6.23669 13.1967 6.17811 13.1033 6.07686C13.01 5.97561 12.9577 5.83972 12.9575 5.69814C12.9589 4.35352 13.4633 3.06441 14.3601 2.11362C15.2568 1.16283 16.4726 0.628 17.7408 0.626465H20.2224C21.4906 0.628 22.7064 1.16283 23.6031 2.11362C24.4998 3.06441 25.0042 4.35351 25.0057 5.69813C25.0056 5.84056 24.9527 5.97723 24.8584 6.07867C24.7641 6.1801 24.6359 6.23817 24.5016 6.24034V6.66811C24.7192 6.72334 24.9114 6.85825 25.0443 7.04904C25.1772 7.23984 25.2423 7.47427 25.2281 7.71098C25.2139 7.9477 25.1213 8.1715 24.9667 8.34292C24.8121 8.51433 24.6053 8.62235 24.3829 8.64793V9.09424C24.4583 9.08015 24.5357 9.08347 24.6098 9.10399C24.6839 9.1245 24.7529 9.16173 24.8122 9.21312C24.8715 9.26451 24.9196 9.32886 24.9532 9.40177C24.9869 9.47468 25.0054 9.55444 25.0073 9.63559V10.2504C25.0061 10.7374 24.8228 11.2041 24.4976 11.548C24.1723 11.8919 23.7317 12.0849 23.2724 12.0848ZM13.4668 9.53559C13.4419 9.5359 13.4181 9.54654 13.4005 9.56522C13.3829 9.58391 13.3728 9.60916 13.3725 9.63559V10.2504C13.3737 10.6205 13.5132 10.9749 13.7605 11.2361C14.0077 11.4972 14.3426 11.6437 14.6916 11.6434H23.2724C23.6213 11.6437 23.9562 11.4972 24.2034 11.236C24.4506 10.9749 24.59 10.6204 24.5911 10.2504V9.63559C24.5912 9.50474 24.4244 9.53922 24.3459 9.53559C24.3129 9.62386 24.2622 9.70354 24.1976 9.76925C24.1329 9.83495 24.0556 9.88514 23.971 9.91641C23.8864 9.94768 23.7965 9.9593 23.7073 9.95047C23.6181 9.94165 23.5318 9.9126 23.4541 9.86528C23.3278 9.78417 23.1872 9.73123 23.0409 9.70967C22.8946 9.68812 22.7457 9.69842 22.6033 9.73994C22.4323 9.80467 22.0785 9.96004 21.92 10.0166C21.3207 10.3312 20.6456 9.53572 20.0903 9.70796L19.3257 10.0153C18.7497 10.2928 18.1641 9.67134 17.6261 9.67547C17.5899 9.95447 17.462 10.211 17.2649 10.3997C17.0677 10.5885 16.8141 10.6974 16.5486 10.7073C16.2832 10.7171 16.023 10.6272 15.8139 10.4535C15.6048 10.2798 15.4603 10.0334 15.4058 9.75779C14.8745 9.44443 14.375 10.208 13.8607 9.85369L13.8595 9.85304L13.8583 9.85216C13.8583 9.85216 13.8611 9.8541 13.8571 9.85128C13.8571 9.85128 13.8595 9.85193 13.8558 9.8504L13.8534 9.84892L13.8526 9.84827C13.8526 9.84827 13.8554 9.84999 13.8514 9.84739C13.8514 9.84739 13.8538 9.84997 13.8501 9.8465C13.8501 9.84672 13.8538 9.8478 13.8489 9.84562C13.8489 9.84562 13.8518 9.84778 13.8477 9.84474C13.8477 9.84474 13.8518 9.84581 13.8465 9.84385C13.8465 9.84385 13.8461 9.84579 13.8457 9.84321L13.8448 9.84276L13.8432 9.84147L13.8416 9.84018C13.739 9.76568 13.6609 9.65918 13.618 9.53546L13.4668 9.53559ZM16.1737 10.1884C16.2849 10.2475 16.4087 10.2751 16.5329 10.2686C16.6572 10.2622 16.7778 10.2218 16.883 10.1513C16.9882 10.0809 17.0745 9.9829 17.1334 9.86674C17.1924 9.75059 17.2221 9.62026 17.2196 9.48837V7.84302C17.22 7.5253 17.3393 7.22072 17.5512 6.9961C17.7631 6.77147 18.0504 6.64514 18.3501 6.64482H24.0854V6.24032H13.8733V6.64482H14.6668C14.9664 6.64516 15.2537 6.77151 15.4655 6.99614C15.6774 7.22077 15.7966 7.52534 15.7969 7.84302V9.525C15.8015 9.66038 15.8385 9.79229 15.9044 9.90833C15.9703 10.0244 16.063 10.1207 16.1737 10.1884ZM20.2944 9.23259C20.8014 9.22689 21.2821 9.75778 21.7683 9.60563C22.0169 9.50889 22.2737 9.38685 22.5293 9.2979C22.7111 9.24422 22.9014 9.23078 23.0883 9.2584C23.2752 9.28602 23.4548 9.35412 23.6159 9.45845C23.6949 9.49366 23.8051 9.54221 23.8809 9.48064L23.8817 9.4802L23.8825 9.47955L23.8834 9.47891L23.8838 9.47869L23.8846 9.47805L23.885 9.47783L23.8854 9.47761L23.8859 9.47717L23.8863 9.47696C23.9113 9.4591 23.9317 9.43495 23.9458 9.40667C23.9598 9.37839 23.967 9.34686 23.9668 9.3149V8.65243H17.636V9.23257C18.1677 9.18839 18.6658 9.76023 19.1705 9.60587C19.5276 9.42836 19.9056 9.3028 20.2944 9.23259ZM13.9973 9.31492C14.0548 9.72488 14.4914 9.35614 14.7115 9.31213C14.923 9.21443 15.1607 9.20118 15.3806 9.27484V8.65246H13.9973V9.31492ZM13.6652 7.08618C13.5932 7.087 13.5222 7.1033 13.4563 7.13409C13.3904 7.16489 13.3311 7.20953 13.282 7.26533C13.2329 7.32112 13.195 7.38691 13.1705 7.4587C13.1461 7.53049 13.1357 7.60679 13.1398 7.68298C13.144 7.75917 13.1628 7.83367 13.1949 7.90197C13.227 7.97027 13.2719 8.03094 13.3268 8.08032C13.3817 8.12969 13.4454 8.16674 13.5142 8.18922C13.583 8.2117 13.6554 8.21915 13.727 8.2111C13.7287 8.21098 13.7876 8.21121 13.7892 8.2111H15.3806V7.84302C15.3804 7.64236 15.3051 7.44998 15.1713 7.3081C15.0375 7.16621 14.8561 7.0864 14.6668 7.08617L13.6652 7.08618ZM24.1748 8.21111C24.2477 8.22687 24.323 8.22636 24.3957 8.2096C24.4684 8.19284 24.5371 8.1602 24.5972 8.11376C24.6574 8.06732 24.7078 8.0081 24.7452 7.93987C24.7826 7.87164 24.8062 7.7959 24.8145 7.71747C24.8228 7.63904 24.8155 7.55965 24.7933 7.48434C24.771 7.40904 24.7342 7.33947 24.6852 7.28009C24.6362 7.2207 24.576 7.17278 24.5086 7.13939C24.4412 7.10601 24.3679 7.08788 24.2935 7.08617H18.3501C18.1608 7.0863 17.9793 7.16607 17.8454 7.30797C17.7115 7.44986 17.6361 7.64229 17.6359 7.84302V8.2111L24.1748 8.21111ZM24.3065 5.79899H24.4947C24.5199 5.79886 24.5439 5.78818 24.5617 5.76928C24.5794 5.75038 24.5894 5.7248 24.5894 5.69813C24.5881 4.47052 24.1276 3.29358 23.3089 2.42553C22.4902 1.55748 21.3802 1.0692 20.2224 1.06781H17.7408C16.5829 1.0692 15.4729 1.55748 14.6542 2.42553C13.8356 3.29358 13.375 4.47052 13.3737 5.69813C13.3734 5.84525 13.5813 5.78922 13.6652 5.79856C13.6704 5.80063 24.3001 5.79654 24.3065 5.79899ZM20.011 2.72505C19.9837 2.72507 19.9566 2.71937 19.9314 2.70829C19.9061 2.6972 19.8832 2.68095 19.8638 2.66046C19.8445 2.63996 19.8292 2.61563 19.8187 2.58885C19.8083 2.56207 19.8029 2.53336 19.8029 2.50438C19.8228 2.30663 19.7107 1.86842 20.011 1.86197C20.0384 1.86195 20.0655 1.86765 20.0907 1.87873C20.116 1.88981 20.1389 1.90607 20.1582 1.92656C20.1776 1.94706 20.1929 1.97139 20.2034 1.99817C20.2138 2.02495 20.2192 2.05366 20.2192 2.08264C20.1992 2.28038 20.3114 2.71859 20.011 2.72505ZM19.0639 2.72505C19.0366 2.72507 19.0095 2.71937 18.9842 2.70829C18.959 2.6972 18.936 2.68095 18.9167 2.66046C18.8974 2.63996 18.882 2.61563 18.8716 2.58885C18.8611 2.56207 18.8558 2.53336 18.8558 2.50438C18.8757 2.30663 18.7636 1.86842 19.0639 1.86197C19.0912 1.86195 19.1183 1.86764 19.1436 1.87873C19.1688 1.88981 19.1918 1.90607 19.2111 1.92656C19.2304 1.94706 19.2458 1.97139 19.2562 1.99817C19.2667 2.02495 19.272 2.05366 19.272 2.08264C19.2521 2.28038 19.3642 2.71859 19.0639 2.72505ZM18.1164 2.72505C18.089 2.72507 18.062 2.71937 18.0367 2.70829C18.0114 2.6972 17.9885 2.68095 17.9692 2.66046C17.9498 2.63996 17.9345 2.61563 17.924 2.58885C17.9136 2.56207 17.9082 2.53336 17.9082 2.50438C17.9282 2.30663 17.8161 1.86842 18.1164 1.86197C18.1437 1.86195 18.1708 1.86765 18.196 1.87873C18.2213 1.88981 18.2442 1.90607 18.2636 1.92656C18.2829 1.94706 18.2982 1.97139 18.3087 1.99817C18.3191 2.02495 18.3245 2.05366 18.3245 2.08264C18.3046 2.28038 18.4167 2.71859 18.1164 2.72505Z" fill="#1C274C"/>
</g>
</svg>
