<svg width="23" height="24" viewBox="0 0 23 24" fill="none" xmlns="http://www.w3.org/2000/svg">
<path d="M0.694717 8.97607C0.438182 8.97607 0.22998 8.7281 0.22998 8.42257V4.48161C0.22998 2.54582 1.54797 0.976074 3.17331 0.976074H10.7652C11.0218 0.976074 11.23 1.22404 11.23 1.52958C11.23 1.83511 11.0218 2.08309 10.7652 2.08309H3.17331C2.06104 2.08309 1.15945 3.15689 1.15945 4.48161V8.42257C1.15945 8.7281 0.951251 8.97607 0.694717 8.97607Z" fill="#1C274C"/>
<path d="M21.7652 14.9761C22.0218 14.9761 22.23 15.224 22.23 15.5296V19.4705C22.23 21.4063 20.912 22.9761 19.2866 22.9761H11.6947C11.4382 22.9761 11.23 22.7281 11.23 22.4226C11.23 22.117 11.4382 21.8691 11.6947 21.8691H19.2866C20.3989 21.8691 21.3005 20.7953 21.3005 19.4705V15.5296C21.3005 15.224 21.5087 14.9761 21.7652 14.9761Z" fill="#1C274C"/>
<path d="M20.0837 9.94702C20.1828 9.78051 20.2682 9.60787 20.3393 9.43095C20.373 9.34697 20.3044 9.25825 20.2049 9.25825C20.145 9.25825 20.0911 9.29174 20.0708 9.34238C19.9956 9.53018 19.9031 9.71289 19.7942 9.88784C19.7691 9.92815 19.7701 9.97743 19.7968 10.0169L20.3913 10.8962L19.3341 11.8455L18.3519 11.31C18.3081 11.2861 18.2532 11.2852 18.2083 11.3076C17.9343 11.4442 17.6434 11.5521 17.3438 11.6283C17.2943 11.6408 17.2561 11.6763 17.2439 11.7212L16.972 12.7198H15.4769L15.2042 11.718C15.192 11.6733 15.154 11.6379 15.1047 11.6252C14.8053 11.5483 14.5148 11.4396 14.2413 11.3023C14.1963 11.2797 14.1413 11.2806 14.0974 11.3046L13.1182 11.8383L12.0609 10.8891L12.6573 10.0071C12.684 9.96772 12.685 9.91859 12.6601 9.87833C12.6073 9.79292 12.4444 9.48877 12.3487 9.30343C12.3183 9.24438 12.2432 9.21159 12.1747 9.23279C12.0959 9.25715 12.0591 9.33528 12.0913 9.40161C12.1743 9.57266 12.31 9.83459 12.3705 9.937L11.7585 10.842C11.7244 10.8925 11.7331 10.9574 11.7796 10.9992L12.9954 12.0908C13.042 12.1326 13.1143 12.1404 13.1706 12.1098L14.1753 11.5621C14.4217 11.6803 14.6803 11.777 14.9461 11.8504L15.226 12.8784C15.2416 12.9358 15.2989 12.9762 15.3648 12.9762H17.0842C17.15 12.9762 17.2073 12.9358 17.2229 12.8785L17.5019 11.8538C17.7678 11.7812 18.0268 11.6851 18.2737 11.5675L19.2816 12.1169C19.338 12.1476 19.4103 12.1398 19.4568 12.098L20.6726 11.0064C20.7191 10.9646 20.7279 10.8997 20.6937 10.8492L20.0837 9.94702Z" fill="#1C274C"/>
<path d="M21.9072 6.78546C21.7037 6.60761 21.4265 6.51413 21.1424 6.51413H21.0739V6.12561C21.0739 4.1372 19.5825 2.45587 17.551 1.93428C17.4208 1.38746 16.8782 0.976074 16.229 0.976074C15.5848 0.976074 15.0449 1.3832 14.9112 1.92574C14.222 2.09723 13.5783 2.40387 13.0302 2.83007C12.1587 3.50784 11.583 4.4412 11.4089 5.45869C11.3487 5.80923 11.3524 6.16089 11.3524 6.51413H11.2973C10.7141 6.51413 10.2271 6.95172 10.23 7.47579C10.2328 7.99151 10.7246 8.42813 11.2973 8.42813H13.5444C13.723 9.61895 14.8914 10.5353 16.23 10.5353C17.6012 10.5353 18.7372 9.61613 18.9153 8.42813H21.1626C21.7353 8.42813 22.2271 7.99151 22.23 7.47579C22.2314 7.21428 22.1166 6.96843 21.9072 6.78546ZM18.6829 4.947C18.6829 4.72574 18.8837 4.54572 19.1306 4.54572C19.3775 4.54572 19.5784 4.72574 19.5784 4.947V6.51413H18.6828L18.6829 4.947ZM15.1648 2.18761C15.1648 1.66095 15.6422 1.23248 16.2309 1.23248C16.8177 1.23248 17.2952 1.66095 17.2952 2.18761V6.51413H15.1648V2.18761ZM12.8829 4.947C12.8829 4.72574 13.0838 4.54572 13.3306 4.54572C13.5775 4.54572 13.7784 4.72574 13.7784 4.947V6.51413H12.8829V4.947ZM21.1626 8.17172H11.2973C10.8684 8.17172 10.5178 7.85897 10.5157 7.47454C10.5137 7.09223 10.8715 6.77054 11.2973 6.77054H21.1626C21.5321 6.77054 21.8641 7.01646 21.9311 7.34292H14.8927C14.8138 7.34292 14.7498 7.40033 14.7498 7.47113C14.7498 7.54192 14.8138 7.59933 14.8927 7.59933H21.9308C21.8632 7.92438 21.544 8.17172 21.1626 8.17172Z" fill="#1C274C"/>
<path d="M7.26985 22.2864C7.43371 22.2864 7.56655 22.1537 7.56655 21.9899C7.56655 21.8262 7.43371 21.6935 7.26985 21.6935C7.10598 21.6935 6.97314 21.8262 6.97314 21.9899C6.97314 22.1537 7.10598 22.2864 7.26985 22.2864Z" fill="#1C274C"/>
<path d="M5.13541 11.7106C5.2876 11.7106 5.41097 11.5873 5.41097 11.4351C5.41097 11.2829 5.2876 11.1595 5.13541 11.1595C4.98323 11.1595 4.85986 11.2829 4.85986 11.4351C4.85986 11.5873 4.98323 11.7106 5.13541 11.7106Z" fill="#1C274C"/>
<path d="M9.66227 18.1379C9.81445 18.1379 9.93782 18.0145 9.93782 17.8623C9.93782 17.7102 9.81445 17.5868 9.66227 17.5868C9.51009 17.5868 9.38672 17.7102 9.38672 17.8623C9.38672 18.0145 9.51009 18.1379 9.66227 18.1379Z" fill="#1C274C"/>
<path d="M8.77057 17.5285C7.59288 17.4176 6.42595 17.5487 5.3023 17.9181C5.03892 18.0047 4.77608 18.1068 4.51812 18.2209L3.01719 16.0799C3.21433 15.8754 3.40032 15.6639 3.57024 15.4484C3.57046 15.4482 3.57063 15.4479 3.57084 15.4476C4.2967 14.5268 4.81669 13.4854 5.11635 12.3523C5.14628 12.2391 5.0788 12.1231 4.96567 12.0931C4.85259 12.0633 4.73653 12.1307 4.70657 12.2439C4.42178 13.3208 3.92747 14.3106 3.23747 15.1858C2.55328 16.007 1.76244 16.6382 0.893998 17.2456C0.194122 17.735 0.0174153 18.7301 0.508456 19.4305C0.998267 20.1292 1.99557 20.3051 2.69514 19.8158L3.01355 19.5931L6.45354 22.9769C6.82408 23.3415 7.43109 23.3788 7.84363 23.0611L8.62777 22.4572C8.94762 22.2108 8.95308 21.7121 8.63841 21.4588L5.6157 19.0263C5.52453 18.953 5.3911 18.9674 5.31773 19.0586C5.24436 19.1498 5.25881 19.2833 5.34999 19.3566L8.37278 21.7891C8.47798 21.8737 8.47616 22.0389 8.36926 22.1212L7.58512 22.7251C7.33475 22.9179 6.97612 22.8962 6.7508 22.6746L3.36734 19.3465C3.74225 19.0885 4.13805 18.8819 4.54194 18.6749C4.83389 18.5388 5.1342 18.4196 5.43467 18.3208C6.50258 17.9698 7.61157 17.8452 8.73085 17.9505C8.84775 17.9618 8.95075 17.8759 8.96173 17.7594C8.97271 17.6428 8.88709 17.5395 8.77057 17.5285ZM2.37161 17.3053L2.67306 17.0958C2.76919 17.029 2.90127 17.0527 2.96802 17.1489C3.03483 17.245 3.01109 17.377 2.915 17.4438L2.61355 17.6534C2.57668 17.679 2.5345 17.6913 2.49275 17.6913C2.28938 17.6913 2.20529 17.421 2.37161 17.3053ZM2.92263 18.0675L3.22408 17.858C3.32021 17.7912 3.45224 17.8149 3.51904 17.9111C3.58584 18.0072 3.56211 18.1392 3.46602 18.206L3.16457 18.4155C3.12769 18.4411 3.08552 18.4535 3.04377 18.4535C2.8404 18.4534 2.75631 18.1831 2.92263 18.0675ZM2.45227 19.4683C1.93453 19.8305 1.21812 19.7043 0.855469 19.187C0.496249 18.6748 0.625483 17.9507 1.13683 17.5931L1.39029 17.4158L2.70527 19.2914L2.45227 19.4683Z" fill="#1C274C"/>
<path d="M7.4358 9.8703C6.54896 9.07862 5.9083 8.81078 5.53179 9.07408C5.19647 9.30856 5.1863 9.88679 5.50148 10.7926C5.96501 12.1246 6.73338 13.3648 7.53897 14.5139C8.34473 15.6633 9.24911 16.8087 10.3433 17.6989C10.8808 18.1361 11.3155 18.3557 11.6418 18.3557C11.9531 18.3557 12.1617 18.1314 12.2134 17.8377C12.3658 16.9731 11.4613 14.9559 9.9626 12.8182C9.12615 11.6252 8.22876 10.5782 7.4358 9.8703ZM11.796 17.7641C11.787 17.8152 11.7677 17.8823 11.727 17.9107C11.6368 17.9739 11.3003 17.931 10.6108 17.3701C10.0273 16.8954 9.33745 16.1658 8.65406 15.3023L8.89769 15.132C9.47198 14.7303 9.61579 13.9162 9.21347 13.3422C8.80669 12.762 8.00327 12.6204 7.42237 13.0266L7.17822 13.1973C6.59936 12.2605 6.14884 11.3634 5.90177 10.6533C5.61003 9.81486 5.68459 9.48455 5.77462 9.42156C5.87596 9.3509 6.29427 9.41957 7.15356 10.1867C7.9229 10.8734 8.79728 11.8945 9.61558 13.0617C11.1775 15.2896 11.9048 17.1473 11.796 17.7641Z" fill="#1C274C"/>
</svg>
