<svg width="19" height="19" viewBox="0 0 19 19" fill="none" xmlns="http://www.w3.org/2000/svg">
<path d="M1.82279 10.3886C1.48827 8.01589 1.32101 6.82956 2.03189 6.06169C2.74278 5.29382 4.00834 5.29382 6.53945 5.29382H11.5309C14.062 5.29382 15.3275 5.29382 16.0384 6.06169C16.7493 6.82956 16.582 8.01589 16.2475 10.3886L15.9303 12.6386C15.668 14.4992 15.5368 15.4296 14.8639 15.9867C14.191 16.5438 13.1986 16.5438 11.2136 16.5438H6.85668C4.87176 16.5438 3.8793 16.5438 3.20641 15.9867C2.53352 15.4296 2.40235 14.4992 2.14002 12.6386L1.82279 10.3886Z" stroke="#1C274C"/>
<path opacity="0.5" d="M14.7062 5.29382C14.8777 4.31525 14.1247 3.41882 13.1312 3.41882H4.93832C3.94483 3.41882 3.19183 4.31525 3.3633 5.29382M13.1599 3.41882C13.1811 3.22452 13.1918 3.12734 13.192 3.04708C13.1936 2.27936 12.6154 1.63431 11.852 1.55239C11.7722 1.54382 11.6745 1.54382 11.479 1.54382H6.59066C6.39517 1.54382 6.29743 1.54382 6.21763 1.55239C5.45429 1.63431 4.87602 2.27936 4.87769 3.04708C4.87786 3.12734 4.8885 3.2245 4.90979 3.41882" stroke="#1C274C"/>
<circle opacity="0.5" cx="12.4102" cy="8.66882" r="1.125" stroke="#1C274C"/>
<path opacity="0.5" d="M15.0353 15.0438L12.8722 13.4324C12.1746 12.9127 11.1357 12.861 10.3679 13.3076L10.1678 13.424C9.63418 13.7344 8.90823 13.6824 8.44707 13.3007L5.56843 10.918C4.99387 10.4424 4.07224 10.417 3.46073 10.8599L2.46777 11.579" stroke="#1C274C" stroke-linecap="round"/>
</svg>
