<svg width="29" height="32" viewBox="0 0 29 32" fill="none" xmlns="http://www.w3.org/2000/svg">
<path opacity="0.5" d="M0.859863 13.7593C0.859863 8.96288 0.859863 6.5647 1.42614 5.75789C1.99241 4.95109 4.24735 4.17921 8.75723 2.63547L9.61645 2.34135C11.9673 1.53664 13.1428 1.13428 14.3599 1.13428C15.5769 1.13428 16.7524 1.53664 19.1033 2.34135L19.9625 2.63547C24.4724 4.17921 26.7273 4.95109 27.2936 5.75789C27.8599 6.5647 27.8599 8.96288 27.8599 13.7593C27.8599 14.4837 27.8599 15.2694 27.8599 16.1213C27.8599 24.5784 21.5014 28.6825 17.512 30.4252C16.4298 30.8979 15.8888 31.1343 14.3599 31.1343C12.831 31.1343 12.2899 30.8979 11.2077 30.4252C7.21831 28.6825 0.859863 24.5784 0.859863 16.1213C0.859863 15.2694 0.859863 14.4837 0.859863 13.7593Z" stroke="#FF3257" stroke-width="1.5"/>
<path d="M14.3599 10.1343V16.1343" stroke="#FF3257" stroke-width="1.5" stroke-linecap="round"/>
<circle cx="14.3599" cy="20.6343" r="1.5" fill="#FF3257"/>
</svg>
