<svg width="40" height="41" viewBox="0 0 40 41" fill="none" xmlns="http://www.w3.org/2000/svg">
<path opacity="0.5" d="M5 3.61536V36.9487" stroke="#1C274C" stroke-width="1.5" stroke-linecap="round"/>
<path d="M11.6665 12.782C11.6665 11.2243 11.6665 10.4455 12.0014 9.86536C12.2209 9.48531 12.5365 9.16971 12.9165 8.95029C13.4966 8.61536 14.2755 8.61536 15.8332 8.61536H30.8332C32.3909 8.61536 33.1697 8.61536 33.7498 8.95029C34.1299 9.16971 34.4455 9.48531 34.6649 9.86536C34.9998 10.4455 34.9998 11.2243 34.9998 12.782C34.9998 14.3397 34.9998 15.1186 34.6649 15.6987C34.4455 16.0787 34.1299 16.3943 33.7498 16.6138C33.1697 16.9487 32.3909 16.9487 30.8332 16.9487H15.8332C14.2755 16.9487 13.4966 16.9487 12.9165 16.6138C12.5365 16.3943 12.2209 16.0787 12.0014 15.6987C11.6665 15.1186 11.6665 14.3397 11.6665 12.782Z" stroke="#1C274C" stroke-width="1.5"/>
<path d="M11.6665 27.782C11.6665 26.2243 11.6665 25.4455 12.0014 24.8654C12.2209 24.4853 12.5365 24.1697 12.9165 23.9503C13.4966 23.6154 14.2755 23.6154 15.8332 23.6154H25.8332C27.3909 23.6154 28.1697 23.6154 28.7498 23.9503C29.1299 24.1697 29.4455 24.4853 29.6649 24.8654C29.9998 25.4455 29.9998 26.2243 29.9998 27.782C29.9998 29.3397 29.9998 30.1186 29.6649 30.6987C29.4455 31.0787 29.1299 31.3943 28.7498 31.6138C28.1697 31.9487 27.3909 31.9487 25.8332 31.9487H15.8332C14.2755 31.9487 13.4966 31.9487 12.9165 31.6138C12.5365 31.3943 12.2209 31.0787 12.0014 30.6987C11.6665 30.1186 11.6665 29.3397 11.6665 27.782Z" stroke="#1C274C" stroke-width="1.5"/>
</svg>
