<svg width="23" height="31" viewBox="0 0 23 31" fill="none" xmlns="http://www.w3.org/2000/svg">
<path d="M16.1272 30.8046L11.7389 29.0388C11.4604 28.9268 11.1493 28.9268 10.8707 29.0388L6.48298 30.8046C6.30617 30.8757 6.11462 30.9023 5.92512 30.8821C5.73562 30.862 5.55396 30.7957 5.39606 30.689C5.23816 30.5823 5.10884 30.4385 5.01944 30.2702C4.93005 30.1019 4.8833 29.9142 4.8833 29.7236V13.2612H17.7274V29.7236C17.7275 29.9143 17.6807 30.102 17.5913 30.2704C17.5019 30.4387 17.3725 30.5826 17.2145 30.6893C17.0566 30.796 16.8748 30.8623 16.6852 30.8824C16.4957 30.9025 16.304 30.8758 16.1272 30.8046Z" fill="#C0C6D1"/>
<path d="M22.5221 12.1499C22.5221 13.5977 21.1112 14.7546 20.5914 16.014C20.0487 17.3191 20.2072 19.1288 19.2234 20.1125C18.2396 21.0963 16.4304 20.939 15.1254 21.48C13.8654 22.002 12.7085 23.4107 11.2608 23.4107C9.81304 23.4107 8.65614 21.9998 7.39615 21.48C6.09111 20.9374 4.28143 21.0958 3.29818 20.1125C2.31493 19.1293 2.47012 17.3191 1.9302 16.014C1.40819 14.7551 -0.000488281 13.5977 -0.000488281 12.1499C-0.000488281 10.7022 1.41036 9.5453 1.9302 8.28531C2.47283 6.98299 2.31439 5.17059 3.29818 4.1868C4.28197 3.203 6.09111 3.36037 7.39615 2.81936C8.65614 2.29952 9.81304 0.888672 11.2608 0.888672C12.7085 0.888672 13.8654 2.29952 15.1254 2.81936C16.4277 3.362 18.2401 3.20355 19.2234 4.1868C20.2066 5.17005 20.0514 6.98028 20.5941 8.28531C21.1134 9.54422 22.5221 10.7017 22.5221 12.1499Z" fill="#DDDDDD"/>
<path d="M11.261 19.6005C15.376 19.6005 18.7119 16.2647 18.7119 12.1496C18.7119 8.03461 15.376 4.69873 11.261 4.69873C7.14594 4.69873 3.81006 8.03461 3.81006 12.1496C3.81006 16.2647 7.14594 19.6005 11.261 19.6005Z" fill="#F6F7F8"/>
</svg>
