<svg width="23" height="31" viewBox="0 0 23 31" fill="none" xmlns="http://www.w3.org/2000/svg">
<path d="M16.1272 30.8046L11.7389 29.0388C11.4604 28.9268 11.1493 28.9268 10.8707 29.0388L6.48298 30.8046C6.30617 30.8757 6.11462 30.9023 5.92512 30.8821C5.73562 30.862 5.55396 30.7957 5.39606 30.689C5.23816 30.5823 5.10884 30.4385 5.01944 30.2702C4.93005 30.1019 4.8833 29.9142 4.8833 29.7236V13.2612H17.7274V29.7236C17.7275 29.9143 17.6807 30.102 17.5913 30.2704C17.5019 30.4387 17.3725 30.5826 17.2145 30.6893C17.0566 30.796 16.8748 30.8623 16.6852 30.8824C16.4957 30.9025 16.304 30.8758 16.1272 30.8046Z" fill="#C0C6D1"/>
<path d="M22.5221 12.1499C22.5221 13.5977 21.1112 14.7546 20.5914 16.014C20.0487 17.3191 20.2072 19.1288 19.2234 20.1125C18.2396 21.0963 16.4304 20.939 15.1254 21.48C13.8654 22.002 12.7085 23.4107 11.2608 23.4107C9.81304 23.4107 8.65614 21.9998 7.39615 21.48C6.09111 20.9374 4.28143 21.0958 3.29818 20.1125C2.31493 19.1293 2.47012 17.3191 1.9302 16.014C1.40819 14.7551 -0.000488281 13.5977 -0.000488281 12.1499C-0.000488281 10.7022 1.41036 9.5453 1.9302 8.28531C2.47283 6.98299 2.31439 5.17059 3.29818 4.1868C4.28197 3.203 6.09111 3.36037 7.39615 2.81936C8.65614 2.29952 9.81304 0.888672 11.2608 0.888672C12.7085 0.888672 13.8654 2.29952 15.1254 2.81936C16.4277 3.362 18.2401 3.20355 19.2234 4.1868C20.2066 5.17005 20.0514 6.98028 20.5941 8.28531C21.1134 9.54422 22.5221 10.7017 22.5221 12.1499Z" fill="#5F9CE3"/>
<path d="M11.261 19.6005C15.376 19.6005 18.7119 16.2647 18.7119 12.1496C18.7119 8.03461 15.376 4.69873 11.261 4.69873C7.14594 4.69873 3.81006 8.03461 3.81006 12.1496C3.81006 16.2647 7.14594 19.6005 11.261 19.6005Z" fill="#F6F7F8"/>
<path d="M11.9424 8.10275L12.6853 9.60693C12.7397 9.71749 12.8202 9.81315 12.9198 9.88566C13.0195 9.95817 13.1353 10.0053 13.2572 10.0231L14.9177 10.2641C15.0582 10.2842 15.1903 10.3433 15.299 10.4347C15.4076 10.5261 15.4885 10.6462 15.5324 10.7812C15.5763 10.9162 15.5815 11.0609 15.5473 11.1987C15.5132 11.3365 15.4411 11.462 15.3393 11.561L14.1368 12.732C14.0488 12.8181 13.983 12.9244 13.9452 13.0416C13.9074 13.1588 13.8987 13.2835 13.9198 13.4048L14.203 15.0582C14.2272 15.198 14.2117 15.3418 14.1583 15.4733C14.1049 15.6047 14.0158 15.7186 13.9011 15.8021C13.7863 15.8855 13.6505 15.9351 13.509 15.9453C13.3674 15.9555 13.2259 15.9258 13.1004 15.8597L11.6146 15.0788C11.5058 15.0218 11.3848 14.992 11.2619 14.992C11.1391 14.992 11.018 15.0218 10.9092 15.0788L9.42404 15.8597C9.2985 15.9258 9.15697 15.9555 9.01545 15.9453C8.87394 15.9351 8.73811 15.8855 8.62334 15.8021C8.50857 15.7186 8.41946 15.6047 8.3661 15.4733C8.31274 15.3418 8.29725 15.198 8.32141 15.0582L8.60195 13.4048C8.62302 13.2835 8.61428 13.1588 8.57647 13.0416C8.53865 12.9244 8.47291 12.8181 8.38489 12.732L7.18296 11.561C7.08112 11.462 7.00904 11.3365 6.97491 11.1987C6.94078 11.0609 6.94596 10.9162 6.98986 10.7812C7.03376 10.6462 7.11462 10.5261 7.22328 10.4347C7.33193 10.3433 7.46403 10.2842 7.60459 10.2641L9.26504 10.0231C9.38698 10.0053 9.50277 9.95817 9.60241 9.88566C9.70205 9.81315 9.78255 9.71749 9.83698 9.60693L10.5798 8.10275C10.6426 7.97562 10.7396 7.86857 10.86 7.79372C10.9804 7.71887 11.1194 7.6792 11.2611 7.6792C11.4029 7.6792 11.5418 7.71887 11.6622 7.79372C11.7826 7.86857 11.8797 7.97562 11.9424 8.10275Z" fill="#37A1F7"/>
</svg>
