<svg width="17" height="17" viewBox="0 0 17 17" fill="none" xmlns="http://www.w3.org/2000/svg">
<path opacity="0.5" fill-rule="evenodd" clip-rule="evenodd" d="M12.6361 8.10894C10.9391 8.10894 10.0905 8.10894 9.56334 7.58173C9.03613 7.05452 9.03613 6.20599 9.03613 4.50894C9.03613 2.81188 9.03613 1.96335 9.56334 1.43614C10.0905 0.908936 10.9391 0.908936 12.6361 0.908936C14.3332 0.908936 15.1817 0.908936 15.7089 1.43614C16.2361 1.96335 16.2361 2.81188 16.2361 4.50894C16.2361 6.20599 16.2361 7.05452 15.7089 7.58173C15.1817 8.10894 14.3332 8.10894 12.6361 8.10894ZM13.2361 2.90894C13.2361 2.57756 12.9675 2.30894 12.6361 2.30894C12.3048 2.30894 12.0361 2.57756 12.0361 2.90894V3.90894H11.0361C10.7048 3.90894 10.4361 4.17756 10.4361 4.50894C10.4361 4.84031 10.7048 5.10894 11.0361 5.10894H12.0361V6.10894C12.0361 6.44031 12.3048 6.70894 12.6361 6.70894C12.9675 6.70894 13.2361 6.44031 13.2361 6.10894V5.10894H14.2361C14.5675 5.10894 14.8361 4.84031 14.8361 4.50894C14.8361 4.17756 14.5675 3.90894 14.2361 3.90894H13.2361V2.90894Z" fill="#1C274C"/>
<path d="M16.2357 9.46722C16.2345 10.6429 16.2255 11.6421 16.1587 12.4621C16.0812 13.4135 15.9223 14.2086 15.5667 14.8689C15.4099 15.1602 15.2172 15.421 14.9825 15.6556C14.3166 16.3215 13.4682 16.6232 12.3931 16.7677C11.3427 16.909 9.99641 16.9089 8.27854 16.9089H8.19314C6.47527 16.9089 5.12901 16.909 4.0786 16.7677C3.00345 16.6232 2.15506 16.3215 1.48915 15.6556C0.898804 15.0653 0.593941 14.3305 0.431822 13.419C0.272565 12.5236 0.243432 11.4096 0.23738 10.0263C0.23584 9.67445 0.23584 9.3023 0.23584 8.90968V8.86624C0.235831 7.14837 0.235823 5.8021 0.377047 4.75169C0.521597 3.67654 0.823246 2.82815 1.48915 2.16225C2.15506 1.49634 3.00345 1.19469 4.0786 1.05014C5.01273 0.924551 6.21461 0.910655 7.67746 0.909124C7.98571 0.908802 8.23584 1.15882 8.23584 1.46707C8.23584 1.77533 7.9856 2.02509 7.67735 2.02542C6.19383 2.02699 5.08985 2.04051 4.22734 2.15647C3.27597 2.28438 2.70241 2.52764 2.27848 2.95158C1.85455 3.37551 1.61128 3.94906 1.48337 4.90043C1.3533 5.86786 1.35212 7.13909 1.35212 8.90894C1.35212 9.12507 1.35212 9.33409 1.35237 9.53647L2.09741 8.88458C2.77556 8.2912 3.79764 8.32523 4.43482 8.96241L7.62717 12.1548C8.1386 12.6662 8.94366 12.7359 9.53541 12.3201L9.75732 12.1641C10.6089 11.5657 11.7609 11.635 12.5345 12.3312L14.641 14.227C14.853 13.7818 14.9789 13.1967 15.0461 12.3714C15.1095 11.5938 15.1182 10.6493 15.1194 9.46724C15.1197 9.15899 15.3694 8.90894 15.6777 8.90894C15.986 8.90894 16.236 9.15896 16.2357 9.46722Z" fill="#1C274C"/>
</svg>
