<svg width="23" height="23" viewBox="0 0 23 23" fill="none" xmlns="http://www.w3.org/2000/svg">
<path fill-rule="evenodd" clip-rule="evenodd" d="M17.3157 10.0084C14.9823 10.0084 13.8155 10.0084 13.0906 9.28349C12.3657 8.55858 12.3657 7.39185 12.3657 5.0584C12.3657 2.72495 12.3657 1.55822 13.0906 0.833309C13.8155 0.108398 14.9823 0.108398 17.3157 0.108398C19.6492 0.108398 20.8159 0.108398 21.5408 0.833309C22.2657 1.55822 22.2657 2.72495 22.2657 5.0584C22.2657 7.39185 22.2657 8.55858 21.5408 9.28349C20.8159 10.0084 19.6492 10.0084 17.3157 10.0084ZM18.1407 2.8584C18.1407 2.40276 17.7714 2.0334 17.3157 2.0334C16.8601 2.0334 16.4907 2.40276 16.4907 2.8584V4.2334H15.1157C14.6601 4.2334 14.2907 4.60276 14.2907 5.0584C14.2907 5.51403 14.6601 5.8834 15.1157 5.8834H16.4907V7.2584C16.4907 7.71403 16.8601 8.0834 17.3157 8.0834C17.7714 8.0834 18.1407 7.71403 18.1407 7.2584V5.8834H19.5157C19.9714 5.8834 20.3407 5.51403 20.3407 5.0584C20.3407 4.60276 19.9714 4.2334 19.5157 4.2334H18.1407V2.8584Z" fill="white"/>
<path d="M22.2654 11.876C22.2637 13.4926 22.2514 14.8665 22.1596 15.994C22.053 17.3022 21.8345 18.3954 21.3456 19.3034C21.13 19.7038 20.865 20.0625 20.5423 20.3851C19.6267 21.3007 18.4602 21.7155 16.9818 21.9142C15.5375 22.1084 13.6864 22.1084 11.3243 22.1084H11.2069C8.84484 22.1084 6.99373 22.1084 5.54942 21.9142C4.07108 21.7155 2.90455 21.3007 1.98893 20.3851C1.1772 19.5734 0.758014 18.5631 0.535101 17.3098C0.316122 16.0786 0.276064 14.5469 0.267742 12.6448C0.265625 12.161 0.265625 11.6493 0.265625 11.1094V11.0497C0.265612 8.68761 0.265602 6.8365 0.459785 5.39219C0.658541 3.91386 1.07331 2.74732 1.98893 1.8317C2.90455 0.916082 4.07108 0.501315 5.54942 0.302558C6.83385 0.12987 8.48644 0.110763 10.4979 0.108658C10.9217 0.108214 11.2656 0.451993 11.2656 0.875839C11.2656 1.29969 10.9215 1.64312 10.4977 1.64356C8.45787 1.64572 6.93988 1.66431 5.75394 1.82375C4.4458 1.99963 3.65716 2.33412 3.07425 2.91703C2.49135 3.49993 2.15686 4.28858 1.98098 5.59671C1.80214 6.92692 1.80051 8.67487 1.80051 11.1084C1.80051 11.4056 1.80051 11.693 1.80086 11.9713L2.82528 11.0749C3.75774 10.259 5.1631 10.3058 6.03922 11.1819L10.4287 15.5714C11.1319 16.2746 12.2389 16.3705 13.0525 15.7987L13.3577 15.5842C14.5285 14.7614 16.1126 14.8567 17.1763 15.8141L20.0727 18.4208C20.3642 17.8085 20.5373 17.0041 20.6297 15.8693C20.7169 14.8001 20.7288 13.5014 20.7305 11.8761C20.7309 11.4522 21.0743 11.1084 21.4982 11.1084C21.922 11.1084 22.2658 11.4522 22.2654 11.876Z" fill="#1C274C"/>
</svg>
