<svg width="19" height="19" viewBox="0 0 19 19" fill="none" xmlns="http://www.w3.org/2000/svg">
<g opacity="0.5">
<path d="M9.5 15.875C9.5 17.0486 8.54861 18 7.375 18C6.20139 18 5.25 17.0486 5.25 15.875C5.25 14.7014 6.20139 13.75 7.375 13.75C8.54861 13.75 9.5 14.7014 9.5 15.875Z" stroke="#1C274C"/>
<path d="M18 14.175C18 15.3487 17.0486 16.3 15.875 16.3C14.7014 16.3 13.75 15.3487 13.75 14.175C13.75 13.0014 14.7014 12.05 15.875 12.05C17.0486 12.05 18 13.0014 18 14.175Z" stroke="#1C274C"/>
<path d="M18 6.1001L9.5 9.5001" stroke="#1C274C" stroke-linecap="round"/>
<path d="M11.5873 3.68403L11.7803 4.14526L11.5873 3.68403ZM13.2873 2.9725L13.0942 2.51127L13.2873 2.9725ZM17.2419 2.13921L16.9648 2.55545L16.9648 2.55545L17.2419 2.13921ZM10 15.45V6.8204H9V15.45H10ZM18.5 13.8808V6.10887H17.5V13.8808H18.5ZM11.7803 4.14526L13.4803 3.43373L13.0942 2.51127L11.3942 3.2228L11.7803 4.14526ZM18.5 6.10887C18.5 4.97033 18.5013 4.05965 18.3998 3.37379C18.2969 2.67824 18.0721 2.09116 17.5189 1.72296L16.9648 2.55545C17.1697 2.69181 17.324 2.93452 17.4106 3.52014C17.4987 4.11546 17.5 4.93734 17.5 6.10887H18.5ZM13.4803 3.43373C14.561 2.98142 15.3197 2.66531 15.9028 2.5167C16.4765 2.37052 16.76 2.4191 16.9648 2.55545L17.5189 1.72296C16.9656 1.35476 16.3373 1.37404 15.6559 1.54767C14.9841 1.71888 14.1445 2.07169 13.0942 2.51127L13.4803 3.43373ZM10 6.8204C10 6.26109 10.0007 5.88141 10.0327 5.58689C10.0633 5.30452 10.1189 5.1475 10.201 5.02419L9.36851 4.47015C9.16582 4.77472 9.07904 5.10587 9.03852 5.47891C8.99932 5.83982 9 6.28281 9 6.8204H10ZM11.3942 3.2228C10.8983 3.43036 10.4894 3.60077 10.1716 3.77627C9.84317 3.95768 9.57121 4.16558 9.36851 4.47015L10.201 5.02419C10.2831 4.90087 10.4065 4.78896 10.6551 4.65165C10.9144 4.50843 11.2644 4.36121 11.7803 4.14526L11.3942 3.2228Z" fill="#1C274C"/>
<path d="M5.25 8.65V1C5.25 2.76041 6.74376 3.55 7.8 3.55M5.25 8.225C5.25 9.39861 4.29861 10.35 3.125 10.35C1.95139 10.35 1 9.39861 1 8.225C1 7.0514 1.95139 6.1 3.125 6.1C4.29861 6.1 5.25 7.0514 5.25 8.225Z" stroke="#5F9CE3" stroke-linecap="round" stroke-linejoin="round"/>
</g>
</svg>
