<svg width="16" height="17" viewBox="0 0 16 17" fill="none" xmlns="http://www.w3.org/2000/svg">
<path d="M8.55352 9.28699L14.8791 6.75675V10.9636C14.5032 10.7229 14.0563 10.5834 13.5768 10.5834C12.241 10.5834 11.1582 11.6662 11.1582 13.002C11.1582 14.3377 12.241 15.4206 13.5768 15.4206C14.9125 15.4206 15.9954 14.3377 15.9954 13.002C15.9954 13.0019 15.9954 13.002 15.9954 13.002L15.9954 5.89219C15.9954 5.04171 15.9954 4.32844 15.9355 3.76014C15.9271 3.67983 15.9171 3.59998 15.906 3.52547C15.8484 3.13722 15.7465 2.77503 15.5499 2.47258C15.4516 2.32136 15.3296 2.18507 15.1776 2.06793C15.1491 2.04596 15.1195 2.02467 15.0889 2.00408L15.0827 1.99997C14.5564 1.6497 13.9647 1.67475 13.3552 1.83006C12.7658 1.98027 12.035 2.28616 11.1389 2.66126L9.58048 3.31351C9.16042 3.48931 8.80454 3.63824 8.52522 3.79251C8.22802 3.95664 7.97203 4.15022 7.78004 4.43869C7.58806 4.72717 7.50833 5.03805 7.47167 5.37557C7.43721 5.6928 7.43722 6.07858 7.43724 6.53392V12.4519C7.06131 12.2113 6.61441 12.0717 6.13491 12.0717C4.79915 12.0717 3.71631 13.1546 3.71631 14.4903C3.71631 15.8261 4.79915 16.9089 6.13491 16.9089C7.47067 16.9089 8.55352 15.8261 8.55352 14.4903C8.55352 14.4903 8.55352 14.4904 8.55352 14.4903L8.55352 9.28699Z" fill="#1C274C"/>
<path opacity="0.5" d="M4.83281 1.46708C4.83281 1.15882 4.58293 0.908936 4.27468 0.908936C3.96642 0.908936 3.71654 1.15882 3.71654 1.46708V5.75426C3.34061 5.51359 2.8937 5.37405 2.41421 5.37405C1.07845 5.37405 -0.00439453 6.4569 -0.00439453 7.79266C-0.00439453 9.12842 1.07845 10.2113 2.41421 10.2113C3.74997 10.2113 4.83281 9.12842 4.83281 7.79266V3.70298C5.35264 4.07852 5.97108 4.25777 6.50723 4.25777C6.81549 4.25777 7.06537 4.00789 7.06537 3.69963C7.06537 3.39138 6.81549 3.14149 6.50723 3.14149C6.16911 3.14149 5.73797 3.01044 5.39958 2.73098C5.0772 2.46473 4.83281 2.06082 4.83281 1.46708Z" fill="#1C274C"/>
</svg>
