<svg width="23" height="23" viewBox="0 0 23 23" fill="none" xmlns="http://www.w3.org/2000/svg">
<path d="M11.8626 11.6282L20.5603 8.14915V13.9335C20.0434 13.6026 19.4289 13.4107 18.7696 13.4107C16.9329 13.4107 15.444 14.8996 15.444 16.7363C15.444 18.573 16.9329 20.0619 18.7696 20.0619C20.6062 20.0619 22.0951 18.573 22.0951 16.7363C22.0951 16.7363 22.0951 16.7364 22.0951 16.7363L22.0951 6.96038C22.0952 5.79096 22.0952 4.81022 22.0129 4.02881C22.0012 3.91837 21.9875 3.80858 21.9723 3.70614C21.8931 3.17229 21.753 2.67428 21.4826 2.25841C21.3474 2.05048 21.1797 1.86308 20.9706 1.70201C20.9315 1.67181 20.8908 1.64253 20.8487 1.61422L20.8402 1.60857C20.1165 1.12695 19.303 1.16139 18.4649 1.37495C17.6544 1.58149 16.6496 2.00209 15.4174 2.51784L13.2747 3.41469C12.6971 3.65641 12.2077 3.8612 11.8237 4.07331C11.415 4.29899 11.063 4.56517 10.7991 4.96182C10.5351 5.35847 10.4255 5.78593 10.375 6.25003C10.3277 6.68621 10.3277 7.21666 10.3277 7.84276V15.98C9.81081 15.6491 9.19631 15.4572 8.53701 15.4572C6.70034 15.4572 5.21143 16.9461 5.21143 18.7828C5.21143 20.6195 6.70034 22.1084 8.53701 22.1084C10.3737 22.1084 11.8626 20.6195 11.8626 18.7828C11.8626 18.7828 11.8626 18.7829 11.8626 18.7828L11.8626 11.6282Z" fill="#1C274C"/>
<path d="M6.74638 0.87584C6.74638 0.451994 6.40278 0.108398 5.97894 0.108398C5.55509 0.108398 5.21149 0.451994 5.21149 0.87584V6.77072C4.6946 6.43979 4.0801 6.24793 3.4208 6.24793C1.58413 6.24793 0.0952148 7.73685 0.0952148 9.57351C0.0952148 11.4102 1.58413 12.8991 3.4208 12.8991C5.25746 12.8991 6.74638 11.4102 6.74638 9.57351V3.95022C7.46114 4.46658 8.31149 4.71305 9.0487 4.71305C9.47255 4.71305 9.81614 4.36945 9.81614 3.94561C9.81614 3.52176 9.47255 3.17817 9.0487 3.17817C8.58378 3.17817 7.99097 2.99796 7.52568 2.6137C7.08241 2.24762 6.74638 1.69224 6.74638 0.87584Z" fill="white"/>
</svg>
