<svg width="35" height="36" viewBox="0 0 35 36" fill="none" xmlns="http://www.w3.org/2000/svg">
<path d="M13.774 8.53389L24.4239 3.20302C24.856 2.98703 25.4028 3.20996 25.4887 3.63777L27.1457 11.8396C27.3605 12.9029 28.123 13.8217 29.214 14.3315L26.5862 1.32235C26.4994 0.894549 25.9527 0.670925 25.5214 0.887604L11.1938 8.05886C11.7907 8.76655 12.9009 8.97072 13.774 8.53389Z" fill="#EBECED"/>
<path d="M9.06774 33.7862C12.154 32.8063 13.8771 30.1438 12.9162 27.8392C11.9554 25.5346 8.67452 24.4607 5.58823 25.4406C2.50193 26.4205 0.778915 29.0831 1.73976 31.3876C2.7006 33.6922 5.98145 34.7661 9.06774 33.7862Z" fill="#1BC469"/>
<path d="M26.1576 24.4893C29.2439 23.5095 30.9669 20.8469 30.0061 18.5423C29.0452 16.2377 25.7644 15.1639 22.6781 16.1437C19.5918 17.1236 17.8688 19.7862 18.8296 22.0908C19.7904 24.3953 23.0713 25.4692 26.1576 24.4893Z" fill="#1BC469"/>
<path d="M10.18 14.0537C9.32684 14.4808 8.87241 15.3281 9.04352 16.1733L9.91417 20.4819C10.2094 21.941 11.0355 23.2716 12.2412 24.3147L12.2563 24.3279L10.18 14.0537Z" fill="#EBECED"/>
<path d="M25.1473 7.31086C25.1027 7.0921 24.9396 6.90598 24.7088 6.81153C24.4788 6.71777 24.209 6.7275 23.9885 6.83792L10.3582 13.6612C10.0733 13.8036 9.92047 14.089 9.97697 14.371L12.2658 25.6981C12.2897 25.8161 12.4075 25.8988 12.5396 25.8988C12.5555 25.8988 12.5722 25.8974 12.5881 25.8953C12.7393 25.8717 12.8404 25.746 12.8141 25.614L10.5253 14.287C10.5086 14.2057 10.5532 14.1238 10.6343 14.0828L24.2655 7.25947C24.3299 7.22753 24.4048 7.22475 24.4724 7.25183C24.5392 7.27892 24.5854 7.3317 24.5981 7.3949L26.1277 14.9634C26.1548 15.0954 26.2988 15.1836 26.4501 15.1606C26.6013 15.137 26.7023 15.0113 26.6761 14.8794L25.1473 7.31086Z" fill="#2A3853"/>
<path d="M29.899 16.3197L26.8605 1.27989C26.804 1.0014 26.5955 0.76319 26.301 0.643044C26.0073 0.522898 25.6635 0.535399 25.3818 0.676379L6.82441 9.96582C6.4615 10.1478 6.26573 10.5117 6.33894 10.8714L9.044 24.2583C9.06788 24.3764 9.18566 24.459 9.31777 24.459C9.33369 24.459 9.3504 24.4577 9.36632 24.4556C9.51753 24.432 9.6186 24.3063 9.59234 24.1743L6.88728 10.7874C6.85544 10.6284 6.9414 10.4679 7.10136 10.3874L25.6595 1.09793C25.7853 1.03473 25.9333 1.02918 26.0646 1.08335C26.1959 1.13682 26.2859 1.23961 26.3113 1.36461L29.3507 16.4044C29.3777 16.5364 29.5218 16.6245 29.673 16.6016C29.825 16.578 29.926 16.4523 29.899 16.3197Z" fill="#2A3853"/>
<path d="M0.512953 10.6603C0.361744 10.6603 0.237593 10.5541 0.23441 10.4214C0.232022 10.2874 0.353785 10.1763 0.508178 10.1742L2.58054 10.1422C2.73255 10.1374 2.86148 10.2464 2.86386 10.3811C2.86625 10.5152 2.74449 10.6263 2.5901 10.6284L0.517728 10.6603C0.516137 10.6603 0.514545 10.6603 0.512953 10.6603Z" fill="#1BC469"/>
<path d="M6.07264 6.37369C5.99067 6.37369 5.90949 6.34244 5.85458 6.28202L4.56293 4.86804C4.46663 4.76318 4.48653 4.61039 4.6075 4.52636C4.72767 4.44232 4.90275 4.45969 4.99905 4.56525L6.2907 5.97922C6.387 6.08409 6.3671 6.23687 6.24613 6.32091C6.1944 6.35633 6.13312 6.37369 6.07264 6.37369Z" fill="#1BC469"/>
<path d="M34.721 26.454C34.6701 26.454 34.6184 26.4422 34.573 26.4165L32.8206 25.4512C32.6909 25.3797 32.6519 25.2297 32.7338 25.1158C32.8158 25.0019 32.9877 24.9685 33.1182 25.0401L34.8707 26.0054C35.0004 26.0769 35.0394 26.2269 34.9574 26.3408C34.9041 26.4138 34.8142 26.454 34.721 26.454Z" fill="#1BC469"/>
<path d="M27.5675 29.1765C27.425 29.1765 27.3041 29.082 27.2906 28.9556L27.1003 27.1548C27.086 27.0215 27.199 26.9027 27.3518 26.8902C27.5054 26.8777 27.6407 26.9763 27.655 27.1097L27.8453 28.9105C27.8596 29.0438 27.7466 29.1626 27.5938 29.1751C27.585 29.1765 27.5763 29.1765 27.5675 29.1765Z" fill="#1BC469"/>
</svg>
