<svg width="22" height="22" viewBox="0 0 22 22" fill="none" xmlns="http://www.w3.org/2000/svg">
<path d="M10.9956 6.02979L10.9956 16.0298" stroke="#5F9CE3" stroke-width="1.5" stroke-linecap="round"/>
<path d="M15.9956 9.02979L15.9956 13.0298" stroke="#5F9CE3" stroke-width="1.5" stroke-linecap="round"/>
<path d="M5.99561 8.02979L5.99561 14.0298" stroke="#5F9CE3" stroke-width="1.5" stroke-linecap="round"/>
<path opacity="0.5" d="M20.9956 11.0298C20.9956 13.0076 20.4091 14.941 19.3103 16.5855C18.2115 18.23 16.6497 19.5117 14.8224 20.2686C12.9952 21.0255 10.9845 21.2235 9.0447 20.8376C7.10489 20.4518 5.32306 19.4994 3.92454 18.1009C2.52601 16.7023 1.5736 14.9205 1.18775 12.9807C0.8019 11.0409 0.999934 9.03021 1.75681 7.20295C2.51369 5.37569 3.79541 3.8139 5.4399 2.71509C7.08439 1.61628 9.01779 1.02979 10.9956 1.02979" stroke="#5F9CE3" stroke-width="1.5" stroke-linecap="round"/>
<path d="M13.4956 1.34473C17.0096 2.24917 19.7761 5.01566 20.6806 8.52968" stroke="#5F9CE3" stroke-width="1.5" stroke-linecap="round"/>
</svg>
