<svg width="22" height="22" viewBox="0 0 22 22" fill="none" xmlns="http://www.w3.org/2000/svg">
<circle opacity="0.5" cx="10.9956" cy="11.0298" r="10" stroke="#1C274C" stroke-width="1.5"/>
<path d="M12.8832 8.96459C13.9581 9.84147 14.4956 10.2799 14.4956 11.0298C14.4956 11.7797 13.9581 12.2181 12.8832 13.095C12.5865 13.337 12.2922 13.565 12.0217 13.7549C11.7845 13.9215 11.5157 14.0938 11.2375 14.263C10.1651 14.9151 9.62893 15.2412 9.14802 14.8802C8.66711 14.5192 8.6234 13.7634 8.53599 12.2519C8.51127 11.8245 8.49561 11.4054 8.49561 11.0298C8.49561 10.6541 8.51127 10.2351 8.53599 9.80763C8.6234 8.29614 8.66711 7.54039 9.14802 7.17938C9.62893 6.81837 10.1651 7.14444 11.2375 7.79658C11.5157 7.96575 11.7845 8.13809 12.0217 8.3047C12.2922 8.49462 12.5865 8.72252 12.8832 8.96459Z" stroke="#1C274C" stroke-width="1.5"/>
</svg>
