<svg width="21" height="18" viewBox="0 0 21 18" fill="none" xmlns="http://www.w3.org/2000/svg">
<path opacity="0.5" d="M2.27828 12.1016C1.48501 11.071 1.08838 10.5557 1.08838 9.02563C1.08838 7.49554 1.48501 6.98025 2.27828 5.94967C3.86221 3.89188 6.51862 1.55896 10.4217 1.55896C14.3248 1.55896 16.9812 3.89188 18.5651 5.94967C19.3584 6.98025 19.755 7.49554 19.755 9.02563C19.755 10.5557 19.3584 11.071 18.5651 12.1016C16.9812 14.1594 14.3248 16.4923 10.4217 16.4923C6.51862 16.4923 3.86221 14.1594 2.27828 12.1016Z" stroke="#1C274C" stroke-width="1.5"/>
<path d="M13.2221 9.02571C13.2221 10.5721 11.9685 11.8257 10.4221 11.8257C8.87567 11.8257 7.62207 10.5721 7.62207 9.02571C7.62207 7.47931 8.87567 6.22571 10.4221 6.22571C11.9685 6.22571 13.2221 7.47931 13.2221 9.02571Z" stroke="#1C274C" stroke-width="1.5"/>
</svg>
