<svg width="31" height="31" viewBox="0 0 31 31" fill="none" xmlns="http://www.w3.org/2000/svg">
<path opacity="0.5" d="M0.47168 12.1699C0.47168 8.02779 3.82954 4.66992 7.97168 4.66992C8.34746 4.66992 8.71678 4.69756 9.07772 4.75091C9.9811 2.08701 12.5025 0.169922 15.4717 0.169922C18.4408 0.169922 20.9623 2.08701 21.8656 4.75091C22.2266 4.69756 22.5959 4.66992 22.9717 4.66992C27.1138 4.66992 30.4717 8.02779 30.4717 12.1699C30.4717 15.2454 28.6205 17.8885 25.9717 19.0459L25.9717 24.1699C25.9717 26.9983 25.9717 28.4126 25.093 29.2912C24.2143 30.1699 22.8001 30.1699 19.9717 30.1699H10.9717C8.14325 30.1699 6.72904 30.1699 5.85036 29.2912C4.97168 28.4126 4.97168 26.9983 4.97168 24.1699V19.0459C2.32282 17.8885 0.47168 15.2454 0.47168 12.1699Z" fill="#1C274C"/>
<path d="M10.9717 23.0449C10.3504 23.0449 9.84668 23.5486 9.84668 24.1699C9.84668 24.7912 10.3504 25.2949 10.9717 25.2949H19.9717C20.593 25.2949 21.0967 24.7912 21.0967 24.1699C21.0967 23.5486 20.593 23.0449 19.9717 23.0449H10.9717Z" fill="#1C274C"/>
</svg>
