<svg width="40" height="40" viewBox="0 0 40 40" fill="none" xmlns="http://www.w3.org/2000/svg">
<path opacity="0.5" d="M35 3.33337V36.6667" stroke="#1C274C" stroke-width="1.5" stroke-linecap="round"/>
<path d="M28.3333 12.5C28.3333 10.9423 28.3333 10.1635 27.9984 9.58337C27.779 9.20333 27.4634 8.88773 27.0833 8.66831C26.5032 8.33337 25.7244 8.33337 24.1667 8.33337H9.16667C7.60897 8.33337 6.83013 8.33337 6.25 8.66831C5.86995 8.88773 5.55436 9.20333 5.33494 9.58337C5 10.1635 5 10.9423 5 12.5C5 14.0577 5 14.8366 5.33494 15.4167C5.55436 15.7968 5.86995 16.1123 6.25 16.3318C6.83013 16.6667 7.60897 16.6667 9.16667 16.6667H24.1667C25.7244 16.6667 26.5032 16.6667 27.0833 16.3318C27.4634 16.1123 27.779 15.7968 27.9984 15.4167C28.3333 14.8366 28.3333 14.0577 28.3333 12.5Z" stroke="#1C274C" stroke-width="1.5"/>
<path d="M28.3333 27.5C28.3333 25.9423 28.3333 25.1635 27.9984 24.5834C27.779 24.2033 27.4634 23.8877 27.0833 23.6683C26.5032 23.3334 25.7244 23.3334 24.1667 23.3334H14.1667C12.609 23.3334 11.8301 23.3334 11.25 23.6683C10.87 23.8877 10.5544 24.2033 10.3349 24.5834C10 25.1635 10 25.9423 10 27.5C10 29.0577 10 29.8366 10.3349 30.4167C10.5544 30.7968 10.87 31.1123 11.25 31.3318C11.8301 31.6667 12.609 31.6667 14.1667 31.6667H24.1667C25.7244 31.6667 26.5032 31.6667 27.0833 31.3318C27.4634 31.1123 27.779 30.7968 27.9984 30.4167C28.3333 29.8366 28.3333 29.0577 28.3333 27.5Z" stroke="#1C274C" stroke-width="1.5"/>
</svg>
