<svg width="36" height="36" viewBox="0 0 36 36" fill="none" xmlns="http://www.w3.org/2000/svg">
<g opacity="0.5">
<path d="M27.6258 18.396C27.4614 18.396 27.297 18.3401 27.1874 18.1724L26.8038 17.6692C26.4202 17.166 26.3654 16.4951 26.6394 15.9359C26.749 15.7123 26.8586 15.4887 26.9134 15.2091C27.1326 14.5941 27.6258 14.2027 28.2834 14.0909L30.037 13.8113C30.311 13.7554 30.5302 13.5318 30.5302 13.2522V12.0222C30.5302 11.7427 30.311 11.519 30.037 11.4631L28.2834 11.1835C27.6806 11.0717 27.1326 10.6804 26.9134 10.0653C26.8586 9.8417 26.749 9.61805 26.6394 9.39441C26.3654 8.7794 26.4202 8.10847 26.8038 7.60528L27.8998 6.09569C28.0642 5.87205 28.0642 5.53659 27.845 5.36885L26.9682 4.5302C26.749 4.30655 26.4202 4.30655 26.201 4.47428L24.7762 5.53659C24.283 5.92796 23.5706 5.98387 23.0226 5.70432C22.8034 5.5925 22.5842 5.48067 22.365 5.42476C21.7622 5.20112 21.3238 4.69793 21.269 4.08291L20.995 2.29377C20.9402 2.01422 20.721 1.79058 20.447 1.79058H19.2415C18.9675 1.79058 18.6935 2.01422 18.6935 2.29377L18.4195 4.08291C18.3647 4.69793 17.9263 5.25703 17.3235 5.48067C17.1043 5.5925 16.8851 5.64841 16.6659 5.76023C16.0631 6.03978 15.4055 5.98387 14.9123 5.5925L13.4875 4.5302C13.2683 4.36246 12.9395 4.36246 12.7203 4.58611L11.8983 5.42476C11.6791 5.64841 11.6791 5.92796 11.8435 6.1516L12.9395 7.66119C13.3231 8.16438 13.3779 8.83531 13.1039 9.45032C12.9943 9.67397 12.9395 9.89761 12.8299 10.1772C12.6107 10.7922 12.1175 11.1835 11.4599 11.2954L9.70627 11.5749C9.43227 11.6308 9.21307 11.8545 9.21307 12.134V13.3641C9.21307 13.6436 9.43227 13.8673 9.70627 13.9232L11.4599 14.2027C12.0627 14.3145 12.6107 14.7059 12.8299 15.3209C12.9395 15.6005 12.9943 15.8241 13.1039 15.9919C13.2683 16.3273 13.3231 16.7187 13.2683 17.0542C13.2135 17.3896 12.9395 17.5574 12.6107 17.5014C12.2819 17.4455 12.1175 17.166 12.1723 16.8305C12.1723 16.7187 12.1723 16.6069 12.1175 16.4951C12.0079 16.2155 11.8983 15.9359 11.7887 15.7123C11.7339 15.4887 11.5147 15.3768 11.3503 15.3209L9.59667 15.0414C8.77467 14.9296 8.17188 14.2027 8.17188 13.3081V12.0781C8.17188 11.2395 8.77467 10.5126 9.59667 10.3449L11.3503 10.0653C11.5695 10.0094 11.7339 9.89761 11.7887 9.67396C11.8983 9.39441 12.0079 9.11486 12.1175 8.89122C12.2271 8.72349 12.1723 8.49984 12.0627 8.33211L10.9667 6.87844C10.4735 6.20751 10.5283 5.25703 11.1311 4.64202L12.0079 3.74745C12.5011 3.02061 13.4327 2.9647 14.0903 3.52381L15.5151 4.58611C15.6795 4.69793 15.8987 4.75384 16.1179 4.64202C16.3371 4.5302 16.6111 4.41837 16.8851 4.30655C17.1043 4.25064 17.2139 4.08291 17.2687 3.85927L17.5427 2.01422C17.6523 1.17556 18.3647 0.560547 19.2415 0.560547H20.447C21.269 0.560547 21.9814 1.17556 22.1458 2.01422L22.4198 3.80336C22.4746 4.027 22.5842 4.19473 22.8034 4.25064C23.0774 4.36246 23.3514 4.47428 23.5706 4.58611C23.735 4.69793 24.009 4.64202 24.1734 4.5302L25.5982 3.4679C26.2558 2.9647 27.2422 3.02061 27.845 3.63563L28.7218 4.5302C29.3246 5.14521 29.3794 6.09569 28.8862 6.76662L27.7902 8.2762C27.6806 8.44393 27.6258 8.66757 27.7354 8.83531C27.845 9.11486 27.9546 9.39441 28.0642 9.61805C28.119 9.8417 28.2834 9.95352 28.5026 10.0094L30.2562 10.289C31.0782 10.4008 31.681 11.1276 31.681 12.0222V13.2522C31.681 14.0909 31.0782 14.8177 30.2562 14.9855L28.4478 15.2091C28.2286 15.265 28.0642 15.3768 28.0094 15.6005C27.8998 15.9359 27.7902 16.1596 27.6806 16.3832C27.571 16.551 27.6258 16.7746 27.7354 16.9423L28.0642 17.4455C28.2286 17.7251 28.1738 18.0605 27.9546 18.2283C27.845 18.3401 27.7354 18.396 27.6258 18.396Z" fill="#1BC469"/>
</g>
<g opacity="0.5">
<path d="M19.8443 18.396C16.6659 18.396 14.0903 15.8241 14.0903 12.6372C14.0903 9.4503 16.6659 6.87842 19.8443 6.87842C23.0227 6.87842 25.5983 9.4503 25.5983 12.6372C25.5983 15.7682 23.0227 18.396 19.8443 18.396ZM19.8443 7.99663C17.3235 7.99663 15.2411 10.0653 15.2411 12.6372C15.2411 15.2091 17.3235 17.2778 19.8443 17.2778C22.3651 17.2778 24.4475 15.2091 24.4475 12.6372C24.4475 10.0653 22.3651 7.99663 19.8443 7.99663Z" fill="#1BC469"/>
</g>
<path d="M14.0358 30.0255C13.7618 30.0255 13.5426 29.8578 13.4878 29.5782C13.3782 29.2987 13.5974 28.9632 13.8714 28.8514C14.3098 28.7396 14.7482 28.6836 15.2414 28.6836H23.845C24.7218 28.6836 25.5438 28.4041 26.2014 27.9009C29.4346 25.4967 32.1746 22.2539 34.3666 18.2843C34.4762 18.1166 34.4762 17.8929 34.4214 17.7252C34.3666 17.5574 34.257 17.3897 34.0378 17.2779C33.6542 17.1102 33.2706 16.9983 32.8322 16.9983C31.9006 16.9983 31.0238 17.5015 30.5306 18.2843C30.421 18.5079 29.7086 19.8498 29.2702 20.2971C28.503 21.0239 26.2562 22.0862 25.5438 22.3658C25.2698 22.4776 24.941 22.3658 24.7766 22.0862C24.667 21.8066 24.7766 21.4712 25.0506 21.3035C26.4206 20.6884 28.0098 19.8498 28.4482 19.4025C28.6674 19.2348 29.1606 18.3402 29.4894 17.6693C30.2018 16.4951 31.4622 15.8242 32.7774 15.8242C33.3802 15.8242 33.9282 15.936 34.4762 16.2156C34.9146 16.4392 35.2982 16.8306 35.4078 17.3338C35.5722 17.837 35.5174 18.3402 35.2434 18.7875C32.9966 22.8689 30.147 26.2236 26.8042 28.7396C25.9274 29.4105 24.8862 29.7459 23.7354 29.7459H15.2414C14.8578 29.7459 14.529 29.8019 14.2002 29.9137C14.1454 30.0255 14.0906 30.0255 14.0358 30.0255Z" fill="#1BC469"/>
<path d="M23.7356 25.1614H16.5568C16.228 25.1614 16.0088 24.8819 16.0088 24.6023C16.0088 24.3228 16.2828 24.0432 16.5568 24.0432H23.7356C24.3932 24.0432 24.9412 23.4841 24.9412 22.8132C24.9412 22.4777 24.8316 22.1981 24.5576 21.9745C24.3384 21.7509 24.0096 21.639 23.6808 21.639H19.8996C18.8584 21.639 17.8172 21.3036 16.9404 20.6327C16.3924 20.0176 15.6252 19.7381 14.8032 19.7381H12.0632C11.1316 19.7381 10.2 20.0735 9.54243 20.7445L7.46003 22.7573C7.24083 22.9809 6.85723 22.9809 6.63803 22.7573C6.41883 22.5336 6.41883 22.1422 6.63803 21.9186L8.72043 19.9058C9.59723 19.0672 10.8028 18.564 12.0084 18.564H14.7484C15.7896 18.564 16.8308 18.8994 17.7076 19.5704C18.3652 20.0735 19.1324 20.3531 19.9544 20.3531H23.7356C24.3384 20.3531 24.996 20.6327 25.3796 21.024C25.818 21.4713 26.092 22.0863 26.092 22.7013C26.092 24.0991 25.0508 25.1614 23.7356 25.1614Z" fill="#1BC469"/>
<path d="M9.87078 35.5605C9.70638 35.5605 9.59678 35.5046 9.48718 35.3928L0.6644 26.503C0.5548 26.3912 0.5 26.2794 0.5 26.1116C0.5 25.9439 0.5548 25.8321 0.6644 25.7203L2.96599 23.4279C3.67839 22.7011 4.93879 22.7011 5.65119 23.4279L12.556 30.3608C12.9396 30.6963 13.104 31.1995 13.104 31.7027C13.104 32.2059 12.8848 32.7091 12.556 33.1005L10.2544 35.3928C10.1448 35.5046 10.0352 35.5605 9.87078 35.5605ZM1.87 26.1116L9.87078 34.1628L11.7888 32.2618C11.9532 32.0941 12.008 31.9263 12.008 31.7027C12.008 31.4791 11.9532 31.3113 11.7888 31.1436L4.82919 24.2107C4.55519 23.9311 4.00719 23.9311 3.73319 24.2107L1.87 26.1116Z" fill="#1BC469"/>
</svg>
