<svg width="31" height="31" viewBox="0 0 31 31" fill="none" xmlns="http://www.w3.org/2000/svg">
<path d="M0.516257 3.91479C0.695831 3.24956 1.36609 2.85991 2.01333 3.04447L4.77602 3.83229C6.26284 4.25627 7.43949 5.43431 7.84995 6.96137L11.338 19.9381L11.5947 20.849C12.6214 21.2429 13.5032 21.9809 14.0629 22.9611L14.5656 22.8016L28.9493 18.9596C29.5994 18.786 30.2633 19.1869 30.4323 19.8551C30.6012 20.5232 30.2112 21.2056 29.5611 21.3793L15.2306 25.207L14.6976 25.3762C14.6866 27.4944 13.2648 29.429 11.1131 30.0037C8.53405 30.6926 5.88306 29.1668 5.192 26.5959C4.50093 24.0249 6.03148 21.3823 8.61057 20.6934C8.73838 20.6592 8.86636 20.6305 8.99427 20.6071L5.5054 7.6271C5.32983 6.97392 4.81588 6.43809 4.12573 6.24129L1.36303 5.45347C0.715797 5.26891 0.336684 4.58002 0.516257 3.91479Z" fill="#1C274C"/>
<path opacity="0.5" d="M12.3329 9.72074L13.1671 12.8242C13.9536 15.7501 14.3468 17.2131 15.503 17.8785C16.6591 18.5439 18.1267 18.1519 21.0619 17.3679L24.1752 16.5364C27.1104 15.7524 28.5779 15.3604 29.2455 14.2078C29.913 13.0553 29.5197 11.5923 28.7333 8.66639L27.8991 5.56292C27.1126 2.63697 26.7193 1.174 25.5632 0.508579C24.407 -0.156838 22.9394 0.235165 20.0042 1.01917L16.891 1.85074C13.9558 2.63474 12.4882 3.02674 11.8207 4.17928C11.1532 5.33182 11.5464 6.7948 12.3329 9.72074Z" fill="#1C274C"/>
</svg>
