<svg width="27" height="27" viewBox="0 0 27 27" fill="none" xmlns="http://www.w3.org/2000/svg">
<ellipse cx="13.4716" cy="13.4999" rx="3.81833" ry="3.6" stroke="white" stroke-width="1.5"/>
<path d="M15.7186 1.68269C15.2508 1.5 14.6578 1.5 13.4717 1.5C12.2856 1.5 11.6926 1.5 11.2248 1.68269C10.601 1.92627 10.1055 2.39349 9.84712 2.98156C9.72918 3.25001 9.68303 3.5622 9.66497 4.01759C9.63842 4.68682 9.2744 5.30627 8.65926 5.64112C8.04412 5.97596 7.29312 5.96345 6.66514 5.65051C6.2378 5.43756 5.92796 5.31915 5.6224 5.28122C4.95306 5.19814 4.27612 5.36915 3.74051 5.75664C3.3388 6.04726 3.04228 6.53148 2.44924 7.49992C1.8562 8.46836 1.55968 8.95258 1.49359 9.42589C1.40547 10.057 1.58686 10.6952 1.99784 11.2002C2.18543 11.4307 2.44908 11.6244 2.85825 11.8668C3.45978 12.2232 3.84682 12.8302 3.84678 13.5C3.84675 14.1698 3.45972 14.7767 2.85825 15.133C2.44901 15.3755 2.18533 15.5692 1.99772 15.7997C1.58673 16.3047 1.40535 16.943 1.49347 17.574C1.55956 18.0473 1.85608 18.5316 2.44912 19.5C3.04216 20.4684 3.33868 20.9527 3.74038 21.2433C4.27599 21.6308 4.95293 21.8018 5.62228 21.7187C5.92782 21.6808 6.23764 21.5624 6.66494 21.3494C7.29297 21.0365 8.04402 21.024 8.6592 21.3588C9.27438 21.6937 9.63842 22.3132 9.66497 22.9825C9.68303 23.4378 9.72919 23.75 9.84712 24.0184C10.1055 24.6065 10.601 25.0737 11.2248 25.3173C11.6926 25.5 12.2856 25.5 13.4717 25.5C14.6578 25.5 15.2508 25.5 15.7186 25.3173C16.3423 25.0737 16.8379 24.6065 17.0962 24.0184C17.2142 23.75 17.2603 23.4378 17.2784 22.9824C17.3049 22.3132 17.6689 21.6937 18.284 21.3588C18.8992 21.0239 19.6503 21.0364 20.2783 21.3494C20.7056 21.5623 21.0154 21.6807 21.321 21.7186C21.9903 21.8017 22.6672 21.6307 23.2029 21.2432C23.6046 20.9526 23.9011 20.4684 24.4941 19.4999C25.0872 18.5315 25.3837 18.0473 25.4498 17.574C25.5379 16.9429 25.3565 16.3046 24.9455 15.7997C24.7579 15.5692 24.4943 15.3754 24.085 15.133C23.4835 14.7766 23.0965 14.1696 23.0966 13.4999C23.0966 12.8302 23.4836 12.2233 24.085 11.867C24.4943 11.6246 24.758 11.4308 24.9456 11.2003C25.3566 10.6953 25.538 10.057 25.4499 9.42597C25.3838 8.95266 25.0873 8.46844 24.4942 7.5C23.9012 6.53156 23.6047 6.04734 23.203 5.75672C22.6674 5.36923 21.9904 5.19822 21.3211 5.2813C21.0155 5.31923 20.7057 5.43763 20.2784 5.65056C19.6504 5.96351 18.8993 5.97602 18.2842 5.64115C17.669 5.30629 17.3049 4.68679 17.2784 4.01753C17.2603 3.56217 17.2142 3.25 17.0962 2.98156C16.8379 2.39349 16.3423 1.92627 15.7186 1.68269Z" stroke="white" stroke-width="1.5"/>
</svg>
