<svg width="36" height="36" viewBox="0 0 36 36" fill="none" xmlns="http://www.w3.org/2000/svg">
<path d="M6.69731 17.5697H15.9172C16.1222 17.5697 16.2883 17.4036 16.2883 17.1989C16.2883 16.9942 16.1222 16.8281 15.9172 16.8281H6.69731C6.49235 16.8281 6.32617 16.9942 6.32617 17.1989C6.32617 17.4036 6.49228 17.5697 6.69731 17.5697Z" fill="#1BC469"/>
<path d="M15.9166 28.4697H6.69682C6.49186 28.4697 6.32568 28.6358 6.32568 28.8405C6.32568 29.0452 6.49179 29.2113 6.69682 29.2113H15.9167C16.1217 29.2113 16.2879 29.0452 16.2879 28.8405C16.2878 28.6358 16.1216 28.4697 15.9166 28.4697Z" fill="#1BC469"/>
<g opacity="0.5">
<path d="M32.9854 13.6953C32.7804 13.6953 32.6143 13.8613 32.6143 14.0661V14.5588C32.6143 14.7635 32.7804 14.9295 32.9854 14.9295C33.1904 14.9295 33.3565 14.7635 33.3565 14.5588V14.0661C33.3565 13.8613 33.1904 13.6953 32.9854 13.6953Z" fill="#1C274C"/>
<path d="M32.9854 16.1426C32.7804 16.1426 32.6143 16.3086 32.6143 16.5133V16.9319C32.6143 17.1366 32.7804 17.3026 32.9854 17.3026C33.1904 17.3026 33.3565 17.1366 33.3565 16.9319V16.5133C33.3565 16.3086 33.1904 16.1426 32.9854 16.1426Z" fill="#1C274C"/>
<path d="M34.4194 15.1279H34.0005C33.7956 15.1279 33.6294 15.294 33.6294 15.4987C33.6294 15.7034 33.7955 15.8695 34.0005 15.8695H34.4194C34.6244 15.8695 34.7906 15.7034 34.7906 15.4987C34.7906 15.294 34.6245 15.1279 34.4194 15.1279Z" fill="#1C274C"/>
<path d="M31.9707 15.1279H31.5518C31.3468 15.1279 31.1807 15.294 31.1807 15.4987C31.1807 15.7034 31.3468 15.8695 31.5518 15.8695H31.9707C32.1756 15.8695 32.3418 15.7034 32.3418 15.4987C32.3418 15.294 32.1756 15.1279 31.9707 15.1279Z" fill="#1C274C"/>
<path d="M26.3052 7.02148C26.1003 7.02148 25.9341 7.18751 25.9341 7.39225V7.88492C25.9341 8.08966 26.1002 8.25569 26.3052 8.25569C26.5103 8.25569 26.6764 8.08966 26.6764 7.88492V7.39225C26.6763 7.18744 26.5102 7.02148 26.3052 7.02148Z" fill="#1C274C"/>
<path d="M26.3052 9.46875C26.1003 9.46875 25.9341 9.63478 25.9341 9.83952V10.258C25.9341 10.4628 26.1002 10.6288 26.3052 10.6288C26.5103 10.6288 26.6764 10.4628 26.6764 10.258V9.83952C26.6763 9.63478 26.5102 9.46875 26.3052 9.46875Z" fill="#1C274C"/>
<path d="M27.7397 8.45459H27.3208C27.1159 8.45459 26.9497 8.62062 26.9497 8.82536C26.9497 9.03009 27.1158 9.19612 27.3208 9.19612H27.7397C27.9447 9.19612 28.1109 9.03009 28.1109 8.82536C28.1109 8.62062 27.9447 8.45459 27.7397 8.45459Z" fill="#1C274C"/>
<path d="M25.29 8.45459H24.8711C24.6662 8.45459 24.5 8.62062 24.5 8.82536C24.5 9.03009 24.6661 9.19612 24.8711 9.19612H25.29C25.495 9.19612 25.6612 9.03009 25.6612 8.82536C25.6612 8.62062 25.4951 8.45459 25.29 8.45459Z" fill="#1C274C"/>
<path d="M34.997 28.3859L33.9284 24.3888C33.7943 23.8875 33.4531 23.4624 32.9924 23.2228L30.1056 21.7217C30.1056 21.7217 29.9622 21.2075 29.945 21.1787V19.56C29.945 17.6381 28.3801 16.0747 26.4566 16.0747C24.533 16.0747 22.9681 17.6382 22.9681 19.56V22.6437H22.1426C21.6869 22.6437 21.27 22.8246 20.9617 23.1202C19.7901 23.9993 18.6536 26.0666 17.9917 28.5257C17.2719 31.1999 17.2766 33.7409 18.0036 34.9991C18.2828 35.4824 18.7448 35.859 19.3279 35.859C19.359 35.859 33.6147 35.8586 33.662 35.8586C34.9379 35.8586 35.3607 34.3052 35.4766 33.301C35.6247 32.0205 35.0304 28.5109 34.997 28.3859ZM23.7105 19.5599C23.7105 18.047 24.9424 16.8162 26.4566 16.8162C27.9709 16.8162 29.2028 18.047 29.2028 19.5599V22.2451L28.9713 22.6436H23.7105V19.5599ZM21.1845 24.2354C21.2422 23.7507 21.6541 23.3852 22.1426 23.3852H22.9682V24.0608C22.9682 24.2655 23.1343 24.4315 23.3393 24.4315C23.5444 24.4315 23.7105 24.2655 23.7105 24.0608V23.3852H28.5404L27.7313 24.7778C27.4854 25.2008 27.417 25.7145 27.5433 26.187L27.8594 27.3693H26.8278V26.9841C26.8278 26.7794 26.6617 26.6133 26.4566 26.6133C26.2516 26.6133 26.0855 26.7794 26.0855 26.9841V27.3693H20.8116L21.1845 24.2354ZM19.8895 35.118L20.7234 28.1109H26.0855V28.4961C26.0855 28.7008 26.2516 28.8668 26.4566 28.8668C26.6617 28.8668 26.8278 28.7008 26.8278 28.4961V28.1109H28.0577L28.6049 30.1577C28.869 31.1451 29.9328 31.745 30.9155 31.4595L32.5327 30.9899L33.0239 35.118H19.8895ZM33.515 29.9324L30.7083 30.7474C30.1216 30.918 29.48 30.5575 29.322 29.9664L28.2603 25.9956C28.1846 25.7122 28.2257 25.404 28.3732 25.1501L29.6603 22.9351L30.0081 24.243C29.7338 24.4656 29.5579 24.8047 29.5579 25.1845C29.5579 25.8533 30.1025 26.3974 30.772 26.3974C31.4414 26.3974 31.986 25.8533 31.986 25.1845C31.986 24.5157 31.4414 23.9716 30.772 23.9716C30.7493 23.9716 30.7271 23.9737 30.7047 23.975L30.3636 22.692L32.6497 23.8808C32.9262 24.0246 33.1309 24.2796 33.2113 24.5804L34.2799 28.5774C34.4349 29.157 34.0917 29.765 33.515 29.9324Z" fill="#1C274C"/>
</g>
<path d="M19.7318 20.3807C19.9965 20.3807 20.2111 20.1665 20.2111 19.9023C20.2111 19.638 19.9965 19.4238 19.7318 19.4238C19.467 19.4238 19.2524 19.638 19.2524 19.9023C19.2524 20.1665 19.467 20.3807 19.7318 20.3807Z" fill="#1BC469"/>
<g opacity="0.5">
<path d="M23.3392 26.2118C23.6039 26.2118 23.8185 25.9976 23.8185 25.7333C23.8185 25.4691 23.6039 25.2549 23.3392 25.2549C23.0745 25.2549 22.8599 25.4691 22.8599 25.7333C22.8599 25.9976 23.0745 26.2118 23.3392 26.2118Z" fill="#1C274C"/>
</g>
<path d="M15.0609 35.0775C15.3256 35.0775 15.5402 34.8633 15.5402 34.599C15.5402 34.3348 15.3256 34.1206 15.0609 34.1206C14.7961 34.1206 14.5815 34.3348 14.5815 34.599C14.5815 34.8633 14.7961 35.0775 15.0609 35.0775Z" fill="#1BC469"/>
<path d="M16.2462 5.62535C16.1082 5.51768 15.9134 5.52109 15.7791 5.63381L11.2365 9.44891C9.34527 10.885 7.6591 11.3692 6.57699 11.5227C4.78093 11.7773 4.97053 14.5422 6.79707 14.5422H9.83015C10.5863 14.5422 11.3032 14.2141 11.7971 13.6421L14.4153 10.6098C14.8059 11.7642 14.9386 12.9537 14.9151 14.1669C14.9342 14.3953 15.0579 14.5204 15.2863 14.5422H16.6042C16.8435 14.5169 16.9669 14.3841 16.9743 14.1438C16.8585 12.5974 17.0232 11.0594 17.464 9.57274C17.5326 9.31298 17.5458 9.04255 17.5753 8.77567C17.7102 7.55719 17.2134 6.37956 16.2462 5.62535ZM16.2101 13.8007H15.6619C15.6761 12.5553 15.4693 11.3363 15.0479 10.1706L16.6161 9.85704C16.2861 11.1469 16.1496 12.4695 16.2101 13.8007Z" fill="#1BC469"/>
<path d="M16.8406 21.8228C16.1137 21.0389 14.1036 20.6479 13.1756 20.6479C13.1735 20.6479 13.1712 20.6479 13.169 20.6479C13.1396 20.648 9.55614 20.648 9.5333 20.6479C9.53108 20.6479 9.52878 20.6479 9.52655 20.6479C8.58088 20.6479 6.53233 21.038 5.79161 21.8199C4.7511 22.9184 4.73634 24.69 5.75862 25.7693C6.79201 26.8602 8.53194 26.8153 9.55584 25.7345C10.0777 25.1835 10.4136 23.9429 10.5648 22.9147C10.8156 22.7846 11.4962 22.5067 12.1499 22.9037C12.2971 23.9331 12.6264 25.1791 13.1386 25.7316C13.6277 26.259 14.3122 26.5803 15.0354 26.5803C15.7335 26.5803 16.3862 26.2912 16.8729 25.7664C17.8723 24.6888 17.8578 22.9196 16.8406 21.8228ZM12.0663 22.0532C11.5293 21.8813 11.0221 21.9596 10.6506 22.0795C10.6555 21.9843 10.658 21.895 10.6579 21.8142C10.6576 21.6657 10.6294 21.5241 10.5801 21.3934L12.137 21.394C12.0885 21.5246 12.0607 21.666 12.0605 21.8142C12.0603 21.8875 12.0624 21.968 12.0663 22.0532Z" fill="#1BC469"/>
<path d="M19.5173 0.858887H3.09773C1.66539 0.858887 0.5 2.02324 0.5 3.45432V32.3747C0.5 33.8058 1.66539 34.9702 3.09773 34.9702H13.0206C13.2256 34.9702 13.3917 34.8041 13.3917 34.5994C13.3917 34.3947 13.2256 34.2286 13.0206 34.2286H3.09773C2.07457 34.2286 1.2422 33.397 1.2422 32.3747V3.45432C1.2422 2.43204 2.07457 1.60042 3.09773 1.60042H8.11493V3.13776H2.88335C2.67839 3.13776 2.51222 3.30379 2.51222 3.50852V32.3205C2.51222 32.5253 2.67832 32.6913 2.88335 32.6913H12.6312C12.8362 32.6913 13.0024 32.5253 13.0024 32.3205C13.0024 32.1158 12.8363 31.9498 12.6312 31.9498H3.25449V3.87936H8.1437C8.26138 4.41067 8.73588 4.80954 9.30256 4.80954H13.3126C13.8793 4.80954 14.3538 4.41067 14.4715 3.87936H19.3606V17.7814C19.3606 17.9861 19.5267 18.1521 19.7317 18.1521C19.9367 18.1521 20.1029 17.9861 20.1029 17.7814V3.50852C20.1029 3.30379 19.9368 3.13776 19.7317 3.13776H14.5002V1.60042H19.5173C20.5405 1.60042 21.3728 2.43204 21.3728 3.45432V17.8857C21.3728 18.0904 21.5389 18.2565 21.744 18.2565C21.949 18.2565 22.1151 18.0904 22.1151 17.8857V3.45432C22.115 2.02324 20.9497 0.858887 19.5173 0.858887Z" fill="#1BC469"/>
</svg>
