<svg width="25" height="25" viewBox="0 0 25 25" fill="none" xmlns="http://www.w3.org/2000/svg">
<path opacity="0.5" d="M23.2642 19.4383V11.4938C23.2642 6.88455 23.2642 4.57991 21.9754 3.14799C20.6867 1.71606 18.6125 1.71606 14.4642 1.71606H10.0642C5.9158 1.71606 3.84162 1.71606 2.55289 3.14799C1.26416 4.57991 1.26416 6.88455 1.26416 11.4938V13.9383C1.26416 18.5476 1.26416 20.8522 2.55289 22.2841C3.84162 23.7161 5.9158 23.7161 10.0642 23.7161H11.1642H18.8642" stroke="#1C274C" stroke-width="1.5"/>
<path d="M13.3643 18.8271C13.3643 16.5225 13.3643 15.3702 14.0086 14.6542C14.653 13.9382 15.6901 13.9382 17.7643 13.9382H18.8643C20.9384 13.9382 21.9755 13.9382 22.6199 14.6542C23.2643 15.3702 23.2643 16.5225 23.2643 18.8271C23.2643 21.1318 23.2643 22.2841 22.6199 23C21.9755 23.716 20.9384 23.716 18.8643 23.716H17.7643C15.6901 23.716 14.653 23.716 14.0086 23C13.3643 22.2841 13.3643 21.1318 13.3643 18.8271Z" stroke="#1C274C" stroke-width="1.5"/>
<path d="M7.31436 7.21609V10.8828M7.31436 7.21609H10.6144M7.31436 7.21609L11.7144 12.105" stroke="#1C274C" stroke-width="1.5" stroke-linecap="round" stroke-linejoin="round"/>
</svg>
