<svg width="23" height="23" viewBox="0 0 23 23" fill="none" xmlns="http://www.w3.org/2000/svg">
<g opacity="0.5">
<path d="M0.0141602 1.81222C0.0141602 1.3449 0.436292 0.966064 0.957017 0.966064H21.0713C21.592 0.966064 22.0142 1.3449 22.0142 1.81222C22.0142 2.27954 21.592 2.65837 21.0713 2.65837H0.957017C0.436292 2.65837 0.0141602 2.27954 0.0141602 1.81222Z" fill="#1C274C"/>
<path d="M0.0141602 22.1199C0.0141602 21.6526 0.436292 21.2738 0.957017 21.2738H21.0713C21.592 21.2738 22.0142 21.6526 22.0142 22.1199C22.0142 22.5872 21.592 22.9661 21.0713 22.9661H0.957017C0.436292 22.9661 0.0141602 22.5872 0.0141602 22.1199Z" fill="#1C274C"/>
</g>
<path d="M3.08231 11.2994C2.75186 11.6676 2.75186 12.2646 3.08231 12.6328L6.46692 16.4043C6.79736 16.7725 7.33312 16.7725 7.66356 16.4043C7.99401 16.0361 7.99401 15.4391 7.66356 15.0709L5.72342 12.909H16.3045L14.3644 15.0709C14.0339 15.4391 14.0339 16.0361 14.3644 16.4043C14.6948 16.7725 15.2306 16.7725 15.561 16.4043L18.9456 12.6328C19.2761 12.2646 19.2761 11.6676 18.9456 11.2994L15.561 7.528C15.2306 7.1598 14.6948 7.1598 14.3644 7.528C14.0339 7.89621 14.0339 8.4932 14.3644 8.86141L16.3045 11.0233H5.72342L7.66356 8.86141C7.99401 8.4932 7.99401 7.89621 7.66356 7.528C7.33312 7.1598 6.79736 7.1598 6.46692 7.528L3.08231 11.2994Z" fill="#1C274C"/>
</svg>
