<svg width="31" height="31" viewBox="0 0 31 31" fill="none" xmlns="http://www.w3.org/2000/svg">
<path opacity="0.5" d="M11.8602 1.97038C11.495 2.28164 11.3123 2.43729 11.1173 2.56803C10.6701 2.86774 10.1679 3.07574 9.63983 3.18001C9.40945 3.22549 9.17023 3.24458 8.6918 3.28276L8.69178 3.28276C7.48972 3.37869 6.88868 3.42665 6.38724 3.60376C5.22744 4.01342 4.31518 4.92569 3.90552 6.08548C3.72841 6.58692 3.68044 7.18796 3.58452 8.39003L3.58452 8.39004C3.54634 8.86847 3.52725 9.10769 3.48176 9.33807C3.3775 9.86618 3.16949 10.3684 2.86979 10.8155C2.73905 11.0106 2.5834 11.1932 2.27211 11.5585L2.27209 11.5585C1.48993 12.4763 1.09884 12.9353 0.869503 13.4151C0.339072 14.5249 0.339072 15.815 0.869503 16.9248C1.09884 17.4046 1.48992 17.8635 2.27209 18.7813L2.27216 18.7814C2.58338 19.1466 2.73906 19.3293 2.86979 19.5243C3.16949 19.9715 3.3775 20.4737 3.48176 21.0018C3.52725 21.2322 3.54634 21.4714 3.58452 21.9498L3.58452 21.9498C3.68044 23.1519 3.72841 23.7529 3.90552 24.2544C4.31518 25.4142 5.22744 26.3264 6.38724 26.7361C6.88868 26.9132 7.48971 26.9612 8.69178 27.0571H8.6918C9.17023 27.0953 9.40945 27.1144 9.63983 27.1598C10.1679 27.2641 10.6701 27.4721 11.1173 27.7718C11.3123 27.9026 11.495 28.0582 11.8603 28.3695L11.8603 28.3695C12.7781 29.1517 13.237 29.5428 13.7168 29.7721C14.8266 30.3025 16.1168 30.3025 17.2265 29.7721C17.7063 29.5428 18.1652 29.1517 19.0831 28.3695L19.0831 28.3695C19.4484 28.0582 19.631 27.9026 19.8261 27.7718C20.2732 27.4721 20.7754 27.2641 21.3035 27.1598C21.5339 27.1144 21.7731 27.0953 22.2516 27.0571H22.2516C23.4536 26.9612 24.0547 26.9132 24.5561 26.7361C25.7159 26.3264 26.6282 25.4142 27.0378 24.2544C27.215 23.7529 27.2629 23.1519 27.3588 21.9498V21.9498C27.397 21.4714 27.4161 21.2322 27.4616 21.0018C27.5659 20.4737 27.7739 19.9715 28.0736 19.5243C28.2043 19.3293 28.36 19.1466 28.6713 18.7813C29.4534 17.8635 29.8445 17.4046 30.0739 16.9248C30.6043 15.815 30.6043 14.5249 30.0739 13.4151C29.8445 12.9353 29.4534 12.4764 28.6713 11.5585L28.6712 11.5585C28.36 11.1932 28.2043 11.0106 28.0736 10.8155C27.7739 10.3684 27.5659 9.86618 27.4616 9.33807C27.4161 9.10769 27.397 8.86847 27.3588 8.39004V8.39002C27.2629 7.18796 27.215 6.58692 27.0378 6.08548C26.6282 4.92569 25.7159 4.01342 24.5561 3.60376C24.0547 3.42665 23.4536 3.37869 22.2516 3.28276L22.2516 3.28276C21.7731 3.24458 21.5339 3.22549 21.3035 3.18001C20.7754 3.07574 20.2732 2.86774 19.8261 2.56803C19.631 2.43729 19.4484 2.28163 19.0831 1.97033C18.1652 1.18816 17.7063 0.79708 17.2265 0.567745C16.1168 0.037314 14.8266 0.037314 13.7168 0.567745C13.237 0.797079 12.7781 1.18817 11.8603 1.97033L11.8602 1.97038Z" fill="#1C274C"/>
<path d="M21.218 9.42494C21.6948 9.90169 21.6948 10.6747 21.218 11.1514L11.4517 20.9177C10.9749 21.3945 10.202 21.3945 9.72524 20.9177C9.24849 20.441 9.24849 19.668 9.72524 19.1913L19.4916 9.42494C19.9683 8.9482 20.7413 8.9482 21.218 9.42494Z" fill="#1C274C"/>
<path d="M21.1686 19.2406C21.1686 20.1396 20.4399 20.8684 19.5409 20.8684C18.642 20.8684 17.9132 20.1396 17.9132 19.2406C17.9132 18.3417 18.642 17.6129 19.5409 17.6129C20.4399 17.6129 21.1686 18.3417 21.1686 19.2406Z" fill="#1C274C"/>
<path d="M11.4023 12.7298C12.3013 12.7298 13.03 12.001 13.03 11.102C13.03 10.2031 12.3013 9.47431 11.4023 9.47431C10.5034 9.47431 9.77461 10.2031 9.77461 11.102C9.77461 12.001 10.5034 12.7298 11.4023 12.7298Z" fill="#1C274C"/>
</svg>
