<svg width="17" height="16" viewBox="0 0 17 16" fill="none" xmlns="http://www.w3.org/2000/svg">
<path d="M15.2169 8.80777C15.653 8.8 16.1593 8.8 16.7598 8.8V8C16.7598 4.22876 16.7598 2.34315 15.5882 1.17157C14.4166 0 12.531 0 8.75977 0C4.98853 0 3.10291 0 1.93134 1.17157C0.759766 2.34315 0.759766 4.22876 0.759766 8C0.759766 11.7712 0.759766 13.6569 1.93134 14.8284C3.10291 16 4.98853 16 8.75977 16H9.55977C9.55977 15.3995 9.55977 14.8932 9.56753 14.4571C9.58313 13.5819 9.63001 12.9898 9.77101 12.4874L9.77312 12.4799C9.78366 12.4427 9.79473 12.4059 9.80634 12.3696L9.81148 12.3536C9.98662 11.8146 10.247 11.3156 10.577 10.8723C10.6064 10.8327 10.6364 10.7936 10.667 10.755C11.2884 9.96839 12.1348 9.36966 13.1134 9.05171C13.6451 8.87895 14.2628 8.82477 15.2169 8.80777Z" fill="#1C274C"/>
<path opacity="0.5" d="M11.0632 15.8427L11.0596 15.8434L11.0108 15.8536L11.0092 15.8539C10.541 15.9496 10.0563 15.9999 9.55977 15.9999H8.75977L9.03496 15.725C9.37163 15.3887 9.55906 14.9328 9.56753 14.457C9.58453 13.5029 9.63872 12.8852 9.81148 12.3535C10.3202 10.7878 11.5477 9.56031 13.1134 9.05159C13.6451 8.87883 14.2628 8.82465 15.2169 8.80765C15.6927 8.79917 16.1486 8.6119 16.4851 8.27542L16.7598 8.00073V8.79988C16.7598 9.32948 16.7026 9.84573 16.5941 10.3428C15.9963 13.0808 13.8406 15.2364 11.1027 15.8342L11.0632 15.8427Z" fill="#1C274C"/>
<path d="M11.1601 8.0001C11.6019 8.0001 11.9601 7.46284 11.9601 6.8001C11.9601 6.13736 11.6019 5.6001 11.1601 5.6001C10.7182 5.6001 10.3601 6.13736 10.3601 6.8001C10.3601 7.46284 10.7182 8.0001 11.1601 8.0001Z" fill="white"/>
<path d="M6.36006 8.0001C6.80189 8.0001 7.16006 7.46284 7.16006 6.8001C7.16006 6.13736 6.80189 5.6001 6.36006 5.6001C5.91823 5.6001 5.56006 6.13736 5.56006 6.8001C5.56006 7.46284 5.91823 8.0001 6.36006 8.0001Z" fill="white"/>
<path d="M9.81177 12.3537C9.98692 11.8147 10.2473 11.3157 10.5773 10.8724C10.0423 11.209 9.42161 11.4001 8.7601 11.4001C8.00338 11.4001 7.30006 11.15 6.71739 10.7181C6.45117 10.5208 6.0754 10.5766 5.87808 10.8428C5.68075 11.1091 5.73659 11.4848 6.00281 11.6822C6.78074 12.2588 7.73212 12.6001 8.7601 12.6001C9.10714 12.6001 9.44545 12.5612 9.77131 12.4875L9.77341 12.48C9.78395 12.4428 9.79502 12.406 9.80663 12.3697L9.81177 12.3537Z" fill="white"/>
</svg>
