<svg width="23" height="23" viewBox="0 0 23 23" fill="none" xmlns="http://www.w3.org/2000/svg">
<path d="M20.0221 12.2181C20.6217 12.2074 21.3179 12.2074 22.1436 12.2074V11.1074C22.1436 5.92197 22.1436 3.32925 20.5326 1.71833C18.9217 0.107422 16.329 0.107422 11.1436 0.107422C5.95811 0.107422 3.36538 0.107422 1.75447 1.71833C0.143555 3.32925 0.143555 5.92197 0.143555 11.1074C0.143555 16.2929 0.143555 18.8856 1.75447 20.4965C3.36538 22.1074 5.95811 22.1074 11.1436 22.1074H12.2436C12.2436 21.2817 12.2436 20.5856 12.2542 19.986C12.2757 18.7825 12.3401 17.9683 12.534 17.2776L12.5369 17.2673C12.5514 17.2161 12.5666 17.1656 12.5826 17.1156L12.5897 17.0937C12.8305 16.3525 13.1885 15.6664 13.6423 15.0568C13.6827 15.0024 13.724 14.9486 13.7659 14.8955C14.6204 13.814 15.7843 12.9907 17.1298 12.5535C17.8609 12.316 18.7102 12.2415 20.0221 12.2181Z" fill="#1C274C"/>
<path opacity="0.5" d="M14.3108 21.8913L14.3059 21.8924L14.2388 21.9063L14.2366 21.9068C13.5928 22.0384 12.9262 22.1075 12.2436 22.1075H11.1436L11.5219 21.7295C11.9849 21.2671 12.2426 20.6402 12.2542 19.986C12.2776 18.6741 12.3521 17.8248 12.5897 17.0937C13.2891 14.9409 14.977 13.2531 17.1298 12.5536C17.8609 12.316 18.7102 12.2415 20.0221 12.2182C20.6763 12.2065 21.3032 11.949 21.7659 11.4863L22.1436 11.1086V12.2075C22.1436 12.9357 22.0649 13.6455 21.9157 14.329C21.0938 18.0937 18.1298 21.0577 14.365 21.8796L14.3108 21.8913Z" fill="white"/>
<path d="M14.4437 11.1074C15.0512 11.1074 15.5437 10.3686 15.5437 9.45737C15.5437 8.5461 15.0512 7.80737 14.4437 7.80737C13.8361 7.80737 13.3437 8.5461 13.3437 9.45737C13.3437 10.3686 13.8361 11.1074 14.4437 11.1074Z" fill="white"/>
<path d="M7.84365 11.1074C8.45117 11.1074 8.94365 10.3686 8.94365 9.45737C8.94365 8.5461 8.45117 7.80737 7.84365 7.80737C7.23614 7.80737 6.74365 8.5461 6.74365 9.45737C6.74365 10.3686 7.23614 11.1074 7.84365 11.1074Z" fill="white"/>
<path d="M12.5898 17.0936C12.8306 16.3524 13.1886 15.6663 13.6424 15.0567C12.9068 15.5196 12.0533 15.7824 11.1437 15.7824C10.1032 15.7824 9.13615 15.4385 8.33498 14.8446C7.96894 14.5733 7.45225 14.6501 7.18093 15.0162C6.9096 15.3822 6.98639 15.8989 7.35243 16.1702C8.42208 16.9631 9.73024 17.4324 11.1437 17.4324C11.6209 17.4324 12.0861 17.3789 12.5341 17.2776L12.537 17.2673C12.5515 17.2161 12.5667 17.1655 12.5827 17.1155L12.5898 17.0936Z" fill="white"/>
</svg>
