<svg width="20" height="19" viewBox="0 0 20 19" fill="none" xmlns="http://www.w3.org/2000/svg">
<path opacity="0.5" d="M2.55281 11.5535C1.60838 8.02882 1.13616 6.26648 1.93774 4.8781C2.73932 3.48973 4.50166 3.01751 8.02634 2.07308C11.551 1.12864 13.3134 0.656425 14.7017 1.458C16.0901 2.25958 16.5623 4.02192 17.5068 7.5466C18.4512 11.0713 18.9234 12.8336 18.1218 14.222C17.3203 15.6104 15.5579 16.0826 12.0332 17.027C8.50855 17.9715 6.74622 18.4437 5.35784 17.6421C3.96947 16.8405 3.49725 15.0782 2.55281 11.5535Z" stroke="#1C274C" stroke-width="1.5"/>
<path d="M6.85742 12.0943C7.92701 12.3624 9.14048 12.3626 10.3616 12.0354C11.5827 11.7082 12.6335 11.1013 13.4257 10.3344" stroke="#5F9CE3" stroke-width="1.5" stroke-linecap="round"/>
<mask id="path-3-inside-1_640_7239" fill="white">
<ellipse cx="11.6149" cy="6.85943" rx="0.85" ry="1.275" transform="rotate(-15 11.6149 6.85943)"/>
</mask>
<ellipse cx="11.6149" cy="6.85943" rx="0.85" ry="1.275" transform="rotate(-15 11.6149 6.85943)" fill="#5F9CE3"/>
<path d="M11.47 6.89825C11.5172 7.07424 11.4988 7.20308 11.4815 7.25426C11.4737 7.27749 11.4736 7.263 11.5025 7.2316C11.5348 7.19648 11.5964 7.14908 11.6861 7.12506L12.2037 9.05691C12.8539 8.8827 13.2183 8.36138 13.3761 7.89516C13.5365 7.42098 13.537 6.8848 13.4019 6.38061L11.47 6.89825ZM11.6861 7.12506C11.7757 7.10103 11.8528 7.11129 11.8983 7.12556C11.939 7.13831 11.9462 7.15087 11.9278 7.13468C11.8872 7.09901 11.8069 6.99659 11.7598 6.82061L9.82794 7.33824C9.96303 7.84243 10.2315 8.30654 10.6075 8.63698C10.9772 8.96188 11.5535 9.23112 12.2037 9.05691L11.6861 7.12506ZM11.7598 6.82061C11.7126 6.64462 11.7309 6.51578 11.7483 6.4646C11.7561 6.44137 11.7561 6.45585 11.7273 6.48725C11.695 6.52238 11.6334 6.56978 11.5437 6.5938L11.0261 4.66195C10.3759 4.83616 10.0114 5.35748 9.85373 5.8237C9.69332 6.29788 9.69284 6.83406 9.82794 7.33824L11.7598 6.82061ZM11.5437 6.5938C11.4541 6.61782 11.377 6.60757 11.3315 6.5933C11.2908 6.58055 11.2836 6.56799 11.302 6.58418C11.3426 6.61984 11.4229 6.72227 11.47 6.89825L13.4019 6.38061C13.2668 5.87643 12.9983 5.41232 12.6223 5.08188C12.2526 4.75698 11.6763 4.48774 11.0261 4.66195L11.5437 6.5938Z" fill="#5F9CE3" mask="url(#path-3-inside-1_640_7239)"/>
<mask id="path-5-inside-2_640_7239" fill="white">
<ellipse cx="6.68863" cy="8.17974" rx="0.85" ry="1.275" transform="rotate(-15 6.68863 8.17974)"/>
</mask>
<ellipse cx="6.68863" cy="8.17974" rx="0.85" ry="1.275" transform="rotate(-15 6.68863 8.17974)" fill="#5F9CE3"/>
<path d="M6.54374 8.21856C6.5909 8.39455 6.57258 8.52339 6.55527 8.57457C6.54741 8.5978 6.54738 8.58332 6.57626 8.55192C6.60857 8.51679 6.67014 8.4694 6.7598 8.44537L7.27744 10.3772C7.92761 10.203 8.29208 9.68169 8.4498 9.21547C8.61021 8.74129 8.61069 8.20511 8.47559 7.70093L6.54374 8.21856ZM6.7598 8.44537C6.84946 8.42135 6.92648 8.4316 6.97203 8.44587C7.01274 8.45862 7.01996 8.47118 7.00154 8.45499C6.96096 8.41933 6.88067 8.3169 6.83352 8.14092L4.90167 8.65856C5.03676 9.16274 5.30527 9.62685 5.68128 9.95729C6.05097 10.2822 6.62727 10.5514 7.27744 10.3772L6.7598 8.44537ZM6.83352 8.14092C6.78636 7.96493 6.80468 7.83609 6.82199 7.78491C6.82985 7.76168 6.82988 7.77617 6.801 7.80757C6.76869 7.8427 6.70711 7.89009 6.61745 7.91411L6.09982 5.98226C5.44965 6.15647 5.08518 6.67779 4.92746 7.14401C4.76705 7.61819 4.76657 8.15437 4.90167 8.65856L6.83352 8.14092ZM6.61745 7.91411C6.52779 7.93814 6.45077 7.92788 6.40523 7.91361C6.36452 7.90086 6.3573 7.8883 6.37572 7.90449C6.4163 7.94016 6.49659 8.04258 6.54374 8.21856L8.47559 7.70093C8.3405 7.19674 8.07199 6.73264 7.69598 6.40219C7.32628 6.07729 6.74998 5.80805 6.09982 5.98226L6.61745 7.91411Z" fill="#5F9CE3" mask="url(#path-5-inside-2_640_7239)"/>
<path d="M10.332 12.1511L10.7383 12.9788C11.0455 13.6046 11.7982 13.8676 12.4282 13.5694C13.071 13.2651 13.3406 12.4937 13.0272 11.8553L12.6368 11.06" stroke="#5F9CE3" stroke-width="1.5"/>
</svg>
