<svg width="24" height="24" viewBox="0 0 24 24" fill="none" xmlns="http://www.w3.org/2000/svg">
<path d="M1 11.7533C1 6.56785 1 3.97512 2.61091 2.36421C4.22183 0.753296 6.81455 0.753296 12 0.753296C17.1854 0.753296 19.7782 0.753296 21.3891 2.36421C23 3.97512 23 6.56785 23 11.7533C23 16.9387 23 19.5315 21.3891 21.1424C19.7782 22.7533 17.1854 22.7533 12 22.7533C6.81455 22.7533 4.22183 22.7533 2.61091 21.1424C1 19.5315 1 16.9387 1 11.7533Z" stroke="#1C274C" stroke-width="1.5"/>
<path opacity="0.5" d="M1 12.8533H4.47629C5.47197 12.8533 5.96982 12.8533 6.40743 13.0545C6.84504 13.2558 7.16903 13.6338 7.81702 14.3898L8.48298 15.1668C9.13097 15.9227 9.45496 16.3007 9.89257 16.502C10.3302 16.7033 10.828 16.7033 11.8237 16.7033H12.1763C13.172 16.7033 13.6698 16.7033 14.1074 16.502C14.545 16.3007 14.869 15.9227 15.517 15.1668L16.183 14.3898C16.831 13.6338 17.155 13.2558 17.5926 13.0545C18.0302 12.8533 18.528 12.8533 19.5237 12.8533H23" stroke="#1C274C" stroke-width="1.5" stroke-linecap="round"/>
</svg>
