<svg width="23" height="23" viewBox="0 0 23 23" fill="none" xmlns="http://www.w3.org/2000/svg">
<path d="M0.0253906 11.1074C0.0253906 5.92197 0.0253906 3.32925 1.6363 1.71833C3.24722 0.107422 5.83994 0.107422 11.0254 0.107422C16.2108 0.107422 18.8036 0.107422 20.4145 1.71833C22.0254 3.32925 22.0254 5.92197 22.0254 11.1074C22.0254 16.2929 22.0254 18.8856 20.4145 20.4965C18.8036 22.1074 16.2108 22.1074 11.0254 22.1074C5.83994 22.1074 3.24722 22.1074 1.6363 20.4965C0.0253906 18.8856 0.0253906 16.2929 0.0253906 11.1074Z" fill="#1C274C"/>
<path d="M8.77246 4.78248C8.29962 4.7824 7.85756 4.78233 7.49641 4.83628C7.08842 4.89723 6.66929 5.04131 6.33426 5.41357C6.01043 5.77338 5.8961 6.20215 5.84654 6.61171C5.80022 6.99454 5.80026 7.4691 5.8003 8.00498L5.8003 8.63248C5.8003 9.08812 6.16966 9.45748 6.6253 9.45748C7.08093 9.45748 7.4503 9.08812 7.4503 8.63248V8.05193C7.4503 7.45472 7.45172 7.08161 7.4846 6.80992C7.50002 6.68246 7.5193 6.60901 7.53489 6.56692C7.54804 6.5314 7.55743 6.52099 7.56055 6.51753L7.56144 6.51649C7.56294 6.51468 7.56404 6.51336 7.57396 6.50883C7.59225 6.50047 7.63915 6.48327 7.74019 6.46818C7.96471 6.43464 8.28092 6.43248 8.8253 6.43248H10.2003V15.7825H8.2753C7.81966 15.7825 7.4503 16.1518 7.4503 16.6075C7.4503 17.0631 7.81966 17.4325 8.2753 17.4325H14.3253C14.7809 17.4325 15.1503 17.0631 15.1503 16.6075C15.1503 16.1518 14.7809 15.7825 14.3253 15.7825H11.8503V6.43248H13.2253C13.7697 6.43248 14.0859 6.43464 14.3104 6.46818C14.4114 6.48327 14.4583 6.50047 14.4766 6.50883C14.4866 6.51336 14.4877 6.51468 14.4892 6.51649L14.4899 6.51736C14.493 6.52082 14.5026 6.5314 14.5157 6.56692C14.5313 6.60901 14.5506 6.68246 14.566 6.80992C14.5989 7.08161 14.6003 7.45472 14.6003 8.05193V8.63248C14.6003 9.08812 14.9697 9.45748 15.4253 9.45748C15.8809 9.45748 16.2503 9.08812 16.2503 8.63248L16.2503 8.00497C16.2503 7.4691 16.2504 6.99453 16.2041 6.61171C16.1545 6.20215 16.0402 5.77338 15.7163 5.41357C15.3813 5.04131 14.9622 4.89723 14.5542 4.83628C14.193 4.78233 13.751 4.7824 13.2781 4.78248H8.77246Z" fill="white"/>
</svg>
