<svg width="52" height="58" viewBox="0 0 52 58" fill="none" xmlns="http://www.w3.org/2000/svg">
<path d="M50.931 29.5194L50.192 29.3916L50.931 29.5194ZM48.9712 40.8519L48.2322 40.7241L48.9712 40.8519ZM11.9388 52.5521L11.1916 52.6167L11.9388 52.5521ZM9.68279 26.4617L10.43 26.3971L9.68279 26.4617ZM31.5418 10.1758L32.2819 10.2971L31.5418 10.1758ZM29.7011 21.4106L30.4412 21.5318L29.7011 21.4106ZM11.2731 22.5536L10.7835 21.9855L10.7835 21.9855L11.2731 22.5536ZM15.2696 19.1098L15.7592 19.678L15.7592 19.678L15.2696 19.1098ZM21.8839 8.96007L21.1579 8.77175L21.8839 8.96007ZM23.2053 3.86609L23.9312 4.05441L23.9312 4.05441L23.2053 3.86609ZM27.8548 1.4063L27.6254 2.12036V2.12036L27.8548 1.4063ZM28.2574 1.53566L28.4868 0.821602V0.821601L28.2574 1.53566ZM20.0614 13.6235L20.7229 13.9769L20.0614 13.6235ZM31.2911 4.69284L30.5651 4.88116V4.88116L31.2911 4.69284ZM25.0954 1.59529L24.7698 0.919646V0.919646L25.0954 1.59529ZM50.192 29.3916L48.2322 40.7241L49.7103 40.9797L51.6701 29.6472L50.192 29.3916ZM29.4586 56.0324H16.5459V57.5324H29.4586V56.0324ZM12.686 52.4875L10.43 26.3971L8.93557 26.5263L11.1916 52.6167L12.686 52.4875ZM48.2322 40.7241C46.708 49.5381 38.7837 56.0324 29.4586 56.0324V57.5324C39.4737 57.5324 48.055 50.5514 49.7103 40.9797L48.2322 40.7241ZM30.8017 10.0546L28.9609 21.2893L30.4412 21.5318L32.2819 10.2971L30.8017 10.0546ZM11.7627 23.1218L15.7592 19.678L14.78 18.5417L10.7835 21.9855L11.7627 23.1218ZM22.6099 9.14839L23.9312 4.05441L22.4793 3.67777L21.1579 8.77175L22.6099 9.14839ZM27.6254 2.12036L28.0281 2.24972L28.4868 0.821601L28.0841 0.692239L27.6254 2.12036ZM20.7229 13.9769C21.5402 12.4469 22.1744 10.827 22.6099 9.14839L21.1579 8.77175C20.7525 10.3347 20.1618 11.8438 19.3999 13.2702L20.7229 13.9769ZM28.0281 2.24972C29.2975 2.65753 30.2474 3.6563 30.5651 4.88116L32.017 4.50452C31.5654 2.7634 30.2269 1.38059 28.4868 0.821602L28.0281 2.24972ZM23.9312 4.05441C24.13 3.28803 24.6694 2.63308 25.4209 2.27094L24.7698 0.919646C23.6338 1.46704 22.7923 2.47109 22.4793 3.67777L23.9312 4.05441ZM25.4209 2.27094C26.1044 1.94159 26.8983 1.88678 27.6254 2.12036L28.0842 0.69224C26.9924 0.341516 25.8011 0.422678 24.7698 0.919646L25.4209 2.27094ZM31.9827 24.85H46.3745V23.35H31.9827V24.85ZM32.2819 10.2971C32.5979 8.36886 32.5076 6.3958 32.017 4.50452L30.5651 4.88116C31.0033 6.57026 31.0838 8.33243 30.8017 10.0546L32.2819 10.2971ZM16.5459 56.0324C14.5364 56.0324 12.8594 54.4936 12.686 52.4875L11.1916 52.6167C11.432 55.3969 13.7566 57.5324 16.5459 57.5324V56.0324ZM15.7592 19.678C17.6257 18.0695 19.5002 16.2659 20.7229 13.9769L19.3999 13.2702C18.3151 15.3009 16.6219 16.9544 14.78 18.5417L15.7592 19.678ZM51.6701 29.6472C52.2387 26.3592 49.7101 23.35 46.3745 23.35V24.85C48.7775 24.85 50.6024 27.0186 50.192 29.3916L51.6701 29.6472ZM28.9609 21.2893C28.6554 23.154 30.0928 24.85 31.9827 24.85V23.35C31.02 23.35 30.285 22.4855 30.4412 21.5318L28.9609 21.2893ZM10.43 26.3971C10.3225 25.1541 10.8186 23.9354 11.7627 23.1218L10.7835 21.9855C9.47406 23.1139 8.78661 24.8035 8.93557 26.5263L10.43 26.3971Z" fill="#1BC469"/>
<path opacity="0.5" d="M3.69885 55.3128L2.95164 55.3774L3.69885 55.3128ZM1 24.1006L1.74721 24.036C1.71261 23.6358 1.36893 23.334 0.967665 23.3513C0.566401 23.3686 0.25 23.6989 0.25 24.1006H1ZM4.44606 55.2482L1.74721 24.036L0.252788 24.1652L2.95164 55.3774L4.44606 55.2482ZM1.75 55.4295V24.1006H0.25V55.4295H1.75ZM2.95164 55.3774C2.9822 55.7308 2.704 56.033 2.35194 56.033V57.533C3.58523 57.533 4.55223 56.4759 4.44606 55.2482L2.95164 55.3774ZM2.35194 56.033C2.0203 56.033 1.75 55.7636 1.75 55.4295H0.25C0.25 56.5904 1.19027 57.533 2.35194 57.533V56.033Z" fill="#1C274C"/>
</svg>
