<svg width="40" height="40" viewBox="0 0 40 40" fill="none" xmlns="http://www.w3.org/2000/svg">
<path opacity="0.5" d="M3.3335 5L36.6668 5" stroke="#1C274C" stroke-width="1.5" stroke-linecap="round"/>
<path d="M12.5002 11.6666C10.9425 11.6666 10.1636 11.6666 9.5835 12.0016C9.20345 12.221 8.88785 12.5366 8.66843 12.9166C8.3335 13.4968 8.3335 14.2756 8.3335 15.8333L8.3335 30.8333C8.3335 32.391 8.3335 33.1698 8.66843 33.75C8.88785 34.13 9.20345 34.4456 9.5835 34.665C10.1636 35 10.9425 35 12.5002 35C14.0579 35 14.8367 35 15.4168 34.665C15.7969 34.4456 16.1125 34.13 16.3319 33.75C16.6668 33.1698 16.6668 32.391 16.6668 30.8333L16.6668 15.8333C16.6668 14.2756 16.6668 13.4968 16.3319 12.9166C16.1125 12.5366 15.7969 12.221 15.4168 12.0016C14.8367 11.6666 14.0579 11.6666 12.5002 11.6666Z" stroke="#1C274C" stroke-width="1.5"/>
<path d="M27.5002 11.6666C25.9425 11.6666 25.1636 11.6666 24.5835 12.0016C24.2034 12.221 23.8879 12.5366 23.6684 12.9166C23.3335 13.4968 23.3335 14.2756 23.3335 15.8333L23.3335 25.8333C23.3335 27.391 23.3335 28.1698 23.6684 28.75C23.8879 29.13 24.2034 29.4456 24.5835 29.665C25.1636 30 25.9425 30 27.5002 30C29.0579 30 29.8367 30 30.4168 29.665C30.7969 29.4456 31.1125 29.13 31.3319 28.75C31.6668 28.1698 31.6668 27.391 31.6668 25.8333L31.6668 15.8333C31.6668 14.2756 31.6668 13.4968 31.3319 12.9166C31.1125 12.5366 30.7969 12.221 30.4168 12.0016C29.8367 11.6666 29.0579 11.6666 27.5002 11.6666Z" stroke="#1C274C" stroke-width="1.5"/>
</svg>
