<svg width="21" height="21" viewBox="0 0 21 21" fill="none" xmlns="http://www.w3.org/2000/svg">
<path d="M17.3895 12.544C17.3895 16.0894 15.2077 17.6451 13.5218 18.1698C13.4516 18.1916 13.3862 18.1932 13.3279 18.1794C13.0873 18.1223 12.968 17.8022 13.1411 17.5535C13.8747 16.4991 14.7228 14.8905 14.7228 13.3773C14.7228 11.7518 13.3528 9.8327 12.2829 8.64904C12.0383 8.37843 11.6117 8.55749 11.5984 8.92201C11.5542 10.1297 11.3636 11.7454 10.5418 13.0117C10.4096 13.2156 10.1288 13.2325 9.97807 13.0419C9.72131 12.7172 9.46455 12.316 9.20779 11.9991C9.06949 11.8284 8.81952 11.8261 8.65999 11.9771C8.03803 12.566 7.16726 13.4844 7.16726 14.6273C7.16726 15.4022 7.46748 16.2146 7.80621 16.8682C7.97469 17.1934 7.71996 17.5784 7.40451 17.51C7.37108 17.5028 7.33696 17.4905 7.30259 17.4724C5.81704 16.6928 4.05615 15.1137 4.05615 12.544C4.05615 9.92191 7.64806 6.28964 9.01953 2.85805C9.23594 2.31656 9.90289 2.06211 10.3668 2.41547C13.1761 4.55553 17.3895 8.69238 17.3895 12.544Z" fill="#FC4B5D"/>
<path opacity="0.5" d="M7.16699 14.6276C7.16699 15.4024 7.46721 16.2148 7.80594 16.8685C7.97442 17.1936 7.71969 17.5786 7.40424 17.5103C7.80583 17.9605 10.4527 18.3085 13.3276 18.1796C13.087 18.1225 12.9677 17.8025 13.1408 17.5537C13.8745 16.4994 14.7225 14.8908 14.7225 13.3776C14.7225 11.7521 13.3525 9.83297 12.2826 8.64931C12.0381 8.3787 11.6114 8.55775 11.5981 8.92227C11.5539 10.1299 11.3633 11.7457 10.5416 13.012C10.4093 13.2158 10.1285 13.2327 9.9778 13.0421C9.72104 12.7174 9.46428 12.3163 9.20752 11.9994C9.06921 11.8287 8.81925 11.8263 8.65972 11.9774C8.03776 12.5663 7.16699 13.4847 7.16699 14.6276Z" fill="#FAD117"/>
</svg>
