<svg width="35" height="36" viewBox="0 0 35 36" fill="none" xmlns="http://www.w3.org/2000/svg">
<path d="M25.068 2.39711C23.6561 1.47144 21.9116 1.10778 20.2151 1.38951L17.1472 1.89906L17.3189 2.10676C17.7478 2.62709 18.4476 2.8815 19.1368 2.76723C20.1037 2.60696 21.0851 2.65584 22.0123 2.89875C23.0586 3.17257 24.1804 2.98787 25.068 2.39711Z" fill="#EBECED"/>
<path d="M28.9394 2.13146L28.2793 1.84326L30.0048 11.0597L30.668 10.2246C30.9892 9.81998 31.119 9.30827 31.0266 8.81022L30.0384 3.47971C29.9285 2.88823 29.5179 2.38443 28.9394 2.13146Z" fill="#EBECED"/>
<path d="M6.82875 19.8212L23.1549 21.1666C24.1714 21.2507 25.1436 20.7599 25.6336 19.9168L25.6824 19.8327L4.58813 18.0942C4.88653 19.0487 5.77636 19.7343 6.82875 19.8212Z" fill="#EBECED"/>
<path d="M21.8795 7.45074C20.8325 6.98646 20.0189 6.13338 19.6511 5.07547L19.5801 4.87137C19.4038 4.68163 19.1451 4.59898 18.8971 4.63061C18.7239 4.69026 18.6079 4.85052 18.6178 5.02948L18.6262 5.18471C18.6872 6.28718 17.8661 7.25885 16.7122 7.45074C16.4794 7.48955 16.2574 7.34293 16.2162 7.12373L16.1894 6.62425L7.14914 13.768C6.82404 14.0246 6.7813 14.4817 7.05451 14.7878L8.6289 16.5551L19.7892 17.475L25.6678 12.8294C25.9929 12.5728 26.0356 12.1157 25.7624 11.8096L21.8795 7.45074Z" fill="#1BC469"/>
<path d="M28.2778 17.9211L2.38483 15.788C1.94449 15.7521 1.55528 16.0597 1.51636 16.4736L1.43699 17.3289C1.41868 17.5294 1.48355 17.7256 1.62168 17.8794C1.75904 18.0339 1.95212 18.1288 2.1658 18.146L2.62522 18.1841L1.40952 31.2707L0.950102 31.2326C0.73642 31.2154 0.528842 31.2765 0.365528 31.4065C0.20145 31.5359 0.100714 31.7177 0.0823985 31.919L0.00303058 32.7742C-0.035127 33.1889 0.291502 33.5554 0.731078 33.5921L26.6241 35.7251C26.6477 35.7273 26.6714 35.728 26.6943 35.728C27.1048 35.728 27.4559 35.4312 27.4918 35.0395L27.5711 34.1843C27.6093 33.7696 27.2827 33.4031 26.8431 33.3664L1.94144 31.3145L3.15714 18.2287L11.1328 18.8856L27.0675 20.1986L25.9601 32.1144C25.9471 32.2531 26.0563 32.3746 26.2028 32.3868C26.2104 32.3875 26.2188 32.3875 26.2265 32.3875C26.3631 32.3875 26.4798 32.2891 26.492 32.1583L27.5994 20.2424L28.0588 20.2805C28.0824 20.2827 28.1061 20.2834 28.1298 20.2834C28.3175 20.2834 28.4976 20.2216 28.6434 20.1066C28.8074 19.9772 28.9082 19.7954 28.9265 19.5942L29.0059 18.7389C29.0242 18.5384 28.9593 18.3422 28.8212 18.1877C28.6838 18.0339 28.4907 17.939 28.2778 17.9211ZM26.7965 33.8673C26.9431 33.8795 27.0522 34.0017 27.0392 34.1397L26.9598 34.9949C26.9469 35.1329 26.8171 35.2357 26.6706 35.2235L0.77763 33.0904C0.631105 33.0782 0.521974 32.956 0.534948 32.818L0.614315 31.9628C0.627289 31.8248 0.756261 31.7213 0.90355 31.7343L26.7965 33.8673ZM28.3946 19.5503C28.3816 19.6883 28.2519 19.7911 28.1053 19.7789L2.21236 17.6458C2.14138 17.6401 2.07651 17.6084 2.03073 17.5567C1.98494 17.505 1.9628 17.4403 1.96891 17.3734L2.04828 16.5182C2.06125 16.3802 2.19099 16.2767 2.33751 16.2897L28.2305 18.4227C28.3015 18.4285 28.3663 18.4601 28.4121 18.5118C28.4579 18.5636 28.48 18.6283 28.4739 18.6958L28.3946 19.5503Z" fill="#2A3853"/>
<path d="M34.6676 10.7931C34.6424 10.6566 34.5035 10.5646 34.3586 10.5883L30.3131 11.2538L28.5151 1.65211L31.077 1.22665C31.222 1.20221 31.3189 1.07213 31.2937 0.93558C31.2678 0.799029 31.1297 0.707037 30.9847 0.731473L28.4228 1.15694L28.3983 1.0247C28.3724 0.888147 28.2343 0.796873 28.0893 0.82059C27.9443 0.845025 27.8473 0.975108 27.8725 1.11166L28.0526 2.0747L26.0684 2.40386C26.0471 2.40673 25.9883 2.41392 25.9234 2.4168C25.7021 2.42326 25.48 2.36146 25.2992 2.23928C23.8255 1.2439 21.955 0.843588 20.1693 1.14041L17.0167 1.66361C16.2474 1.79154 15.6972 2.44195 15.7369 3.17645L15.9498 7.1357C15.9506 7.14576 15.9513 7.15654 15.9536 7.1666C15.9857 7.33909 16.0872 7.48857 16.2398 7.58919C16.3917 7.68981 16.5763 7.7279 16.7595 7.69771C18.0447 7.48426 18.962 6.39833 18.894 5.17081L18.8856 5.01557C18.8811 4.93939 18.9383 4.87183 19.0184 4.85818L19.1436 4.83734C19.2222 4.8244 19.3 4.86824 19.3245 4.93939L19.3985 5.15284C19.8884 6.56219 21.0934 7.61291 22.6236 7.96363L23.2478 8.10665C23.3913 8.13971 23.5355 8.05706 23.5706 7.92194C23.6057 7.78683 23.518 7.651 23.3745 7.61794L22.7502 7.47492C21.4018 7.16588 20.3387 6.2395 19.9067 4.99688L19.8327 4.78343C19.7259 4.47584 19.3901 4.2861 19.0512 4.34216L18.9261 4.363C18.5811 4.4205 18.3346 4.71228 18.353 5.04216L18.3614 5.1974C18.4155 6.17122 17.6875 7.03293 16.6679 7.20254C16.626 7.20972 16.5832 7.20038 16.5473 7.17738C16.5153 7.15654 16.4932 7.12636 16.484 7.09114L16.2719 3.15129C16.2459 2.66977 16.6069 2.24359 17.1106 2.15951L20.2631 1.6363C21.9085 1.3632 23.6317 1.73189 24.9893 2.64893C25.2236 2.80704 25.5014 2.8976 25.7861 2.917L25.9669 3.88292C25.9898 4.0051 26.1028 4.09062 26.2295 4.09062C26.2447 4.09062 26.2607 4.08918 26.276 4.08703C26.421 4.06259 26.5179 3.93251 26.4927 3.79596L26.3203 2.8746L28.1465 2.57131L29.6331 10.5107L26.7133 10.9958C26.5683 11.0202 26.4714 11.1503 26.4966 11.2868C26.5195 11.409 26.6324 11.4945 26.7591 11.4945C26.7743 11.4945 26.7904 11.4931 26.8056 11.4909L29.7255 11.0058L29.9056 11.9689C29.9285 12.0911 30.0414 12.1766 30.1681 12.1766C30.1833 12.1766 30.1994 12.1751 30.2146 12.173C30.3596 12.1485 30.4566 12.0185 30.4314 11.8819L30.407 11.7504L34.4517 11.0849C34.5951 11.0597 34.6928 10.9297 34.6676 10.7931Z" fill="#2A3853"/>
<path d="M26.9813 8.1124C26.9965 8.1124 27.0125 8.11096 27.0278 8.1088C27.1728 8.08437 27.2697 7.95429 27.2445 7.81774L26.6951 4.88333C26.6691 4.74678 26.531 4.65479 26.386 4.67923C26.241 4.70366 26.1441 4.83374 26.1693 4.97029L26.7187 7.9047C26.7409 8.02687 26.8538 8.1124 26.9813 8.1124Z" fill="#2A3853"/>
<path d="M5.88209 11.1336C5.86225 11.1336 5.84241 11.1315 5.8218 11.1272L3.88568 10.7067C3.74221 10.6758 3.65216 10.5407 3.68574 10.4049C3.71855 10.2698 3.86203 10.185 4.00626 10.2166L5.94238 10.637C6.08585 10.6679 6.1759 10.803 6.14232 10.9389C6.11409 11.0546 6.00419 11.1336 5.88209 11.1336Z" fill="#1C274C" fill-opacity="0.5"/>
<path d="M9.80253 6.79349C9.70103 6.79349 9.60411 6.73887 9.55908 6.64616L8.73335 4.94359C8.6723 4.8171 8.73106 4.66833 8.86537 4.61012C8.99969 4.55262 9.15766 4.60796 9.21948 4.73445L10.0452 6.43702C10.1063 6.56351 10.0475 6.71228 9.91318 6.77049C9.87731 6.78631 9.83916 6.79349 9.80253 6.79349Z" fill="#1C274C" fill-opacity="0.5"/>
<path d="M34.7329 17.9227C34.7276 17.9227 34.723 17.9227 34.7177 17.922L32.7335 17.8171C32.5862 17.8092 32.4732 17.6906 32.4816 17.5519C32.49 17.4132 32.616 17.3083 32.7632 17.3147L34.7474 17.4197C34.8947 17.4276 35.0077 17.5462 34.9993 17.6849C34.9916 17.8193 34.8734 17.9227 34.7329 17.9227Z" fill="#1C274C" fill-opacity="0.5"/>
<path d="M30.788 24.2675C30.7026 24.2675 30.6186 24.2294 30.5675 24.1575L29.4472 22.6123C29.364 22.4974 29.3953 22.3414 29.5174 22.2631C29.6395 22.1847 29.8051 22.2142 29.8883 22.3292L31.0086 23.8744C31.0918 23.9894 31.0605 24.1453 30.9384 24.2236C30.8926 24.2531 30.8399 24.2675 30.788 24.2675Z" fill="#1C274C" fill-opacity="0.5"/>
</svg>
